# MagicaVoxel @ Ephtracy

# group
o 

# material
mtllib QuestJournal.mtl
usemtl palette

# normals
vn -1 0 0
vn 1 0 0
vn 0 0 1
vn 0 0 -1
vn 0 -1 0
vn 0 1 0

# texcoords
vt 0.943359 0.5
vt 0.970703 0.5
vt 0.974609 0.5

# verts
v -1.1 0 0.3
v -1.1 0 0
v -1.1 0.3 0.3
v -1.1 0.3 0.2
v -1.1 0.3 0
v -1.1 0.4 0.2
v -1.1 0.4 0.1
v -1.1 0.4 0
v -1.1 1.7 0.2
v -1.1 1.7 0.1
v -1.1 1.7 0
v -1.1 1.8 0.3
v -1.1 1.8 0.2
v -1.1 1.8 0
v -1.1 2.1 0.3
v -1.1 2.1 0
v 0.6 0 0.2
v 0.6 0 0.1
v 0.6 0.1 0.2
v 0.6 0.1 0.1
v 0.6 2 0.2
v 0.6 2 0.1
v 0.6 2.1 0.2
v 0.6 2.1 0.1
v 0.7 0 0.3
v 0.7 0 0.2
v 0.7 0.1 0.3
v 0.7 0.1 0.2
v 0.7 0.1 0.1
v 0.7 0.2 0.2
v 0.7 0.2 0.1
v 0.7 1.9 0.2
v 0.7 1.9 0.1
v 0.7 2 0.3
v 0.7 2 0.2
v 0.7 2 0.1
v 0.7 2.1 0.3
v 0.7 2.1 0.2
v 0.8 0.1 0.3
v 0.8 0.1 0.2
v 0.8 0.2 0.3
v 0.8 0.2 0.2
v 0.8 0.2 0.1
v 0.8 0.3 0.2
v 0.8 0.3 0.1
v 0.8 1.8 0.2
v 0.8 1.8 0.1
v 0.8 1.9 0.3
v 0.8 1.9 0.2
v 0.8 1.9 0.1
v 0.8 2 0.3
v 0.8 2 0.2
v 0.9 0.2 0.3
v 0.9 0.2 0.2
v 0.9 0.3 0.3
v 0.9 0.3 0.2
v 0.9 0.3 0.1
v 0.9 0.4 0.2
v 0.9 0.4 0.1
v 0.9 1.7 0.2
v 0.9 1.7 0.1
v 0.9 1.8 0.3
v 0.9 1.8 0.2
v 0.9 1.8 0.1
v 0.9 1.9 0.3
v 0.9 1.9 0.2
v -1 0.2 0.3
v -1 0.2 0.2
v -1 0.3 0.3
v -1 0.3 0.2
v -1 0.3 0.1
v -1 0.4 0.2
v -1 0.4 0.1
v -1 1.7 0.2
v -1 1.7 0.1
v -1 1.8 0.3
v -1 1.8 0.2
v -1 1.8 0.1
v -1 1.9 0.3
v -1 1.9 0.2
v -0.9 0.1 0.3
v -0.9 0.1 0.2
v -0.9 0.2 0.3
v -0.9 0.2 0.2
v -0.9 0.2 0.1
v -0.9 0.3 0.2
v -0.9 0.3 0.1
v -0.9 1.8 0.2
v -0.9 1.8 0.1
v -0.9 1.9 0.3
v -0.9 1.9 0.2
v -0.9 1.9 0.1
v -0.9 2 0.3
v -0.9 2 0.2
v -0.8 0 0.3
v -0.8 0 0.2
v -0.8 0.1 0.3
v -0.8 0.1 0.2
v -0.8 0.1 0.1
v -0.8 0.2 0.2
v -0.8 0.2 0.1
v -0.8 1.9 0.2
v -0.8 1.9 0.1
v -0.8 2 0.3
v -0.8 2 0.2
v -0.8 2 0.1
v -0.8 2.1 0.3
v -0.8 2.1 0.2
v -0.7 0 0.2
v -0.7 0 0.1
v -0.7 0.1 0.2
v -0.7 0.1 0.1
v -0.7 2 0.2
v -0.7 2 0.1
v -0.7 2.1 0.2
v -0.7 2.1 0.1
v 1 0 0.3
v 1 0 0
v 1 0.3 0.3
v 1 0.3 0.2
v 1 0.3 0
v 1 0.4 0.2
v 1 0.4 0.1
v 1 0.4 0
v 1 1.7 0.2
v 1 1.7 0.1
v 1 1.7 0
v 1 1.8 0.3
v 1 1.8 0.2
v 1 1.8 0
v 1 2.1 0.3
v 1 2.1 0
v -1.1 0 0.3
v -1.1 0.3 0.3
v -1.1 1.8 0.3
v -1.1 2.1 0.3
v -1 0.2 0.3
v -1 0.3 0.3
v -1 1.8 0.3
v -1 1.9 0.3
v -0.9 0.1 0.3
v -0.9 0.2 0.3
v -0.9 1.9 0.3
v -0.9 2 0.3
v -0.8 0 0.3
v -0.8 0.1 0.3
v -0.8 2 0.3
v -0.8 2.1 0.3
v 0.7 0 0.3
v 0.7 0.1 0.3
v 0.7 2 0.3
v 0.7 2.1 0.3
v 0.8 0.1 0.3
v 0.8 0.2 0.3
v 0.8 1.9 0.3
v 0.8 2 0.3
v 0.9 0.2 0.3
v 0.9 0.3 0.3
v 0.9 1.8 0.3
v 0.9 1.9 0.3
v 1 0 0.3
v 1 0.3 0.3
v 1 1.8 0.3
v 1 2.1 0.3
v -1.1 0.3 0.2
v -1.1 0.4 0.2
v -1.1 1.7 0.2
v -1.1 1.8 0.2
v -1 0.2 0.2
v -1 0.3 0.2
v -1 0.4 0.2
v -1 1.7 0.2
v -1 1.8 0.2
v -1 1.9 0.2
v -0.9 0.1 0.2
v -0.9 0.2 0.2
v -0.9 0.3 0.2
v -0.9 1.8 0.2
v -0.9 1.9 0.2
v -0.9 2 0.2
v -0.8 0 0.2
v -0.8 0.1 0.2
v -0.8 0.2 0.2
v -0.8 1.9 0.2
v -0.8 2 0.2
v -0.8 2.1 0.2
v -0.7 0 0.2
v -0.7 0.1 0.2
v -0.7 2 0.2
v -0.7 2.1 0.2
v 0.6 0 0.2
v 0.6 0.1 0.2
v 0.6 2 0.2
v 0.6 2.1 0.2
v 0.7 0 0.2
v 0.7 0.1 0.2
v 0.7 0.2 0.2
v 0.7 1.9 0.2
v 0.7 2 0.2
v 0.7 2.1 0.2
v 0.8 0.1 0.2
v 0.8 0.2 0.2
v 0.8 0.3 0.2
v 0.8 1.8 0.2
v 0.8 1.9 0.2
v 0.8 2 0.2
v 0.9 0.2 0.2
v 0.9 0.3 0.2
v 0.9 0.4 0.2
v 0.9 1.7 0.2
v 0.9 1.8 0.2
v 0.9 1.9 0.2
v 1 0.3 0.2
v 1 0.4 0.2
v 1 1.7 0.2
v 1 1.8 0.2
v -1.1 0.4 0.1
v -1.1 1.7 0.1
v -1 0.3 0.1
v -1 0.4 0.1
v -1 1.7 0.1
v -1 1.8 0.1
v -0.9 0.2 0.1
v -0.9 0.3 0.1
v -0.9 1.8 0.1
v -0.9 1.9 0.1
v -0.8 0.1 0.1
v -0.8 0.2 0.1
v -0.8 1.9 0.1
v -0.8 2 0.1
v -0.7 0 0.1
v -0.7 0.1 0.1
v -0.7 2 0.1
v -0.7 2.1 0.1
v 0.6 0 0.1
v 0.6 0.1 0.1
v 0.6 2 0.1
v 0.6 2.1 0.1
v 0.7 0.1 0.1
v 0.7 0.2 0.1
v 0.7 1.9 0.1
v 0.7 2 0.1
v 0.8 0.2 0.1
v 0.8 0.3 0.1
v 0.8 1.8 0.1
v 0.8 1.9 0.1
v 0.9 0.3 0.1
v 0.9 0.4 0.1
v 0.9 1.7 0.1
v 0.9 1.8 0.1
v 1 0.4 0.1
v 1 1.7 0.1
v -1.1 0 0
v -1.1 0.3 0
v -1.1 0.4 0
v -1.1 1.7 0
v -1.1 1.8 0
v -1.1 2.1 0
v -1 0.2 0
v -1 0.3 0
v -1 0.4 0
v -1 1.7 0
v -1 1.8 0
v -1 1.9 0
v -0.9 0.1 0
v -0.9 0.2 0
v -0.9 0.3 0
v -0.9 1.8 0
v -0.9 1.9 0
v -0.9 2 0
v -0.8 0 0
v -0.8 0.1 0
v -0.8 0.2 0
v -0.8 1.9 0
v -0.8 2 0
v -0.8 2.1 0
v -0.7 0 0
v -0.7 0.1 0
v -0.7 2 0
v -0.7 2.1 0
v 0.6 0 0
v 0.6 0.1 0
v 0.6 2 0
v 0.6 2.1 0
v 0.7 0 0
v 0.7 0.1 0
v 0.7 0.2 0
v 0.7 1.9 0
v 0.7 2 0
v 0.7 2.1 0
v 0.8 0.1 0
v 0.8 0.2 0
v 0.8 0.3 0
v 0.8 1.8 0
v 0.8 1.9 0
v 0.8 2 0
v 0.9 0.2 0
v 0.9 0.3 0
v 0.9 0.4 0
v 0.9 1.7 0
v 0.9 1.8 0
v 0.9 1.9 0
v 1 0 0
v 1 0.3 0
v 1 0.4 0
v 1 1.7 0
v 1 1.8 0
v 1 2.1 0
v -1.1 0 0.3
v -0.8 0 0.3
v 0.7 0 0.3
v 1 0 0.3
v -0.8 0 0.2
v -0.7 0 0.2
v 0.6 0 0.2
v 0.7 0 0.2
v -0.7 0 0.1
v 0.6 0 0.1
v -1.1 0 0
v -0.8 0 0
v -0.7 0 0
v 0.6 0 0
v 0.7 0 0
v 1 0 0
v -1.1 1.7 0.2
v -1 1.7 0.2
v 0.9 1.7 0.2
v 1 1.7 0.2
v -1.1 1.7 0.1
v -1 1.7 0.1
v 0.9 1.7 0.1
v 1 1.7 0.1
v -1.1 1.8 0.3
v -1 1.8 0.3
v 0.9 1.8 0.3
v 1 1.8 0.3
v -1.1 1.8 0.2
v -1 1.8 0.2
v -0.9 1.8 0.2
v 0.8 1.8 0.2
v 0.9 1.8 0.2
v 1 1.8 0.2
v -1 1.8 0.1
v -0.9 1.8 0.1
v 0.8 1.8 0.1
v 0.9 1.8 0.1
v -1 1.9 0.3
v -0.9 1.9 0.3
v 0.8 1.9 0.3
v 0.9 1.9 0.3
v -1 1.9 0.2
v -0.9 1.9 0.2
v -0.8 1.9 0.2
v 0.7 1.9 0.2
v 0.8 1.9 0.2
v 0.9 1.9 0.2
v -0.9 1.9 0.1
v -0.8 1.9 0.1
v 0.7 1.9 0.1
v 0.8 1.9 0.1
v -0.9 2 0.3
v -0.8 2 0.3
v 0.7 2 0.3
v 0.8 2 0.3
v -0.9 2 0.2
v -0.8 2 0.2
v -0.7 2 0.2
v 0.6 2 0.2
v 0.7 2 0.2
v 0.8 2 0.2
v -0.8 2 0.1
v -0.7 2 0.1
v 0.6 2 0.1
v 0.7 2 0.1
v -0.9 0.1 0.3
v -0.8 0.1 0.3
v 0.7 0.1 0.3
v 0.8 0.1 0.3
v -0.9 0.1 0.2
v -0.8 0.1 0.2
v -0.7 0.1 0.2
v 0.6 0.1 0.2
v 0.7 0.1 0.2
v 0.8 0.1 0.2
v -0.8 0.1 0.1
v -0.7 0.1 0.1
v 0.6 0.1 0.1
v 0.7 0.1 0.1
v -1 0.2 0.3
v -0.9 0.2 0.3
v 0.8 0.2 0.3
v 0.9 0.2 0.3
v -1 0.2 0.2
v -0.9 0.2 0.2
v -0.8 0.2 0.2
v 0.7 0.2 0.2
v 0.8 0.2 0.2
v 0.9 0.2 0.2
v -0.9 0.2 0.1
v -0.8 0.2 0.1
v 0.7 0.2 0.1
v 0.8 0.2 0.1
v -1.1 0.3 0.3
v -1 0.3 0.3
v 0.9 0.3 0.3
v 1 0.3 0.3
v -1.1 0.3 0.2
v -1 0.3 0.2
v -0.9 0.3 0.2
v 0.8 0.3 0.2
v 0.9 0.3 0.2
v 1 0.3 0.2
v -1 0.3 0.1
v -0.9 0.3 0.1
v 0.8 0.3 0.1
v 0.9 0.3 0.1
v -1.1 0.4 0.2
v -1 0.4 0.2
v 0.9 0.4 0.2
v 1 0.4 0.2
v -1.1 0.4 0.1
v -1 0.4 0.1
v 0.9 0.4 0.1
v 1 0.4 0.1
v -1.1 2.1 0.3
v -0.8 2.1 0.3
v 0.7 2.1 0.3
v 1 2.1 0.3
v -0.8 2.1 0.2
v -0.7 2.1 0.2
v 0.6 2.1 0.2
v 0.7 2.1 0.2
v -0.7 2.1 0.1
v 0.6 2.1 0.1
v -1.1 2.1 0
v -0.8 2.1 0
v -0.7 2.1 0
v 0.6 2.1 0
v 0.7 2.1 0
v 1 2.1 0

# faces
f 3/1/1 2/1/1 1/1/1
f 4/1/1 2/1/1 3/1/1
f 5/1/1 2/1/1 4/1/1
f 6/3/1 5/3/1 4/3/1
f 7/3/1 5/3/1 6/3/1
f 8/3/1 5/3/1 7/3/1
f 10/2/1 8/2/1 7/2/1
f 11/2/1 8/2/1 10/2/1
f 13/3/1 10/3/1 9/3/1
f 13/3/1 11/3/1 10/3/1
f 14/3/1 11/3/1 13/3/1
f 15/1/1 13/1/1 12/1/1
f 15/1/1 14/1/1 13/1/1
f 16/1/1 14/1/1 15/1/1
f 19/3/1 18/3/1 17/3/1
f 20/3/1 18/3/1 19/3/1
f 23/3/1 22/3/1 21/3/1
f 24/3/1 22/3/1 23/3/1
f 27/1/1 26/1/1 25/1/1
f 28/1/1 26/1/1 27/1/1
f 30/3/1 29/3/1 28/3/1
f 31/3/1 29/3/1 30/3/1
f 35/3/1 33/3/1 32/3/1
f 36/3/1 33/3/1 35/3/1
f 37/1/1 35/1/1 34/1/1
f 38/1/1 35/1/1 37/1/1
f 41/1/1 40/1/1 39/1/1
f 42/1/1 40/1/1 41/1/1
f 44/3/1 43/3/1 42/3/1
f 45/3/1 43/3/1 44/3/1
f 49/3/1 47/3/1 46/3/1
f 50/3/1 47/3/1 49/3/1
f 51/1/1 49/1/1 48/1/1
f 52/1/1 49/1/1 51/1/1
f 55/1/1 54/1/1 53/1/1
f 56/1/1 54/1/1 55/1/1
f 58/3/1 57/3/1 56/3/1
f 59/3/1 57/3/1 58/3/1
f 63/3/1 61/3/1 60/3/1
f 64/3/1 61/3/1 63/3/1
f 65/1/1 63/1/1 62/1/1
f 66/1/1 63/1/1 65/1/1
f 67/1/2 68/1/2 69/1/2
f 69/1/2 68/1/2 70/1/2
f 70/3/2 71/3/2 72/3/2
f 72/3/2 71/3/2 73/3/2
f 74/3/2 75/3/2 77/3/2
f 77/3/2 75/3/2 78/3/2
f 76/1/2 77/1/2 79/1/2
f 79/1/2 77/1/2 80/1/2
f 81/1/2 82/1/2 83/1/2
f 83/1/2 82/1/2 84/1/2
f 84/3/2 85/3/2 86/3/2
f 86/3/2 85/3/2 87/3/2
f 88/3/2 89/3/2 91/3/2
f 91/3/2 89/3/2 92/3/2
f 90/1/2 91/1/2 93/1/2
f 93/1/2 91/1/2 94/1/2
f 95/1/2 96/1/2 97/1/2
f 97/1/2 96/1/2 98/1/2
f 98/3/2 99/3/2 100/3/2
f 100/3/2 99/3/2 101/3/2
f 102/3/2 103/3/2 105/3/2
f 105/3/2 103/3/2 106/3/2
f 104/1/2 105/1/2 107/1/2
f 107/1/2 105/1/2 108/1/2
f 109/3/2 110/3/2 111/3/2
f 111/3/2 110/3/2 112/3/2
f 113/3/2 114/3/2 115/3/2
f 115/3/2 114/3/2 116/3/2
f 117/1/2 118/1/2 119/1/2
f 119/1/2 118/1/2 120/1/2
f 120/1/2 118/1/2 121/1/2
f 120/3/2 121/3/2 122/3/2
f 122/3/2 121/3/2 123/3/2
f 123/3/2 121/3/2 124/3/2
f 123/2/2 124/2/2 126/2/2
f 126/2/2 124/2/2 127/2/2
f 125/3/2 126/3/2 129/3/2
f 126/3/2 127/3/2 129/3/2
f 129/3/2 127/3/2 130/3/2
f 128/1/2 129/1/2 131/1/2
f 129/1/2 130/1/2 131/1/2
f 131/1/2 130/1/2 132/1/2
f 137/1/3 134/1/3 133/1/3
f 138/1/3 134/1/3 137/1/3
f 139/1/3 136/1/3 135/1/3
f 140/1/3 136/1/3 139/1/3
f 141/1/3 137/1/3 133/1/3
f 142/1/3 137/1/3 141/1/3
f 143/1/3 136/1/3 140/1/3
f 144/1/3 136/1/3 143/1/3
f 145/1/3 141/1/3 133/1/3
f 146/1/3 141/1/3 145/1/3
f 147/1/3 136/1/3 144/1/3
f 148/1/3 136/1/3 147/1/3
f 153/1/3 150/1/3 149/1/3
f 156/1/3 152/1/3 151/1/3
f 157/1/3 154/1/3 153/1/3
f 160/1/3 156/1/3 155/1/3
f 161/1/3 158/1/3 157/1/3
f 161/1/3 153/1/3 149/1/3
f 161/1/3 157/1/3 153/1/3
f 162/1/3 158/1/3 161/1/3
f 163/1/3 160/1/3 159/1/3
f 164/1/3 156/1/3 160/1/3
f 164/1/3 160/1/3 163/1/3
f 164/1/3 152/1/3 156/1/3
f 170/3/3 166/3/3 165/3/3
f 171/3/3 166/3/3 170/3/3
f 172/3/3 168/3/3 167/3/3
f 173/3/3 168/3/3 172/3/3
f 176/3/3 170/3/3 169/3/3
f 177/3/3 170/3/3 176/3/3
f 178/3/3 174/3/3 173/3/3
f 179/3/3 174/3/3 178/3/3
f 182/3/3 176/3/3 175/3/3
f 183/3/3 176/3/3 182/3/3
f 184/3/3 180/3/3 179/3/3
f 185/3/3 180/3/3 184/3/3
f 187/3/3 182/3/3 181/3/3
f 188/3/3 182/3/3 187/3/3
f 189/3/3 186/3/3 185/3/3
f 190/3/3 186/3/3 189/3/3
f 195/3/3 192/3/3 191/3/3
f 196/3/3 192/3/3 195/3/3
f 199/3/3 194/3/3 193/3/3
f 200/3/3 194/3/3 199/3/3
f 201/3/3 197/3/3 196/3/3
f 202/3/3 197/3/3 201/3/3
f 205/3/3 199/3/3 198/3/3
f 206/3/3 199/3/3 205/3/3
f 207/3/3 203/3/3 202/3/3
f 208/3/3 203/3/3 207/3/3
f 211/3/3 205/3/3 204/3/3
f 212/3/3 205/3/3 211/3/3
f 213/3/3 209/3/3 208/3/3
f 214/3/3 209/3/3 213/3/3
f 215/3/3 211/3/3 210/3/3
f 216/3/3 211/3/3 215/3/3
f 220/2/3 218/2/3 217/2/3
f 221/2/3 218/2/3 220/2/3
f 224/2/3 220/2/3 219/2/3
f 224/2/3 222/2/3 221/2/3
f 224/2/3 221/2/3 220/2/3
f 225/2/3 222/2/3 224/2/3
f 228/2/3 224/2/3 223/2/3
f 228/2/3 226/2/3 225/2/3
f 228/2/3 225/2/3 224/2/3
f 229/2/3 226/2/3 228/2/3
f 232/2/3 228/2/3 227/2/3
f 232/2/3 230/2/3 229/2/3
f 232/2/3 229/2/3 228/2/3
f 233/2/3 230/2/3 232/2/3
f 235/2/3 232/2/3 231/2/3
f 235/2/3 234/2/3 233/2/3
f 235/2/3 233/2/3 232/2/3
f 236/2/3 234/2/3 235/2/3
f 237/2/3 234/2/3 236/2/3
f 238/2/3 234/2/3 237/2/3
f 239/2/3 237/2/3 236/2/3
f 240/2/3 237/2/3 239/2/3
f 241/2/3 237/2/3 240/2/3
f 242/2/3 237/2/3 241/2/3
f 243/2/3 241/2/3 240/2/3
f 244/2/3 241/2/3 243/2/3
f 245/2/3 241/2/3 244/2/3
f 246/2/3 241/2/3 245/2/3
f 247/2/3 245/2/3 244/2/3
f 248/2/3 245/2/3 247/2/3
f 249/2/3 245/2/3 248/2/3
f 250/2/3 245/2/3 249/2/3
f 251/2/3 249/2/3 248/2/3
f 252/2/3 249/2/3 251/2/3
f 253/1/4 254/1/4 259/1/4
f 254/3/4 255/3/4 260/3/4
f 259/1/4 254/1/4 260/1/4
f 255/2/4 256/2/4 261/2/4
f 260/3/4 255/3/4 261/3/4
f 256/3/4 257/3/4 262/3/4
f 261/2/4 256/2/4 262/2/4
f 257/1/4 258/1/4 263/1/4
f 262/3/4 257/3/4 263/3/4
f 263/1/4 258/1/4 264/1/4
f 253/1/4 259/1/4 265/1/4
f 259/3/4 260/3/4 266/3/4
f 265/1/4 259/1/4 266/1/4
f 261/2/4 262/2/4 267/2/4
f 266/3/4 260/3/4 267/3/4
f 260/2/4 261/2/4 267/2/4
f 262/2/4 263/2/4 267/2/4
f 263/3/4 264/3/4 268/3/4
f 267/2/4 263/2/4 268/2/4
f 264/1/4 258/1/4 269/1/4
f 268/3/4 264/3/4 269/3/4
f 269/1/4 258/1/4 270/1/4
f 253/1/4 265/1/4 271/1/4
f 265/3/4 266/3/4 272/3/4
f 271/1/4 265/1/4 272/1/4
f 267/2/4 268/2/4 273/2/4
f 272/3/4 266/3/4 273/3/4
f 266/2/4 267/2/4 273/2/4
f 268/2/4 269/2/4 273/2/4
f 269/3/4 270/3/4 274/3/4
f 273/2/4 269/2/4 274/2/4
f 270/1/4 258/1/4 275/1/4
f 274/3/4 270/3/4 275/3/4
f 275/1/4 258/1/4 276/1/4
f 271/3/4 272/3/4 277/3/4
f 273/2/4 274/2/4 278/2/4
f 277/3/4 272/3/4 278/3/4
f 272/2/4 273/2/4 278/2/4
f 274/2/4 275/2/4 278/2/4
f 275/3/4 276/3/4 279/3/4
f 278/2/4 275/2/4 279/2/4
f 279/3/4 276/3/4 280/3/4
f 277/2/4 278/2/4 281/2/4
f 278/2/4 279/2/4 281/2/4
f 279/2/4 280/2/4 281/2/4
f 281/2/4 280/2/4 282/2/4
f 282/2/4 280/2/4 283/2/4
f 283/2/4 280/2/4 284/2/4
f 281/3/4 282/3/4 285/3/4
f 282/2/4 283/2/4 286/2/4
f 285/3/4 282/3/4 286/3/4
f 286/2/4 283/2/4 287/2/4
f 287/2/4 283/2/4 288/2/4
f 283/3/4 284/3/4 289/3/4
f 288/2/4 283/2/4 289/2/4
f 289/3/4 284/3/4 290/3/4
f 285/1/4 286/1/4 291/1/4
f 286/3/4 287/3/4 291/3/4
f 287/2/4 288/2/4 292/2/4
f 291/3/4 287/3/4 292/3/4
f 292/2/4 288/2/4 293/2/4
f 293/2/4 288/2/4 294/2/4
f 288/3/4 289/3/4 295/3/4
f 294/2/4 288/2/4 295/2/4
f 289/1/4 290/1/4 296/1/4
f 295/3/4 289/3/4 296/3/4
f 291/1/4 292/1/4 297/1/4
f 292/3/4 293/3/4 297/3/4
f 293/2/4 294/2/4 298/2/4
f 297/3/4 293/3/4 298/3/4
f 298/2/4 294/2/4 299/2/4
f 299/2/4 294/2/4 300/2/4
f 294/3/4 295/3/4 301/3/4
f 300/2/4 294/2/4 301/2/4
f 295/1/4 296/1/4 302/1/4
f 301/3/4 295/3/4 302/3/4
f 285/1/4 291/1/4 303/1/4
f 291/1/4 297/1/4 303/1/4
f 297/1/4 298/1/4 303/1/4
f 298/3/4 299/3/4 304/3/4
f 303/1/4 298/1/4 304/1/4
f 299/2/4 300/2/4 305/2/4
f 304/3/4 299/3/4 305/3/4
f 300/3/4 301/3/4 306/3/4
f 305/2/4 300/2/4 306/2/4
f 301/1/4 302/1/4 307/1/4
f 306/3/4 301/3/4 307/3/4
f 302/1/4 296/1/4 308/1/4
f 307/1/4 302/1/4 308/1/4
f 296/1/4 290/1/4 308/1/4
f 313/1/5 310/1/5 309/1/5
f 316/1/5 312/1/5 311/1/5
f 317/3/5 314/3/5 313/3/5
f 318/3/5 316/3/5 315/3/5
f 319/1/5 313/1/5 309/1/5
f 320/3/5 317/3/5 313/3/5
f 320/1/5 313/1/5 319/1/5
f 321/2/5 318/2/5 317/2/5
f 321/3/5 317/3/5 320/3/5
f 322/3/5 316/3/5 318/3/5
f 322/2/5 318/2/5 321/2/5
f 323/1/5 312/1/5 316/1/5
f 323/3/5 316/3/5 322/3/5
f 324/1/5 312/1/5 323/1/5
f 329/3/5 326/3/5 325/3/5
f 330/3/5 326/3/5 329/3/5
f 331/3/5 328/3/5 327/3/5
f 332/3/5 328/3/5 331/3/5
f 337/1/5 334/1/5 333/1/5
f 338/1/5 334/1/5 337/1/5
f 341/1/5 336/1/5 335/1/5
f 342/1/5 336/1/5 341/1/5
f 343/3/5 339/3/5 338/3/5
f 344/3/5 339/3/5 343/3/5
f 345/3/5 341/3/5 340/3/5
f 346/3/5 341/3/5 345/3/5
f 351/1/5 348/1/5 347/1/5
f 352/1/5 348/1/5 351/1/5
f 355/1/5 350/1/5 349/1/5
f 356/1/5 350/1/5 355/1/5
f 357/3/5 353/3/5 352/3/5
f 358/3/5 353/3/5 357/3/5
f 359/3/5 355/3/5 354/3/5
f 360/3/5 355/3/5 359/3/5
f 365/1/5 362/1/5 361/1/5
f 366/1/5 362/1/5 365/1/5
f 369/1/5 364/1/5 363/1/5
f 370/1/5 364/1/5 369/1/5
f 371/3/5 367/3/5 366/3/5
f 372/3/5 367/3/5 371/3/5
f 373/3/5 369/3/5 368/3/5
f 374/3/5 369/3/5 373/3/5
f 375/1/6 376/1/6 379/1/6
f 379/1/6 376/1/6 380/1/6
f 377/1/6 378/1/6 383/1/6
f 383/1/6 378/1/6 384/1/6
f 380/3/6 381/3/6 385/3/6
f 385/3/6 381/3/6 386/3/6
f 382/3/6 383/3/6 387/3/6
f 387/3/6 383/3/6 388/3/6
f 389/1/6 390/1/6 393/1/6
f 393/1/6 390/1/6 394/1/6
f 391/1/6 392/1/6 397/1/6
f 397/1/6 392/1/6 398/1/6
f 394/3/6 395/3/6 399/3/6
f 399/3/6 395/3/6 400/3/6
f 396/3/6 397/3/6 401/3/6
f 401/3/6 397/3/6 402/3/6
f 403/1/6 404/1/6 407/1/6
f 407/1/6 404/1/6 408/1/6
f 405/1/6 406/1/6 411/1/6
f 411/1/6 406/1/6 412/1/6
f 408/3/6 409/3/6 413/3/6
f 413/3/6 409/3/6 414/3/6
f 410/3/6 411/3/6 415/3/6
f 415/3/6 411/3/6 416/3/6
f 417/3/6 418/3/6 421/3/6
f 421/3/6 418/3/6 422/3/6
f 419/3/6 420/3/6 423/3/6
f 423/3/6 420/3/6 424/3/6
f 425/1/6 426/1/6 429/1/6
f 427/1/6 428/1/6 432/1/6
f 429/3/6 430/3/6 433/3/6
f 431/3/6 432/3/6 434/3/6
f 425/1/6 429/1/6 435/1/6
f 429/3/6 433/3/6 436/3/6
f 435/1/6 429/1/6 436/1/6
f 433/2/6 434/2/6 437/2/6
f 436/3/6 433/3/6 437/3/6
f 434/3/6 432/3/6 438/3/6
f 437/2/6 434/2/6 438/2/6
f 432/1/6 428/1/6 439/1/6
f 438/3/6 432/3/6 439/3/6
f 439/1/6 428/1/6 440/1/6
