# MagicaVoxel @ Ephtracy

# group
o 

# material
mtllib TreeLog1.mtl
usemtl palette

# normals
vn -1 0 0
vn 1 0 0
vn 0 0 1
vn 0 0 -1
vn 0 -1 0
vn 0 1 0

# texcoords
vt 0.970703 0.5
vt 0.974609 0.5
vt 0.978516 0.5

# verts
v -0.5 0 0.1
v -0.5 0 5.96046e-008
v -0.5 3.8 0.1
v -0.5 3.8 5.96046e-008
v -0.4 0 0.2
v -0.4 0 0.1
v -0.4 0 5.96046e-008
v -0.4 0 -0.1
v -0.4 3.8 0.2
v -0.4 3.8 0.1
v -0.4 3.8 5.96046e-008
v -0.4 3.8 -0.1
v -0.3 0 0.3
v -0.3 0 0.2
v -0.3 0 -0.1
v -0.3 0 -0.2
v -0.3 3.8 0.3
v -0.3 3.8 0.2
v -0.3 3.8 -0.1
v -0.3 3.8 -0.2
v -0.2 0 0.4
v -0.2 0 0.3
v -0.2 0 -0.2
v -0.2 0 -0.3
v -0.2 3.8 0.4
v -0.2 3.8 0.3
v -0.2 3.8 -0.2
v -0.2 3.8 -0.3
v -0.0999999 0 0.5
v -0.0999999 0 0.4
v -0.0999999 0 -0.3
v -0.0999999 0 -0.4
v -0.0999999 3.8 0.5
v -0.0999999 3.8 0.4
v -0.0999999 3.8 -0.3
v -0.0999999 3.8 -0.4
v 1.19209e-007 0 0.6
v 1.19209e-007 0 0.5
v 1.19209e-007 0 -0.4
v 1.19209e-007 0 -0.5
v 1.19209e-007 3.8 0.6
v 1.19209e-007 3.8 0.5
v 1.19209e-007 3.8 -0.4
v 1.19209e-007 3.8 -0.5
v 0.4 1.7 0.2
v 0.4 1.7 0.1
v 0.4 1.8 0.2
v 0.4 1.8 0.1
v 0.1 0 0.6
v 0.1 0 0.5
v 0.1 0 -0.4
v 0.1 0 -0.5
v 0.1 1.3 0.5
v 0.1 1.3 0.4
v 0.1 1.4 0.5
v 0.1 1.4 0.4
v 0.1 1.5 0.5
v 0.1 1.5 0.4
v 0.1 1.6 0.5
v 0.1 1.6 0.4
v 0.1 1.8 0.5
v 0.1 1.8 0.4
v 0.1 1.9 0.4
v 0.1 1.9 0.3
v 0.1 2.1 0.5
v 0.1 2.1 0.4
v 0.1 2.1 0.3
v 0.1 2.1 0.2
v 0.1 2.2 0.3
v 0.1 2.2 0.2
v 0.1 3.8 0.6
v 0.1 3.8 0.5
v 0.1 3.8 -0.4
v 0.1 3.8 -0.5
v 0.2 0 0.5
v 0.2 0 0.4
v 0.2 0 -0.3
v 0.2 0 -0.4
v 0.2 1.3 0.5
v 0.2 1.3 0.4
v 0.2 1.4 0.5
v 0.2 1.4 0.4
v 0.2 1.4 0.3
v 0.2 1.5 0.5
v 0.2 1.5 0.4
v 0.2 1.6 0.5
v 0.2 1.6 0.4
v 0.2 1.6 0.3
v 0.2 1.7 0.4
v 0.2 1.7 0.3
v 0.2 1.8 0.5
v 0.2 1.8 0.4
v 0.2 1.8 0.3
v 0.2 1.8 0.2
v 0.2 1.9 0.4
v 0.2 1.9 0.3
v 0.2 2 0.2
v 0.2 2 0.1
v 0.2 2.1 0.5
v 0.2 2.1 0.4
v 0.2 2.1 0.3
v 0.2 2.1 0.2
v 0.2 2.2 0.3
v 0.2 2.2 0.2
v 0.2 2.2 0.1
v 0.2 2.3 0.3
v 0.2 2.3 0.2
v 0.2 2.4 0.4
v 0.2 2.4 0.3
v 0.2 3.8 0.5
v 0.2 3.8 0.4
v 0.2 3.8 -0.3
v 0.2 3.8 -0.4
v 0.3 0 0.4
v 0.3 0 0.3
v 0.3 0 -0.2
v 0.3 0 -0.3
v 0.3 1.4 0.4
v 0.3 1.4 0.3
v 0.3 1.6 0.4
v 0.3 1.6 0.3
v 0.3 1.6 0.2
v 0.3 1.7 0.4
v 0.3 1.7 0.3
v 0.3 1.7 0.2
v 0.3 1.7 0.1
v 0.3 1.8 0.3
v 0.3 1.8 0.2
v 0.3 2 0.2
v 0.3 2 0.1
v 0.3 2.4 0.4
v 0.3 2.4 0.3
v 0.3 3.8 0.4
v 0.3 3.8 0.3
v 0.3 3.8 -0.2
v 0.3 3.8 -0.3
v 0.4 0 0.3
v 0.4 0 0.2
v 0.4 0 -0.1
v 0.4 0 -0.2
v 0.4 1.5 0.2
v 0.4 1.5 0.1
v 0.4 1.6 0.3
v 0.4 1.6 0.2
v 0.4 1.7 0.2
v 0.4 1.7 0.1
v 0.4 1.9 0.1
v 0.4 1.9 5.96046e-008
v 0.4 2.1 0.1
v 0.4 2.1 5.96046e-008
v 0.4 2.3 0.3
v 0.4 2.3 0.2
v 0.4 3.8 0.3
v 0.4 3.8 0.2
v 0.4 3.8 -0.1
v 0.4 3.8 -0.2
v 0.5 0 0.2
v 0.5 0 0.1
v 0.5 0 5.96046e-008
v 0.5 0 -0.1
v 0.5 1.5 0.2
v 0.5 1.5 0.1
v 0.5 1.7 0.2
v 0.5 1.7 0.1
v 0.5 1.7 5.96046e-008
v 0.5 1.8 0.2
v 0.5 1.8 0.1
v 0.5 1.9 0.1
v 0.5 1.9 5.96046e-008
v 0.5 2.1 0.1
v 0.5 2.1 5.96046e-008
v 0.5 2.2 0.2
v 0.5 2.2 0.1
v 0.5 2.2 5.96046e-008
v 0.5 3.8 0.2
v 0.5 3.8 0.1
v 0.5 3.8 5.96046e-008
v 0.5 3.8 -0.1
v 0.6 0 0.1
v 0.6 0 5.96046e-008
v 0.6 1.7 0.1
v 0.6 1.7 5.96046e-008
v 0.6 2.2 0.1
v 0.6 2.2 5.96046e-008
v 0.6 3.8 0.1
v 0.6 3.8 5.96046e-008
v 1.19209e-007 0 0.6
v 1.19209e-007 3.8 0.6
v 0.1 0 0.6
v 0.1 3.8 0.6
v -0.0999999 0 0.5
v -0.0999999 3.8 0.5
v 1.19209e-007 0 0.5
v 1.19209e-007 3.8 0.5
v 0.1 0 0.5
v 0.1 1.3 0.5
v 0.1 1.4 0.5
v 0.1 1.5 0.5
v 0.1 1.6 0.5
v 0.1 1.8 0.5
v 0.1 2.1 0.5
v 0.1 3.8 0.5
v 0.2 0 0.5
v 0.2 1.3 0.5
v 0.2 1.4 0.5
v 0.2 1.5 0.5
v 0.2 1.6 0.5
v 0.2 1.8 0.5
v 0.2 2.1 0.5
v 0.2 3.8 0.5
v -0.2 0 0.4
v -0.2 3.8 0.4
v -0.0999999 0 0.4
v -0.0999999 3.8 0.4
v 0.1 1.3 0.4
v 0.1 1.4 0.4
v 0.1 1.5 0.4
v 0.1 1.6 0.4
v 0.1 1.8 0.4
v 0.1 1.9 0.4
v 0.2 0 0.4
v 0.2 1.3 0.4
v 0.2 1.4 0.4
v 0.2 1.5 0.4
v 0.2 1.6 0.4
v 0.2 1.7 0.4
v 0.2 1.8 0.4
v 0.2 1.9 0.4
v 0.2 2.4 0.4
v 0.2 3.8 0.4
v 0.3 0 0.4
v 0.3 1.4 0.4
v 0.3 1.6 0.4
v 0.3 1.7 0.4
v 0.3 2.4 0.4
v 0.3 3.8 0.4
v -0.3 0 0.3
v -0.3 3.8 0.3
v -0.2 0 0.3
v -0.2 3.8 0.3
v 0.1 1.9 0.3
v 0.1 2.1 0.3
v 0.2 1.4 0.3
v 0.2 1.6 0.3
v 0.2 1.7 0.3
v 0.2 1.8 0.3
v 0.2 1.9 0.3
v 0.2 2.1 0.3
v 0.2 2.3 0.3
v 0.2 2.4 0.3
v 0.3 0 0.3
v 0.3 1.4 0.3
v 0.3 1.6 0.3
v 0.3 1.7 0.3
v 0.3 1.8 0.3
v 0.3 2.3 0.3
v 0.3 2.4 0.3
v 0.3 3.8 0.3
v 0.4 0 0.3
v 0.4 1.6 0.3
v 0.4 2.3 0.3
v 0.4 3.8 0.3
v -0.4 0 0.2
v -0.4 3.8 0.2
v -0.3 0 0.2
v -0.3 3.8 0.2
v 0.1 2.1 0.2
v 0.1 2.2 0.2
v 0.2 1.8 0.2
v 0.2 2 0.2
v 0.2 2.1 0.2
v 0.2 2.2 0.2
v 0.2 2.3 0.2
v 0.3 1.6 0.2
v 0.3 1.7 0.2
v 0.3 1.8 0.2
v 0.3 2 0.2
v 0.3 2.3 0.2
v 0.4 0 0.2
v 0.4 1.5 0.2
v 0.4 1.6 0.2
v 0.4 1.7 0.2
v 0.4 1.8 0.2
v 0.4 2.2 0.2
v 0.4 2.3 0.2
v 0.4 3.8 0.2
v 0.5 0 0.2
v 0.5 1.5 0.2
v 0.5 1.7 0.2
v 0.5 1.8 0.2
v 0.5 2.2 0.2
v 0.5 3.8 0.2
v -0.5 0 0.1
v -0.5 3.8 0.1
v -0.4 0 0.1
v -0.4 3.8 0.1
v 0.2 2 0.1
v 0.2 2.2 0.1
v 0.3 1.7 0.1
v 0.3 2 0.1
v 0.4 1.5 0.1
v 0.4 1.7 0.1
v 0.4 1.8 0.1
v 0.4 1.9 0.1
v 0.4 2.1 0.1
v 0.4 2.2 0.1
v 0.5 0 0.1
v 0.5 1.5 0.1
v 0.5 1.7 0.1
v 0.5 1.8 0.1
v 0.5 1.9 0.1
v 0.5 2.1 0.1
v 0.5 2.2 0.1
v 0.5 3.8 0.1
v 0.6 0 0.1
v 0.6 1.7 0.1
v 0.6 2.2 0.1
v 0.6 3.8 0.1
v 0.4 1.9 5.96046e-008
v 0.4 2.1 5.96046e-008
v 0.5 1.9 5.96046e-008
v 0.5 2.1 5.96046e-008
v 0.1 2.1 0.3
v 0.1 2.2 0.3
v 0.2 2.1 0.3
v 0.2 2.2 0.3
v -0.5 0 5.96046e-008
v -0.5 3.8 5.96046e-008
v -0.4 0 5.96046e-008
v -0.4 3.8 5.96046e-008
v 0.5 0 5.96046e-008
v 0.5 1.7 5.96046e-008
v 0.5 2.2 5.96046e-008
v 0.5 3.8 5.96046e-008
v 0.6 0 5.96046e-008
v 0.6 1.7 5.96046e-008
v 0.6 2.2 5.96046e-008
v 0.6 3.8 5.96046e-008
v -0.4 0 -0.1
v -0.4 3.8 -0.1
v -0.3 0 -0.1
v -0.3 3.8 -0.1
v 0.4 0 -0.1
v 0.4 3.8 -0.1
v 0.5 0 -0.1
v 0.5 3.8 -0.1
v -0.3 0 -0.2
v -0.3 3.8 -0.2
v -0.2 0 -0.2
v -0.2 3.8 -0.2
v 0.3 0 -0.2
v 0.3 3.8 -0.2
v 0.4 0 -0.2
v 0.4 3.8 -0.2
v -0.2 0 -0.3
v -0.2 3.8 -0.3
v -0.0999999 0 -0.3
v -0.0999999 3.8 -0.3
v 0.2 0 -0.3
v 0.2 3.8 -0.3
v 0.3 0 -0.3
v 0.3 3.8 -0.3
v -0.0999999 0 -0.4
v -0.0999999 3.8 -0.4
v 1.19209e-007 0 -0.4
v 1.19209e-007 3.8 -0.4
v 0.1 0 -0.4
v 0.1 3.8 -0.4
v 0.2 0 -0.4
v 0.2 3.8 -0.4
v 1.19209e-007 0 -0.5
v 1.19209e-007 3.8 -0.5
v 0.1 0 -0.5
v 0.1 3.8 -0.5
v 1.19209e-007 0 0.6
v 0.1 0 0.6
v -0.0999999 0 0.5
v 1.19209e-007 0 0.5
v 0.1 0 0.5
v 0.2 0 0.5
v -0.2 0 0.4
v -0.0999999 0 0.4
v 1.19209e-007 0 0.4
v 0.1 0 0.4
v 0.2 0 0.4
v 0.3 0 0.4
v -0.3 0 0.3
v -0.2 0 0.3
v -0.0999999 0 0.3
v 0.2 0 0.3
v 0.3 0 0.3
v 0.4 0 0.3
v -0.4 0 0.2
v -0.3 0 0.2
v -0.2 0 0.2
v 0.3 0 0.2
v 0.4 0 0.2
v 0.5 0 0.2
v -0.5 0 0.1
v -0.4 0 0.1
v -0.3 0 0.1
v 1.19209e-007 0 0.1
v 0.1 0 0.1
v 0.4 0 0.1
v 0.5 0 0.1
v 0.6 0 0.1
v -0.5 0 5.96046e-008
v -0.4 0 5.96046e-008
v -0.3 0 5.96046e-008
v 1.19209e-007 0 5.96046e-008
v 0.1 0 5.96046e-008
v 0.4 0 5.96046e-008
v 0.5 0 5.96046e-008
v 0.6 0 5.96046e-008
v -0.4 0 -0.1
v -0.3 0 -0.1
v -0.2 0 -0.1
v 0.3 0 -0.1
v 0.4 0 -0.1
v 0.5 0 -0.1
v -0.3 0 -0.2
v -0.2 0 -0.2
v -0.0999999 0 -0.2
v 0.2 0 -0.2
v 0.3 0 -0.2
v 0.4 0 -0.2
v -0.2 0 -0.3
v -0.0999999 0 -0.3
v 1.19209e-007 0 -0.3
v 0.1 0 -0.3
v 0.2 0 -0.3
v 0.3 0 -0.3
v -0.0999999 0 -0.4
v 1.19209e-007 0 -0.4
v 0.1 0 -0.4
v 0.2 0 -0.4
v 1.19209e-007 0 -0.5
v 0.1 0 -0.5
v 0.1 1.4 0.5
v 0.2 1.4 0.5
v 0.1 1.4 0.4
v 0.2 1.4 0.4
v 0.1 1.6 0.5
v 0.2 1.6 0.5
v 0.1 1.6 0.4
v 0.2 1.6 0.4
v 0.3 1.6 0.4
v 0.2 1.6 0.3
v 0.3 1.6 0.3
v 0.4 1.7 0.2
v 0.5 1.7 0.2
v 0.4 1.7 0.1
v 0.5 1.7 0.1
v 0.1 2.1 0.5
v 0.2 2.1 0.5
v 0.1 2.1 0.4
v 0.2 2.1 0.4
v 0.1 2.1 0.3
v 0.2 2.1 0.3
v 0.4 2.1 0.1
v 0.5 2.1 0.1
v 0.4 2.1 5.96046e-008
v 0.5 2.1 5.96046e-008
v 0.1 2.2 0.3
v 0.2 2.2 0.3
v 0.1 2.2 0.2
v 0.2 2.2 0.2
v 0.4 2.2 0.2
v 0.5 2.2 0.2
v 0.2 2.2 0.1
v 0.4 2.2 0.1
v 0.5 2.2 0.1
v 0.6 2.2 0.1
v 0.5 2.2 5.96046e-008
v 0.6 2.2 5.96046e-008
v 0.2 2.3 0.3
v 0.3 2.3 0.3
v 0.4 2.3 0.3
v 0.2 2.3 0.2
v 0.3 2.3 0.2
v 0.4 2.3 0.2
v 0.2 2.4 0.4
v 0.3 2.4 0.4
v 0.2 2.4 0.3
v 0.3 2.4 0.3
v 0.1 1.3 0.5
v 0.2 1.3 0.5
v 0.1 1.3 0.4
v 0.2 1.3 0.4
v 0.2 1.4 0.4
v 0.3 1.4 0.4
v 0.2 1.4 0.3
v 0.3 1.4 0.3
v 0.1 1.5 0.5
v 0.2 1.5 0.5
v 0.1 1.5 0.4
v 0.2 1.5 0.4
v 0.4 1.5 0.2
v 0.5 1.5 0.2
v 0.4 1.5 0.1
v 0.5 1.5 0.1
v 0.3 1.6 0.3
v 0.4 1.6 0.3
v 0.3 1.6 0.2
v 0.4 1.6 0.2
v 0.2 1.7 0.4
v 0.3 1.7 0.4
v 0.2 1.7 0.3
v 0.3 1.7 0.3
v 0.3 1.7 0.2
v 0.4 1.7 0.2
v 0.3 1.7 0.1
v 0.4 1.7 0.1
v 0.5 1.7 0.1
v 0.6 1.7 0.1
v 0.5 1.7 5.96046e-008
v 0.6 1.7 5.96046e-008
v 0.1 1.8 0.5
v 0.2 1.8 0.5
v 0.1 1.8 0.4
v 0.2 1.8 0.4
v 0.2 1.8 0.3
v 0.3 1.8 0.3
v 0.2 1.8 0.2
v 0.3 1.8 0.2
v 0.4 1.8 0.2
v 0.5 1.8 0.2
v 0.4 1.8 0.1
v 0.5 1.8 0.1
v 0.1 1.9 0.4
v 0.2 1.9 0.4
v 0.1 1.9 0.3
v 0.2 1.9 0.3
v 0.4 1.9 0.1
v 0.5 1.9 0.1
v 0.4 1.9 5.96046e-008
v 0.5 1.9 5.96046e-008
v 0.2 2 0.2
v 0.3 2 0.2
v 0.2 2 0.1
v 0.3 2 0.1
v 0.1 2.1 0.3
v 0.2 2.1 0.3
v 0.1 2.1 0.2
v 0.2 2.1 0.2
v 1.19209e-007 3.8 0.6
v 0.1 3.8 0.6
v -0.0999999 3.8 0.5
v 1.19209e-007 3.8 0.5
v 0.1 3.8 0.5
v 0.2 3.8 0.5
v -0.2 3.8 0.4
v -0.0999999 3.8 0.4
v 1.19209e-007 3.8 0.4
v 0.1 3.8 0.4
v 0.2 3.8 0.4
v 0.3 3.8 0.4
v -0.3 3.8 0.3
v -0.2 3.8 0.3
v -0.0999999 3.8 0.3
v 0.2 3.8 0.3
v 0.3 3.8 0.3
v 0.4 3.8 0.3
v -0.4 3.8 0.2
v -0.3 3.8 0.2
v -0.2 3.8 0.2
v 0.3 3.8 0.2
v 0.4 3.8 0.2
v 0.5 3.8 0.2
v -0.5 3.8 0.1
v -0.4 3.8 0.1
v -0.3 3.8 0.1
v 1.19209e-007 3.8 0.1
v 0.1 3.8 0.1
v 0.4 3.8 0.1
v 0.5 3.8 0.1
v 0.6 3.8 0.1
v -0.5 3.8 5.96046e-008
v -0.4 3.8 5.96046e-008
v -0.3 3.8 5.96046e-008
v 1.19209e-007 3.8 5.96046e-008
v 0.1 3.8 5.96046e-008
v 0.4 3.8 5.96046e-008
v 0.5 3.8 5.96046e-008
v 0.6 3.8 5.96046e-008
v -0.4 3.8 -0.1
v -0.3 3.8 -0.1
v -0.2 3.8 -0.1
v 0.3 3.8 -0.1
v 0.4 3.8 -0.1
v 0.5 3.8 -0.1
v -0.3 3.8 -0.2
v -0.2 3.8 -0.2
v -0.0999999 3.8 -0.2
v 0.2 3.8 -0.2
v 0.3 3.8 -0.2
v 0.4 3.8 -0.2
v -0.2 3.8 -0.3
v -0.0999999 3.8 -0.3
v 1.19209e-007 3.8 -0.3
v 0.1 3.8 -0.3
v 0.2 3.8 -0.3
v 0.3 3.8 -0.3
v -0.0999999 3.8 -0.4
v 1.19209e-007 3.8 -0.4
v 0.1 3.8 -0.4
v 0.2 3.8 -0.4
v 1.19209e-007 3.8 -0.5
v 0.1 3.8 -0.5

# faces
f 3/3/1 2/3/1 1/3/1
f 4/3/1 2/3/1 3/3/1
f 9/3/1 6/3/1 5/3/1
f 10/3/1 6/3/1 9/3/1
f 11/3/1 8/3/1 7/3/1
f 12/3/1 8/3/1 11/3/1
f 17/3/1 14/3/1 13/3/1
f 18/3/1 14/3/1 17/3/1
f 19/3/1 16/3/1 15/3/1
f 20/3/1 16/3/1 19/3/1
f 25/3/1 22/3/1 21/3/1
f 26/3/1 22/3/1 25/3/1
f 27/3/1 24/3/1 23/3/1
f 28/3/1 24/3/1 27/3/1
f 33/3/1 30/3/1 29/3/1
f 34/3/1 30/3/1 33/3/1
f 35/3/1 32/3/1 31/3/1
f 36/3/1 32/3/1 35/3/1
f 41/3/1 38/3/1 37/3/1
f 42/3/1 38/3/1 41/3/1
f 43/3/1 40/3/1 39/3/1
f 44/3/1 40/3/1 43/3/1
f 47/3/1 46/3/1 45/3/1
f 48/3/1 46/3/1 47/3/1
f 49/3/2 50/3/2 53/3/2
f 49/3/2 53/3/2 55/3/2
f 53/2/2 54/2/2 55/2/2
f 55/2/2 54/2/2 56/2/2
f 49/3/2 55/3/2 57/3/2
f 49/3/2 57/3/2 59/3/2
f 57/2/2 58/2/2 59/2/2
f 59/2/2 58/2/2 60/2/2
f 49/3/2 59/3/2 61/3/2
f 61/2/2 62/2/2 63/2/2
f 61/2/2 63/2/2 65/2/2
f 63/2/2 64/2/2 65/2/2
f 49/3/2 61/3/2 65/3/2
f 65/2/2 64/2/2 66/2/2
f 66/2/2 64/2/2 67/2/2
f 67/2/2 68/2/2 69/2/2
f 69/2/2 68/2/2 70/2/2
f 49/3/2 65/3/2 71/3/2
f 71/3/2 65/3/2 72/3/2
f 51/3/2 52/3/2 73/3/2
f 73/3/2 52/3/2 74/3/2
f 75/3/2 76/3/2 79/3/2
f 79/3/2 76/3/2 80/3/2
f 81/3/2 82/3/2 84/3/2
f 82/2/2 83/2/2 85/2/2
f 84/3/2 82/3/2 85/3/2
f 85/2/2 83/2/2 87/2/2
f 87/2/2 83/2/2 88/2/2
f 86/3/2 87/3/2 89/3/2
f 86/3/2 89/3/2 91/3/2
f 89/2/2 90/2/2 92/2/2
f 91/3/2 89/3/2 92/3/2
f 92/2/2 90/2/2 93/2/2
f 92/2/2 93/2/2 95/2/2
f 93/2/2 94/2/2 95/2/2
f 95/2/2 94/2/2 96/2/2
f 96/2/2 94/2/2 97/2/2
f 96/2/2 97/2/2 101/2/2
f 97/2/2 98/2/2 101/2/2
f 101/2/2 98/2/2 102/2/2
f 100/2/2 101/2/2 103/2/2
f 102/2/2 98/2/2 104/2/2
f 104/2/2 98/2/2 105/2/2
f 100/2/2 103/2/2 106/2/2
f 103/2/2 104/2/2 106/2/2
f 106/2/2 104/2/2 107/2/2
f 99/3/2 100/3/2 108/3/2
f 100/2/2 106/2/2 108/2/2
f 108/2/2 106/2/2 109/2/2
f 99/3/2 108/3/2 110/3/2
f 110/3/2 108/3/2 111/3/2
f 77/3/2 78/3/2 112/3/2
f 112/3/2 78/3/2 113/3/2
f 114/3/2 115/3/2 118/3/2
f 118/3/2 115/3/2 119/3/2
f 120/3/2 121/3/2 123/3/2
f 121/2/2 122/2/2 124/2/2
f 123/3/2 121/3/2 124/3/2
f 124/2/2 122/2/2 125/2/2
f 125/2/2 126/2/2 127/2/2
f 124/2/2 125/2/2 127/2/2
f 127/2/2 126/2/2 128/2/2
f 128/2/2 126/2/2 129/2/2
f 129/2/2 126/2/2 130/2/2
f 131/3/2 132/3/2 133/3/2
f 133/3/2 132/3/2 134/3/2
f 116/3/2 117/3/2 135/3/2
f 135/3/2 117/3/2 136/3/2
f 137/3/2 138/3/2 141/3/2
f 137/3/2 141/3/2 143/3/2
f 141/2/2 142/2/2 144/2/2
f 143/3/2 141/3/2 144/3/2
f 144/2/2 142/2/2 145/2/2
f 145/2/2 142/2/2 146/2/2
f 147/2/2 148/2/2 149/2/2
f 149/2/2 148/2/2 150/2/2
f 151/3/2 152/3/2 153/3/2
f 153/3/2 152/3/2 154/3/2
f 139/3/2 140/3/2 155/3/2
f 155/3/2 140/3/2 156/3/2
f 157/3/2 158/3/2 161/3/2
f 161/3/2 158/3/2 162/3/2
f 159/3/2 160/3/2 165/3/2
f 163/3/2 164/3/2 166/3/2
f 164/2/2 165/2/2 167/2/2
f 166/3/2 164/3/2 167/3/2
f 167/2/2 165/2/2 168/2/2
f 165/3/2 160/3/2 169/3/2
f 168/2/2 165/2/2 169/2/2
f 169/3/2 160/3/2 171/3/2
f 170/2/2 171/2/2 173/2/2
f 171/3/2 160/3/2 174/3/2
f 173/2/2 171/2/2 174/2/2
f 172/3/2 173/3/2 175/3/2
f 175/3/2 173/3/2 176/3/2
f 174/3/2 160/3/2 177/3/2
f 177/3/2 160/3/2 178/3/2
f 179/3/2 180/3/2 181/3/2
f 181/3/2 180/3/2 182/3/2
f 183/3/2 184/3/2 185/3/2
f 185/3/2 184/3/2 186/3/2
f 189/3/3 188/3/3 187/3/3
f 190/3/3 188/3/3 189/3/3
f 193/3/3 192/3/3 191/3/3
f 194/3/3 192/3/3 193/3/3
f 203/3/3 196/3/3 195/3/3
f 204/3/3 196/3/3 203/3/3
f 205/3/3 198/3/3 197/3/3
f 206/3/3 198/3/3 205/3/3
f 207/3/3 200/3/3 199/3/3
f 208/3/3 200/3/3 207/3/3
f 209/3/3 202/3/3 201/3/3
f 210/3/3 202/3/3 209/3/3
f 213/3/3 212/3/3 211/3/3
f 214/3/3 212/3/3 213/3/3
f 222/2/3 216/2/3 215/2/3
f 223/2/3 216/2/3 222/2/3
f 224/2/3 218/2/3 217/2/3
f 225/2/3 218/2/3 224/2/3
f 227/2/3 220/2/3 219/2/3
f 228/2/3 220/2/3 227/2/3
f 231/3/3 223/3/3 222/3/3
f 231/3/3 222/3/3 221/3/3
f 232/3/3 223/3/3 231/3/3
f 233/3/3 226/3/3 225/3/3
f 234/3/3 226/3/3 233/3/3
f 235/3/3 230/3/3 229/3/3
f 236/3/3 230/3/3 235/3/3
f 239/3/3 238/3/3 237/3/3
f 240/3/3 238/3/3 239/3/3
f 247/2/3 242/2/3 241/2/3
f 248/2/3 242/2/3 247/2/3
f 252/2/3 244/2/3 243/2/3
f 253/2/3 244/2/3 252/2/3
f 254/2/3 246/2/3 245/2/3
f 255/2/3 246/2/3 254/2/3
f 256/2/3 250/2/3 249/2/3
f 257/2/3 250/2/3 256/2/3
f 259/3/3 253/3/3 252/3/3
f 259/3/3 252/3/3 251/3/3
f 260/3/3 253/3/3 259/3/3
f 261/3/3 258/3/3 257/3/3
f 261/3/3 257/3/3 256/3/3
f 262/3/3 258/3/3 261/3/3
f 265/3/3 264/3/3 263/3/3
f 266/3/3 264/3/3 265/3/3
f 271/2/3 268/2/3 267/2/3
f 272/2/3 268/2/3 271/2/3
f 276/2/3 270/2/3 269/2/3
f 277/2/3 270/2/3 276/2/3
f 278/2/3 273/2/3 272/2/3
f 281/2/3 275/2/3 274/2/3
f 282/2/3 275/2/3 281/2/3
f 284/2/3 278/2/3 272/2/3
f 285/2/3 278/2/3 284/2/3
f 287/3/3 280/3/3 279/3/3
f 288/3/3 280/3/3 287/3/3
f 289/3/3 283/3/3 282/3/3
f 290/3/3 283/3/3 289/3/3
f 291/3/3 286/3/3 285/3/3
f 291/3/3 285/3/3 284/3/3
f 292/3/3 286/3/3 291/3/3
f 295/3/3 294/3/3 293/3/3
f 296/3/3 294/3/3 295/3/3
f 300/2/3 298/2/3 297/2/3
f 302/2/3 300/2/3 299/2/3
f 303/2/3 300/2/3 302/2/3
f 304/2/3 300/2/3 303/2/3
f 305/2/3 298/2/3 300/2/3
f 305/2/3 300/2/3 304/2/3
f 306/2/3 298/2/3 305/2/3
f 308/2/3 302/2/3 301/2/3
f 309/2/3 302/2/3 308/2/3
f 310/2/3 304/2/3 303/2/3
f 311/2/3 304/2/3 310/2/3
f 312/2/3 306/2/3 305/2/3
f 313/2/3 306/2/3 312/2/3
f 315/3/3 309/3/3 308/3/3
f 315/3/3 308/3/3 307/3/3
f 316/3/3 309/3/3 315/3/3
f 317/3/3 314/3/3 313/3/3
f 318/3/3 314/3/3 317/3/3
f 321/3/3 320/3/3 319/3/3
f 322/3/3 320/3/3 321/3/3
f 323/2/4 324/2/4 325/2/4
f 325/2/4 324/2/4 326/2/4
f 327/3/4 328/3/4 329/3/4
f 329/3/4 328/3/4 330/3/4
f 331/3/4 332/3/4 335/3/4
f 335/3/4 332/3/4 336/3/4
f 333/3/4 334/3/4 337/3/4
f 337/3/4 334/3/4 338/3/4
f 339/3/4 340/3/4 341/3/4
f 341/3/4 340/3/4 342/3/4
f 343/3/4 344/3/4 345/3/4
f 345/3/4 344/3/4 346/3/4
f 347/3/4 348/3/4 349/3/4
f 349/3/4 348/3/4 350/3/4
f 351/3/4 352/3/4 353/3/4
f 353/3/4 352/3/4 354/3/4
f 355/3/4 356/3/4 357/3/4
f 357/3/4 356/3/4 358/3/4
f 359/3/4 360/3/4 361/3/4
f 361/3/4 360/3/4 362/3/4
f 363/3/4 364/3/4 365/3/4
f 365/3/4 364/3/4 366/3/4
f 367/3/4 368/3/4 369/3/4
f 369/3/4 368/3/4 370/3/4
f 371/3/4 372/3/4 373/3/4
f 373/3/4 372/3/4 374/3/4
f 378/3/5 376/3/5 375/3/5
f 379/3/5 376/3/5 378/3/5
f 382/3/5 378/3/5 377/3/5
f 383/2/5 379/2/5 378/2/5
f 383/3/5 378/3/5 382/3/5
f 384/3/5 380/3/5 379/3/5
f 384/2/5 379/2/5 383/2/5
f 385/3/5 380/3/5 384/3/5
f 388/3/5 382/3/5 381/3/5
f 389/2/5 383/2/5 382/2/5
f 389/2/5 384/2/5 383/2/5
f 389/3/5 382/3/5 388/3/5
f 389/2/5 385/2/5 384/2/5
f 390/3/5 386/3/5 385/3/5
f 390/2/5 385/2/5 389/2/5
f 391/3/5 386/3/5 390/3/5
f 394/3/5 388/3/5 387/3/5
f 395/2/5 389/2/5 388/2/5
f 395/2/5 390/2/5 389/2/5
f 395/3/5 388/3/5 394/3/5
f 395/2/5 391/2/5 390/2/5
f 396/3/5 392/3/5 391/3/5
f 396/2/5 391/2/5 395/2/5
f 397/3/5 392/3/5 396/3/5
f 400/3/5 394/3/5 393/3/5
f 401/2/5 395/2/5 394/2/5
f 401/2/5 396/2/5 395/2/5
f 401/3/5 394/3/5 400/3/5
f 401/2/5 397/2/5 396/2/5
f 402/2/5 397/2/5 401/2/5
f 403/2/5 397/2/5 402/2/5
f 404/3/5 398/3/5 397/3/5
f 404/2/5 397/2/5 403/2/5
f 405/3/5 398/3/5 404/3/5
f 407/3/5 400/3/5 399/3/5
f 408/2/5 401/2/5 400/2/5
f 408/3/5 400/3/5 407/3/5
f 408/2/5 402/2/5 401/2/5
f 409/2/5 402/2/5 408/2/5
f 410/1/5 403/1/5 402/1/5
f 410/2/5 402/2/5 409/2/5
f 411/2/5 405/2/5 404/2/5
f 411/1/5 403/1/5 410/1/5
f 411/2/5 404/2/5 403/2/5
f 412/2/5 405/2/5 411/2/5
f 413/3/5 406/3/5 405/3/5
f 413/2/5 405/2/5 412/2/5
f 414/3/5 406/3/5 413/3/5
f 415/3/5 409/3/5 408/3/5
f 416/2/5 412/2/5 411/2/5
f 416/3/5 409/3/5 415/3/5
f 416/2/5 410/2/5 409/2/5
f 416/2/5 411/2/5 410/2/5
f 417/2/5 412/2/5 416/2/5
f 418/2/5 412/2/5 417/2/5
f 419/3/5 413/3/5 412/3/5
f 419/2/5 412/2/5 418/2/5
f 420/3/5 413/3/5 419/3/5
f 421/3/5 417/3/5 416/3/5
f 422/2/5 418/2/5 417/2/5
f 422/3/5 417/3/5 421/3/5
f 423/2/5 418/2/5 422/2/5
f 424/2/5 418/2/5 423/2/5
f 425/3/5 419/3/5 418/3/5
f 425/2/5 418/2/5 424/2/5
f 426/3/5 419/3/5 425/3/5
f 427/3/5 423/3/5 422/3/5
f 428/2/5 424/2/5 423/2/5
f 428/3/5 423/3/5 427/3/5
f 429/2/5 424/2/5 428/2/5
f 430/2/5 424/2/5 429/2/5
f 431/3/5 425/3/5 424/3/5
f 431/2/5 424/2/5 430/2/5
f 432/3/5 425/3/5 431/3/5
f 433/3/5 429/3/5 428/3/5
f 434/2/5 430/2/5 429/2/5
f 434/3/5 429/3/5 433/3/5
f 435/3/5 431/3/5 430/3/5
f 435/2/5 430/2/5 434/2/5
f 436/3/5 431/3/5 435/3/5
f 437/3/5 435/3/5 434/3/5
f 438/3/5 435/3/5 437/3/5
f 441/3/5 440/3/5 439/3/5
f 442/3/5 440/3/5 441/3/5
f 445/3/5 444/3/5 443/3/5
f 446/3/5 444/3/5 445/3/5
f 448/3/5 447/3/5 446/3/5
f 449/3/5 447/3/5 448/3/5
f 452/3/5 451/3/5 450/3/5
f 453/3/5 451/3/5 452/3/5
f 456/3/5 455/3/5 454/3/5
f 457/3/5 455/3/5 456/3/5
f 458/2/5 457/2/5 456/2/5
f 459/2/5 457/2/5 458/2/5
f 462/2/5 461/2/5 460/2/5
f 463/2/5 461/2/5 462/2/5
f 466/2/5 465/2/5 464/2/5
f 467/2/5 465/2/5 466/2/5
f 470/2/5 468/2/5 467/2/5
f 471/3/5 469/3/5 468/3/5
f 471/2/5 468/2/5 470/2/5
f 472/3/5 469/3/5 471/3/5
f 474/3/5 473/3/5 472/3/5
f 475/3/5 473/3/5 474/3/5
f 479/2/5 477/2/5 476/2/5
f 480/3/5 478/3/5 477/3/5
f 480/2/5 477/2/5 479/2/5
f 481/3/5 478/3/5 480/3/5
f 484/3/5 483/3/5 482/3/5
f 485/3/5 483/3/5 484/3/5
f 486/3/6 487/3/6 488/3/6
f 488/3/6 487/3/6 489/3/6
f 490/3/6 491/3/6 492/3/6
f 492/3/6 491/3/6 493/3/6
f 494/3/6 495/3/6 496/3/6
f 496/3/6 495/3/6 497/3/6
f 498/3/6 499/3/6 500/3/6
f 500/3/6 499/3/6 501/3/6
f 502/3/6 503/3/6 504/3/6
f 504/3/6 503/3/6 505/3/6
f 506/3/6 507/3/6 508/3/6
f 508/3/6 507/3/6 509/3/6
f 510/2/6 511/2/6 512/2/6
f 512/2/6 511/2/6 513/2/6
f 514/3/6 515/3/6 516/3/6
f 516/3/6 515/3/6 517/3/6
f 518/3/6 519/3/6 520/3/6
f 520/3/6 519/3/6 521/3/6
f 522/2/6 523/2/6 524/2/6
f 524/2/6 523/2/6 525/2/6
f 526/3/6 527/3/6 528/3/6
f 528/3/6 527/3/6 529/3/6
f 530/2/6 531/2/6 532/2/6
f 532/2/6 531/2/6 533/2/6
f 534/2/6 535/2/6 536/2/6
f 536/2/6 535/2/6 537/2/6
f 538/2/6 539/2/6 540/2/6
f 540/2/6 539/2/6 541/2/6
f 542/2/6 543/2/6 544/2/6
f 544/2/6 543/2/6 545/2/6
f 546/3/6 547/3/6 549/3/6
f 549/3/6 547/3/6 550/3/6
f 548/3/6 549/3/6 553/3/6
f 549/2/6 550/2/6 554/2/6
f 553/3/6 549/3/6 554/3/6
f 550/3/6 551/3/6 555/3/6
f 554/2/6 550/2/6 555/2/6
f 555/3/6 551/3/6 556/3/6
f 552/3/6 553/3/6 559/3/6
f 553/2/6 554/2/6 560/2/6
f 554/2/6 555/2/6 560/2/6
f 559/3/6 553/3/6 560/3/6
f 555/2/6 556/2/6 560/2/6
f 556/3/6 557/3/6 561/3/6
f 560/2/6 556/2/6 561/2/6
f 561/3/6 557/3/6 562/3/6
f 558/3/6 559/3/6 565/3/6
f 559/2/6 560/2/6 566/2/6
f 560/2/6 561/2/6 566/2/6
f 565/3/6 559/3/6 566/3/6
f 561/2/6 562/2/6 566/2/6
f 562/3/6 563/3/6 567/3/6
f 566/2/6 562/2/6 567/2/6
f 567/3/6 563/3/6 568/3/6
f 564/3/6 565/3/6 571/3/6
f 565/2/6 566/2/6 572/2/6
f 566/2/6 567/2/6 572/2/6
f 571/3/6 565/3/6 572/3/6
f 567/2/6 568/2/6 572/2/6
f 572/2/6 568/2/6 573/2/6
f 573/2/6 568/2/6 574/2/6
f 568/3/6 569/3/6 575/3/6
f 574/2/6 568/2/6 575/2/6
f 575/3/6 569/3/6 576/3/6
f 570/3/6 571/3/6 578/3/6
f 571/2/6 572/2/6 579/2/6
f 578/3/6 571/3/6 579/3/6
f 572/2/6 573/2/6 579/2/6
f 579/2/6 573/2/6 580/2/6
f 573/1/6 574/1/6 581/1/6
f 580/2/6 573/2/6 581/2/6
f 575/2/6 576/2/6 582/2/6
f 581/1/6 574/1/6 582/1/6
f 574/2/6 575/2/6 582/2/6
f 582/2/6 576/2/6 583/2/6
f 576/3/6 577/3/6 584/3/6
f 583/2/6 576/2/6 584/2/6
f 584/3/6 577/3/6 585/3/6
f 579/3/6 580/3/6 586/3/6
f 582/2/6 583/2/6 587/2/6
f 586/3/6 580/3/6 587/3/6
f 580/2/6 581/2/6 587/2/6
f 581/2/6 582/2/6 587/2/6
f 587/2/6 583/2/6 588/2/6
f 588/2/6 583/2/6 589/2/6
f 583/3/6 584/3/6 590/3/6
f 589/2/6 583/2/6 590/2/6
f 590/3/6 584/3/6 591/3/6
f 587/3/6 588/3/6 592/3/6
f 588/2/6 589/2/6 593/2/6
f 592/3/6 588/3/6 593/3/6
f 593/2/6 589/2/6 594/2/6
f 594/2/6 589/2/6 595/2/6
f 589/3/6 590/3/6 596/3/6
f 595/2/6 589/2/6 596/2/6
f 596/3/6 590/3/6 597/3/6
f 593/3/6 594/3/6 598/3/6
f 594/2/6 595/2/6 599/2/6
f 598/3/6 594/3/6 599/3/6
f 599/2/6 595/2/6 600/2/6
f 600/2/6 595/2/6 601/2/6
f 595/3/6 596/3/6 602/3/6
f 601/2/6 595/2/6 602/2/6
f 602/3/6 596/3/6 603/3/6
f 599/3/6 600/3/6 604/3/6
f 600/2/6 601/2/6 605/2/6
f 604/3/6 600/3/6 605/3/6
f 601/3/6 602/3/6 606/3/6
f 605/2/6 601/2/6 606/2/6
f 606/3/6 602/3/6 607/3/6
f 605/3/6 606/3/6 608/3/6
f 608/3/6 606/3/6 609/3/6
