# MagicaVoxel @ Ephtracy

# group
o 

# material
mtllib TreeLog.mtl
usemtl palette

# normals
vn -1 0 0
vn 1 0 0
vn 0 0 1
vn 0 0 -1
vn 0 -1 0
vn 0 1 0

# texcoords
vt 0.970703 0.5
vt 0.974609 0.5
vt 0.978516 0.5

# verts
v -0.5 0 0.1
v -0.5 0 5.96046e-008
v -0.5 3.8 0.1
v -0.5 3.8 5.96046e-008
v -0.4 0 0.2
v -0.4 0 0.1
v -0.4 0 5.96046e-008
v -0.4 0 -0.1
v -0.4 3.8 0.2
v -0.4 3.8 0.1
v -0.4 3.8 5.96046e-008
v -0.4 3.8 -0.1
v -0.3 0 0.3
v -0.3 0 0.2
v -0.3 0 -0.1
v -0.3 0 -0.2
v -0.3 3.8 0.3
v -0.3 3.8 0.2
v -0.3 3.8 -0.1
v -0.3 3.8 -0.2
v -0.2 0 0.4
v -0.2 0 0.3
v -0.2 0 -0.2
v -0.2 0 -0.3
v -0.2 3.8 0.4
v -0.2 3.8 0.3
v -0.2 3.8 -0.2
v -0.2 3.8 -0.3
v -0.0999999 0 0.5
v -0.0999999 0 0.4
v -0.0999999 0 -0.3
v -0.0999999 0 -0.4
v -0.0999999 3.8 0.5
v -0.0999999 3.8 0.4
v -0.0999999 3.8 -0.3
v -0.0999999 3.8 -0.4
v 1.19209e-007 0 0.6
v 1.19209e-007 0 0.5
v 1.19209e-007 0 -0.4
v 1.19209e-007 0 -0.5
v 1.19209e-007 3.8 0.6
v 1.19209e-007 3.8 0.5
v 1.19209e-007 3.8 -0.4
v 1.19209e-007 3.8 -0.5
v 0.1 0 0.6
v 0.1 0 0.5
v 0.1 0 -0.4
v 0.1 0 -0.5
v 0.1 3.8 0.6
v 0.1 3.8 0.5
v 0.1 3.8 -0.4
v 0.1 3.8 -0.5
v 0.2 0 0.5
v 0.2 0 0.4
v 0.2 0 -0.3
v 0.2 0 -0.4
v 0.2 3.8 0.5
v 0.2 3.8 0.4
v 0.2 3.8 -0.3
v 0.2 3.8 -0.4
v 0.3 0 0.4
v 0.3 0 0.3
v 0.3 0 -0.2
v 0.3 0 -0.3
v 0.3 3.8 0.4
v 0.3 3.8 0.3
v 0.3 3.8 -0.2
v 0.3 3.8 -0.3
v 0.4 0 0.3
v 0.4 0 0.2
v 0.4 0 -0.1
v 0.4 0 -0.2
v 0.4 3.8 0.3
v 0.4 3.8 0.2
v 0.4 3.8 -0.1
v 0.4 3.8 -0.2
v 0.5 0 0.2
v 0.5 0 0.1
v 0.5 0 5.96046e-008
v 0.5 0 -0.1
v 0.5 3.8 0.2
v 0.5 3.8 0.1
v 0.5 3.8 5.96046e-008
v 0.5 3.8 -0.1
v 0.6 0 0.1
v 0.6 0 5.96046e-008
v 0.6 3.8 0.1
v 0.6 3.8 5.96046e-008
v 1.19209e-007 0 0.6
v 1.19209e-007 3.8 0.6
v 0.1 0 0.6
v 0.1 3.8 0.6
v -0.0999999 0 0.5
v -0.0999999 3.8 0.5
v 1.19209e-007 0 0.5
v 1.19209e-007 3.8 0.5
v 0.1 0 0.5
v 0.1 3.8 0.5
v 0.2 0 0.5
v 0.2 3.8 0.5
v -0.2 0 0.4
v -0.2 3.8 0.4
v -0.0999999 0 0.4
v -0.0999999 3.8 0.4
v 0.2 0 0.4
v 0.2 3.8 0.4
v 0.3 0 0.4
v 0.3 3.8 0.4
v -0.3 0 0.3
v -0.3 3.8 0.3
v -0.2 0 0.3
v -0.2 3.8 0.3
v 0.3 0 0.3
v 0.3 3.8 0.3
v 0.4 0 0.3
v 0.4 3.8 0.3
v -0.4 0 0.2
v -0.4 3.8 0.2
v -0.3 0 0.2
v -0.3 3.8 0.2
v 0.4 0 0.2
v 0.4 3.8 0.2
v 0.5 0 0.2
v 0.5 3.8 0.2
v -0.5 0 0.1
v -0.5 3.8 0.1
v -0.4 0 0.1
v -0.4 3.8 0.1
v 0.5 0 0.1
v 0.5 3.8 0.1
v 0.6 0 0.1
v 0.6 3.8 0.1
v -0.5 0 5.96046e-008
v -0.5 3.8 5.96046e-008
v -0.4 0 5.96046e-008
v -0.4 3.8 5.96046e-008
v 0.5 0 5.96046e-008
v 0.5 3.8 5.96046e-008
v 0.6 0 5.96046e-008
v 0.6 3.8 5.96046e-008
v -0.4 0 -0.1
v -0.4 3.8 -0.1
v -0.3 0 -0.1
v -0.3 3.8 -0.1
v 0.4 0 -0.1
v 0.4 3.8 -0.1
v 0.5 0 -0.1
v 0.5 3.8 -0.1
v -0.3 0 -0.2
v -0.3 3.8 -0.2
v -0.2 0 -0.2
v -0.2 3.8 -0.2
v 0.3 0 -0.2
v 0.3 3.8 -0.2
v 0.4 0 -0.2
v 0.4 3.8 -0.2
v -0.2 0 -0.3
v -0.2 3.8 -0.3
v -0.0999999 0 -0.3
v -0.0999999 3.8 -0.3
v 0.2 0 -0.3
v 0.2 3.8 -0.3
v 0.3 0 -0.3
v 0.3 3.8 -0.3
v -0.0999999 0 -0.4
v -0.0999999 3.8 -0.4
v 1.19209e-007 0 -0.4
v 1.19209e-007 3.8 -0.4
v 0.1 0 -0.4
v 0.1 3.8 -0.4
v 0.2 0 -0.4
v 0.2 3.8 -0.4
v 1.19209e-007 0 -0.5
v 1.19209e-007 3.8 -0.5
v 0.1 0 -0.5
v 0.1 3.8 -0.5
v 1.19209e-007 0 0.6
v 0.1 0 0.6
v -0.0999999 0 0.5
v 1.19209e-007 0 0.5
v 0.1 0 0.5
v 0.2 0 0.5
v -0.2 0 0.4
v -0.0999999 0 0.4
v 1.19209e-007 0 0.4
v 0.1 0 0.4
v 0.2 0 0.4
v 0.3 0 0.4
v -0.3 0 0.3
v -0.2 0 0.3
v -0.0999999 0 0.3
v 0.2 0 0.3
v 0.3 0 0.3
v 0.4 0 0.3
v -0.4 0 0.2
v -0.3 0 0.2
v -0.2 0 0.2
v 0.3 0 0.2
v 0.4 0 0.2
v 0.5 0 0.2
v -0.5 0 0.1
v -0.4 0 0.1
v -0.3 0 0.1
v 1.19209e-007 0 0.1
v 0.1 0 0.1
v 0.4 0 0.1
v 0.5 0 0.1
v 0.6 0 0.1
v -0.5 0 5.96046e-008
v -0.4 0 5.96046e-008
v -0.3 0 5.96046e-008
v 1.19209e-007 0 5.96046e-008
v 0.1 0 5.96046e-008
v 0.4 0 5.96046e-008
v 0.5 0 5.96046e-008
v 0.6 0 5.96046e-008
v -0.4 0 -0.1
v -0.3 0 -0.1
v -0.2 0 -0.1
v 0.3 0 -0.1
v 0.4 0 -0.1
v 0.5 0 -0.1
v -0.3 0 -0.2
v -0.2 0 -0.2
v -0.0999999 0 -0.2
v 0.2 0 -0.2
v 0.3 0 -0.2
v 0.4 0 -0.2
v -0.2 0 -0.3
v -0.0999999 0 -0.3
v 1.19209e-007 0 -0.3
v 0.1 0 -0.3
v 0.2 0 -0.3
v 0.3 0 -0.3
v -0.0999999 0 -0.4
v 1.19209e-007 0 -0.4
v 0.1 0 -0.4
v 0.2 0 -0.4
v 1.19209e-007 0 -0.5
v 0.1 0 -0.5
v 1.19209e-007 3.8 0.6
v 0.1 3.8 0.6
v -0.0999999 3.8 0.5
v 1.19209e-007 3.8 0.5
v 0.1 3.8 0.5
v 0.2 3.8 0.5
v -0.2 3.8 0.4
v -0.0999999 3.8 0.4
v 1.19209e-007 3.8 0.4
v 0.1 3.8 0.4
v 0.2 3.8 0.4
v 0.3 3.8 0.4
v -0.3 3.8 0.3
v -0.2 3.8 0.3
v -0.0999999 3.8 0.3
v 0.2 3.8 0.3
v 0.3 3.8 0.3
v 0.4 3.8 0.3
v -0.4 3.8 0.2
v -0.3 3.8 0.2
v -0.2 3.8 0.2
v 0.3 3.8 0.2
v 0.4 3.8 0.2
v 0.5 3.8 0.2
v -0.5 3.8 0.1
v -0.4 3.8 0.1
v -0.3 3.8 0.1
v 1.19209e-007 3.8 0.1
v 0.1 3.8 0.1
v 0.4 3.8 0.1
v 0.5 3.8 0.1
v 0.6 3.8 0.1
v -0.5 3.8 5.96046e-008
v -0.4 3.8 5.96046e-008
v -0.3 3.8 5.96046e-008
v 1.19209e-007 3.8 5.96046e-008
v 0.1 3.8 5.96046e-008
v 0.4 3.8 5.96046e-008
v 0.5 3.8 5.96046e-008
v 0.6 3.8 5.96046e-008
v -0.4 3.8 -0.1
v -0.3 3.8 -0.1
v -0.2 3.8 -0.1
v 0.3 3.8 -0.1
v 0.4 3.8 -0.1
v 0.5 3.8 -0.1
v -0.3 3.8 -0.2
v -0.2 3.8 -0.2
v -0.0999999 3.8 -0.2
v 0.2 3.8 -0.2
v 0.3 3.8 -0.2
v 0.4 3.8 -0.2
v -0.2 3.8 -0.3
v -0.0999999 3.8 -0.3
v 1.19209e-007 3.8 -0.3
v 0.1 3.8 -0.3
v 0.2 3.8 -0.3
v 0.3 3.8 -0.3
v -0.0999999 3.8 -0.4
v 1.19209e-007 3.8 -0.4
v 0.1 3.8 -0.4
v 0.2 3.8 -0.4
v 1.19209e-007 3.8 -0.5
v 0.1 3.8 -0.5

# faces
f 3/3/1 2/3/1 1/3/1
f 4/3/1 2/3/1 3/3/1
f 9/3/1 6/3/1 5/3/1
f 10/3/1 6/3/1 9/3/1
f 11/3/1 8/3/1 7/3/1
f 12/3/1 8/3/1 11/3/1
f 17/3/1 14/3/1 13/3/1
f 18/3/1 14/3/1 17/3/1
f 19/3/1 16/3/1 15/3/1
f 20/3/1 16/3/1 19/3/1
f 25/3/1 22/3/1 21/3/1
f 26/3/1 22/3/1 25/3/1
f 27/3/1 24/3/1 23/3/1
f 28/3/1 24/3/1 27/3/1
f 33/3/1 30/3/1 29/3/1
f 34/3/1 30/3/1 33/3/1
f 35/3/1 32/3/1 31/3/1
f 36/3/1 32/3/1 35/3/1
f 41/3/1 38/3/1 37/3/1
f 42/3/1 38/3/1 41/3/1
f 43/3/1 40/3/1 39/3/1
f 44/3/1 40/3/1 43/3/1
f 45/3/2 46/3/2 49/3/2
f 49/3/2 46/3/2 50/3/2
f 47/3/2 48/3/2 51/3/2
f 51/3/2 48/3/2 52/3/2
f 53/3/2 54/3/2 57/3/2
f 57/3/2 54/3/2 58/3/2
f 55/3/2 56/3/2 59/3/2
f 59/3/2 56/3/2 60/3/2
f 61/3/2 62/3/2 65/3/2
f 65/3/2 62/3/2 66/3/2
f 63/3/2 64/3/2 67/3/2
f 67/3/2 64/3/2 68/3/2
f 69/3/2 70/3/2 73/3/2
f 73/3/2 70/3/2 74/3/2
f 71/3/2 72/3/2 75/3/2
f 75/3/2 72/3/2 76/3/2
f 77/3/2 78/3/2 81/3/2
f 81/3/2 78/3/2 82/3/2
f 79/3/2 80/3/2 83/3/2
f 83/3/2 80/3/2 84/3/2
f 85/3/2 86/3/2 87/3/2
f 87/3/2 86/3/2 88/3/2
f 91/3/3 90/3/3 89/3/3
f 92/3/3 90/3/3 91/3/3
f 95/3/3 94/3/3 93/3/3
f 96/3/3 94/3/3 95/3/3
f 99/3/3 98/3/3 97/3/3
f 100/3/3 98/3/3 99/3/3
f 103/3/3 102/3/3 101/3/3
f 104/3/3 102/3/3 103/3/3
f 107/3/3 106/3/3 105/3/3
f 108/3/3 106/3/3 107/3/3
f 111/3/3 110/3/3 109/3/3
f 112/3/3 110/3/3 111/3/3
f 115/3/3 114/3/3 113/3/3
f 116/3/3 114/3/3 115/3/3
f 119/3/3 118/3/3 117/3/3
f 120/3/3 118/3/3 119/3/3
f 123/3/3 122/3/3 121/3/3
f 124/3/3 122/3/3 123/3/3
f 127/3/3 126/3/3 125/3/3
f 128/3/3 126/3/3 127/3/3
f 131/3/3 130/3/3 129/3/3
f 132/3/3 130/3/3 131/3/3
f 133/3/4 134/3/4 135/3/4
f 135/3/4 134/3/4 136/3/4
f 137/3/4 138/3/4 139/3/4
f 139/3/4 138/3/4 140/3/4
f 141/3/4 142/3/4 143/3/4
f 143/3/4 142/3/4 144/3/4
f 145/3/4 146/3/4 147/3/4
f 147/3/4 146/3/4 148/3/4
f 149/3/4 150/3/4 151/3/4
f 151/3/4 150/3/4 152/3/4
f 153/3/4 154/3/4 155/3/4
f 155/3/4 154/3/4 156/3/4
f 157/3/4 158/3/4 159/3/4
f 159/3/4 158/3/4 160/3/4
f 161/3/4 162/3/4 163/3/4
f 163/3/4 162/3/4 164/3/4
f 165/3/4 166/3/4 167/3/4
f 167/3/4 166/3/4 168/3/4
f 169/3/4 170/3/4 171/3/4
f 171/3/4 170/3/4 172/3/4
f 173/3/4 174/3/4 175/3/4
f 175/3/4 174/3/4 176/3/4
f 180/3/5 178/3/5 177/3/5
f 181/3/5 178/3/5 180/3/5
f 184/3/5 180/3/5 179/3/5
f 185/2/5 181/2/5 180/2/5
f 185/3/5 180/3/5 184/3/5
f 186/3/5 182/3/5 181/3/5
f 186/2/5 181/2/5 185/2/5
f 187/3/5 182/3/5 186/3/5
f 190/3/5 184/3/5 183/3/5
f 191/2/5 185/2/5 184/2/5
f 191/2/5 186/2/5 185/2/5
f 191/3/5 184/3/5 190/3/5
f 191/2/5 187/2/5 186/2/5
f 192/3/5 188/3/5 187/3/5
f 192/2/5 187/2/5 191/2/5
f 193/3/5 188/3/5 192/3/5
f 196/3/5 190/3/5 189/3/5
f 197/2/5 191/2/5 190/2/5
f 197/2/5 192/2/5 191/2/5
f 197/3/5 190/3/5 196/3/5
f 197/2/5 193/2/5 192/2/5
f 198/3/5 194/3/5 193/3/5
f 198/2/5 193/2/5 197/2/5
f 199/3/5 194/3/5 198/3/5
f 202/3/5 196/3/5 195/3/5
f 203/2/5 197/2/5 196/2/5
f 203/2/5 198/2/5 197/2/5
f 203/3/5 196/3/5 202/3/5
f 203/2/5 199/2/5 198/2/5
f 204/2/5 199/2/5 203/2/5
f 205/2/5 199/2/5 204/2/5
f 206/3/5 200/3/5 199/3/5
f 206/2/5 199/2/5 205/2/5
f 207/3/5 200/3/5 206/3/5
f 209/3/5 202/3/5 201/3/5
f 210/2/5 203/2/5 202/2/5
f 210/3/5 202/3/5 209/3/5
f 210/2/5 204/2/5 203/2/5
f 211/2/5 204/2/5 210/2/5
f 212/1/5 205/1/5 204/1/5
f 212/2/5 204/2/5 211/2/5
f 213/2/5 207/2/5 206/2/5
f 213/1/5 205/1/5 212/1/5
f 213/2/5 206/2/5 205/2/5
f 214/2/5 207/2/5 213/2/5
f 215/3/5 208/3/5 207/3/5
f 215/2/5 207/2/5 214/2/5
f 216/3/5 208/3/5 215/3/5
f 217/3/5 211/3/5 210/3/5
f 218/2/5 214/2/5 213/2/5
f 218/3/5 211/3/5 217/3/5
f 218/2/5 212/2/5 211/2/5
f 218/2/5 213/2/5 212/2/5
f 219/2/5 214/2/5 218/2/5
f 220/2/5 214/2/5 219/2/5
f 221/3/5 215/3/5 214/3/5
f 221/2/5 214/2/5 220/2/5
f 222/3/5 215/3/5 221/3/5
f 223/3/5 219/3/5 218/3/5
f 224/2/5 220/2/5 219/2/5
f 224/3/5 219/3/5 223/3/5
f 225/2/5 220/2/5 224/2/5
f 226/2/5 220/2/5 225/2/5
f 227/3/5 221/3/5 220/3/5
f 227/2/5 220/2/5 226/2/5
f 228/3/5 221/3/5 227/3/5
f 229/3/5 225/3/5 224/3/5
f 230/2/5 226/2/5 225/2/5
f 230/3/5 225/3/5 229/3/5
f 231/2/5 226/2/5 230/2/5
f 232/2/5 226/2/5 231/2/5
f 233/3/5 227/3/5 226/3/5
f 233/2/5 226/2/5 232/2/5
f 234/3/5 227/3/5 233/3/5
f 235/3/5 231/3/5 230/3/5
f 236/2/5 232/2/5 231/2/5
f 236/3/5 231/3/5 235/3/5
f 237/3/5 233/3/5 232/3/5
f 237/2/5 232/2/5 236/2/5
f 238/3/5 233/3/5 237/3/5
f 239/3/5 237/3/5 236/3/5
f 240/3/5 237/3/5 239/3/5
f 241/3/6 242/3/6 244/3/6
f 244/3/6 242/3/6 245/3/6
f 243/3/6 244/3/6 248/3/6
f 244/2/6 245/2/6 249/2/6
f 248/3/6 244/3/6 249/3/6
f 245/3/6 246/3/6 250/3/6
f 249/2/6 245/2/6 250/2/6
f 250/3/6 246/3/6 251/3/6
f 247/3/6 248/3/6 254/3/6
f 248/2/6 249/2/6 255/2/6
f 249/2/6 250/2/6 255/2/6
f 254/3/6 248/3/6 255/3/6
f 250/2/6 251/2/6 255/2/6
f 251/3/6 252/3/6 256/3/6
f 255/2/6 251/2/6 256/2/6
f 256/3/6 252/3/6 257/3/6
f 253/3/6 254/3/6 260/3/6
f 254/2/6 255/2/6 261/2/6
f 255/2/6 256/2/6 261/2/6
f 260/3/6 254/3/6 261/3/6
f 256/2/6 257/2/6 261/2/6
f 257/3/6 258/3/6 262/3/6
f 261/2/6 257/2/6 262/2/6
f 262/3/6 258/3/6 263/3/6
f 259/3/6 260/3/6 266/3/6
f 260/2/6 261/2/6 267/2/6
f 261/2/6 262/2/6 267/2/6
f 266/3/6 260/3/6 267/3/6
f 262/2/6 263/2/6 267/2/6
f 267/2/6 263/2/6 268/2/6
f 268/2/6 263/2/6 269/2/6
f 263/3/6 264/3/6 270/3/6
f 269/2/6 263/2/6 270/2/6
f 270/3/6 264/3/6 271/3/6
f 265/3/6 266/3/6 273/3/6
f 266/2/6 267/2/6 274/2/6
f 273/3/6 266/3/6 274/3/6
f 267/2/6 268/2/6 274/2/6
f 274/2/6 268/2/6 275/2/6
f 268/1/6 269/1/6 276/1/6
f 275/2/6 268/2/6 276/2/6
f 270/2/6 271/2/6 277/2/6
f 276/1/6 269/1/6 277/1/6
f 269/2/6 270/2/6 277/2/6
f 277/2/6 271/2/6 278/2/6
f 271/3/6 272/3/6 279/3/6
f 278/2/6 271/2/6 279/2/6
f 279/3/6 272/3/6 280/3/6
f 274/3/6 275/3/6 281/3/6
f 277/2/6 278/2/6 282/2/6
f 281/3/6 275/3/6 282/3/6
f 275/2/6 276/2/6 282/2/6
f 276/2/6 277/2/6 282/2/6
f 282/2/6 278/2/6 283/2/6
f 283/2/6 278/2/6 284/2/6
f 278/3/6 279/3/6 285/3/6
f 284/2/6 278/2/6 285/2/6
f 285/3/6 279/3/6 286/3/6
f 282/3/6 283/3/6 287/3/6
f 283/2/6 284/2/6 288/2/6
f 287/3/6 283/3/6 288/3/6
f 288/2/6 284/2/6 289/2/6
f 289/2/6 284/2/6 290/2/6
f 284/3/6 285/3/6 291/3/6
f 290/2/6 284/2/6 291/2/6
f 291/3/6 285/3/6 292/3/6
f 288/3/6 289/3/6 293/3/6
f 289/2/6 290/2/6 294/2/6
f 293/3/6 289/3/6 294/3/6
f 294/2/6 290/2/6 295/2/6
f 295/2/6 290/2/6 296/2/6
f 290/3/6 291/3/6 297/3/6
f 296/2/6 290/2/6 297/2/6
f 297/3/6 291/3/6 298/3/6
f 294/3/6 295/3/6 299/3/6
f 295/2/6 296/2/6 300/2/6
f 299/3/6 295/3/6 300/3/6
f 296/3/6 297/3/6 301/3/6
f 300/2/6 296/2/6 301/2/6
f 301/3/6 297/3/6 302/3/6
f 300/3/6 301/3/6 303/3/6
f 303/3/6 301/3/6 304/3/6
