# MagicaVoxel @ Ephtracy

# group
o 

# material
mtllib Candlestick.mtl
usemtl palette

# normals
vn -1 0 0
vn 1 0 0
vn 0 0 1
vn 0 0 -1
vn 0 -1 0
vn 0 1 0

# texcoords
vt 0.845703 0.5
vt 0.876953 0.5
vt 0.908203 0.5
vt 0.939453 0.5
vt 0.943359 0.5
vt 0.970703 0.5
vt 0.978516 0.5

# verts
v -2 0 0.8
v -2 0 0.3
v -2 0 0.2
v -2 0.1 0.8
v -2 0.1 0.3
v -2 0.1 0.2
v -1.9 0 0.9
v -1.9 0 0.8
v -1.9 0 0.2
v -1.9 0 0.1
v -1.9 0.1 0.9
v -1.9 0.1 0.8
v -1.9 0.1 0.7
v -1.9 0.1 0.3
v -1.9 0.1 0.2
v -1.9 0.1 0.1
v -1.9 0.2 0.7
v -1.9 0.2 0.3
v -1.8 0.1 0.8
v -1.8 0.1 0.7
v -1.8 0.1 0.3
v -1.8 0.1 0.2
v -1.8 0.2 0.8
v -1.8 0.2 0.7
v -1.8 0.2 0.3
v -1.8 0.2 0.2
v -1.8 0.4 0.7
v -1.8 0.4 0.6
v -1.8 0.4 0.4
v -1.8 0.4 0.3
v -1.8 0.6 1.2
v -1.8 0.6 0.8
v -1.8 0.6 0.6
v -1.8 0.6 0.4
v -1.8 0.6 0.2
v -1.8 0.6 -0.2
v -1.8 0.7 1.2
v -1.8 0.7 0.8
v -1.8 0.7 0.2
v -1.8 0.7 -0.2
v -1.8 0.8 1.2
v -1.8 0.8 0.8
v -1.8 0.8 0.7
v -1.8 0.8 0.3
v -1.8 0.8 0.2
v -1.8 0.8 -0.2
v -1.8 0.9 0.7
v -1.8 0.9 0.3
v -1.7 0.2 0.6
v -1.7 0.2 0.4
v -1.7 0.4 0.6
v -1.7 0.4 0.4
v -1.7 0.6 0.8
v -1.7 0.6 0.7
v -1.7 0.6 0.6
v -1.7 0.6 0.4
v -1.7 0.6 0.3
v -1.7 0.6 0.2
v -1.7 0.7 0.8
v -1.7 0.7 0.7
v -1.7 0.7 0.3
v -1.7 0.7 0.2
v -1.7 0.8 1.1
v -1.7 0.8 0.9
v -1.7 0.8 0.8
v -1.7 0.8 0.7
v -1.7 0.8 0.3
v -1.7 0.8 0.2
v -1.7 0.8 0.1
v -1.7 0.8 -0.0999999
v -1.7 0.9 1.1
v -1.7 0.9 0.9
v -1.7 0.9 0.6
v -1.7 0.9 0.4
v -1.7 0.9 0.1
v -1.7 0.9 -0.0999999
v -1.7 1 0.6
v -1.7 1 0.4
v -1.7 1.1 1.1
v -1.7 1.1 0.9
v -1.7 1.1 0.1
v -1.7 1.1 -0.0999999
v -1.7 1.2 1.1
v -1.7 1.2 0.9
v -1.7 1.2 0.6
v -1.7 1.2 0.4
v -1.7 1.2 0.1
v -1.7 1.2 -0.0999999
v -1.7 1.3 0.6
v -1.7 1.3 0.4
v -1.7 1.3 0.1
v -1.7 1.3 -0.0999999
v -1.7 1.4 1.1
v -1.7 1.4 0.9
v -1.7 1.6 0.6
v -1.7 1.6 0.4
v -1.5 0.4 0.7
v -1.5 0.4 0.6
v -1.5 0.4 0.4
v -1.5 0.4 0.3
v -1.5 0.6 0.7
v -1.5 0.6 0.6
v -1.5 0.6 0.4
v -1.5 0.6 0.3
v -1.7 0.4 0.7
v -1.7 0.4 0.6
v -1.7 0.4 0.4
v -1.7 0.4 0.3
v -1.7 0.6 0.7
v -1.7 0.6 0.6
v -1.7 0.6 0.4
v -1.7 0.6 0.3
v -1.5 0.2 0.6
v -1.5 0.2 0.4
v -1.5 0.4 0.6
v -1.5 0.4 0.4
v -1.5 0.6 0.8
v -1.5 0.6 0.7
v -1.5 0.6 0.6
v -1.5 0.6 0.4
v -1.5 0.6 0.3
v -1.5 0.6 0.2
v -1.5 0.7 0.8
v -1.5 0.7 0.7
v -1.5 0.7 0.3
v -1.5 0.7 0.2
v -1.5 0.8 1.1
v -1.5 0.8 0.9
v -1.5 0.8 0.8
v -1.5 0.8 0.7
v -1.5 0.8 0.3
v -1.5 0.8 0.2
v -1.5 0.8 0.1
v -1.5 0.8 -0.0999999
v -1.5 0.9 1.1
v -1.5 0.9 0.9
v -1.5 0.9 0.6
v -1.5 0.9 0.4
v -1.5 0.9 0.1
v -1.5 0.9 -0.0999999
v -1.5 1 0.6
v -1.5 1 0.4
v -1.5 1.1 1.1
v -1.5 1.1 0.9
v -1.5 1.1 0.1
v -1.5 1.1 -0.0999999
v -1.5 1.2 1.1
v -1.5 1.2 0.9
v -1.5 1.2 0.6
v -1.5 1.2 0.4
v -1.5 1.2 0.1
v -1.5 1.2 -0.0999999
v -1.5 1.3 0.6
v -1.5 1.3 0.4
v -1.5 1.3 0.1
v -1.5 1.3 -0.0999999
v -1.5 1.4 1.1
v -1.5 1.4 0.9
v -1.5 1.6 0.6
v -1.5 1.6 0.4
v -1.4 0.1 0.8
v -1.4 0.1 0.7
v -1.4 0.1 0.3
v -1.4 0.1 0.2
v -1.4 0.2 0.8
v -1.4 0.2 0.7
v -1.4 0.2 0.3
v -1.4 0.2 0.2
v -1.4 0.4 0.7
v -1.4 0.4 0.6
v -1.4 0.4 0.4
v -1.4 0.4 0.3
v -1.4 0.6 1.2
v -1.4 0.6 0.8
v -1.4 0.6 0.6
v -1.4 0.6 0.4
v -1.4 0.6 0.2
v -1.4 0.6 -0.2
v -1.4 0.7 1.2
v -1.4 0.7 0.8
v -1.4 0.7 0.2
v -1.4 0.7 -0.2
v -1.4 0.8 1.2
v -1.4 0.8 0.8
v -1.4 0.8 0.7
v -1.4 0.8 0.3
v -1.4 0.8 0.2
v -1.4 0.8 -0.2
v -1.4 0.9 0.7
v -1.4 0.9 0.3
v -1.3 0 0.9
v -1.3 0 0.8
v -1.3 0 0.2
v -1.3 0 0.1
v -1.3 0.1 0.9
v -1.3 0.1 0.8
v -1.3 0.1 0.7
v -1.3 0.1 0.3
v -1.3 0.1 0.2
v -1.3 0.1 0.1
v -1.3 0.2 0.7
v -1.3 0.2 0.3
v -1.2 0 0.8
v -1.2 0 0.2
v -1.2 0.1 0.8
v -1.2 0.1 0.2
v -1.8 0.6 1.2
v -1.8 0.7 1.2
v -1.8 0.8 1.2
v -1.4 0.6 1.2
v -1.4 0.7 1.2
v -1.4 0.8 1.2
v -1.7 0.8 1.1
v -1.7 0.9 1.1
v -1.7 1.1 1.1
v -1.7 1.2 1.1
v -1.7 1.4 1.1
v -1.5 0.8 1.1
v -1.5 0.9 1.1
v -1.5 1.1 1.1
v -1.5 1.2 1.1
v -1.5 1.4 1.1
v -1.9 0 0.9
v -1.9 0.1 0.9
v -1.4 0 0.9
v -1.4 0.1 0.9
v -1.3 0 0.9
v -1.3 0.1 0.9
v -2 0 0.8
v -2 0.1 0.8
v -1.9 0 0.8
v -1.9 0.1 0.8
v -1.8 0.1 0.8
v -1.8 0.2 0.8
v -1.4 0.1 0.8
v -1.4 0.2 0.8
v -1.3 0 0.8
v -1.3 0.1 0.8
v -1.2 0 0.8
v -1.2 0.1 0.8
v -1.9 0.1 0.7
v -1.9 0.2 0.7
v -1.8 0.1 0.7
v -1.8 0.2 0.7
v -1.8 0.4 0.7
v -1.8 0.8 0.7
v -1.8 0.9 0.7
v -1.7 0.4 0.7
v -1.7 0.6 0.7
v -1.7 0.7 0.7
v -1.7 0.8 0.7
v -1.5 0.4 0.7
v -1.5 0.6 0.7
v -1.5 0.7 0.7
v -1.5 0.8 0.7
v -1.4 0.1 0.7
v -1.4 0.2 0.7
v -1.4 0.4 0.7
v -1.4 0.8 0.7
v -1.4 0.9 0.7
v -1.3 0.1 0.7
v -1.3 0.2 0.7
v -1.7 0.2 0.6
v -1.7 0.4 0.6
v -1.7 0.6 0.6
v -1.7 0.9 0.6
v -1.7 1 0.6
v -1.7 1.2 0.6
v -1.7 1.3 0.6
v -1.7 1.6 0.6
v -1.5 0.2 0.6
v -1.5 0.4 0.6
v -1.5 0.6 0.6
v -1.5 0.9 0.6
v -1.5 1 0.6
v -1.5 1.2 0.6
v -1.5 1.3 0.6
v -1.5 1.6 0.6
v -1.8 0.4 0.4
v -1.8 0.6 0.4
v -1.7 0.4 0.4
v -1.7 0.6 0.4
v -1.5 0.4 0.4
v -1.5 0.6 0.4
v -1.4 0.4 0.4
v -1.4 0.6 0.4
v -1.8 0.6 0.2
v -1.8 0.7 0.2
v -1.8 0.8 0.2
v -1.7 0.6 0.2
v -1.7 0.7 0.2
v -1.7 0.8 0.2
v -1.5 0.6 0.2
v -1.5 0.7 0.2
v -1.5 0.8 0.2
v -1.4 0.6 0.2
v -1.4 0.7 0.2
v -1.4 0.8 0.2
v -1.7 0.8 0.1
v -1.7 0.9 0.1
v -1.7 1.1 0.1
v -1.7 1.2 0.1
v -1.7 1.3 0.1
v -1.5 0.8 0.1
v -1.5 0.9 0.1
v -1.5 1.1 0.1
v -1.5 1.2 0.1
v -1.5 1.3 0.1
v -1.7 0.8 0.9
v -1.7 0.9 0.9
v -1.7 1.1 0.9
v -1.7 1.2 0.9
v -1.7 1.4 0.9
v -1.5 0.8 0.9
v -1.5 0.9 0.9
v -1.5 1.1 0.9
v -1.5 1.2 0.9
v -1.5 1.4 0.9
v -1.8 0.6 0.8
v -1.8 0.7 0.8
v -1.8 0.8 0.8
v -1.7 0.6 0.8
v -1.7 0.7 0.8
v -1.7 0.8 0.8
v -1.5 0.6 0.8
v -1.5 0.7 0.8
v -1.5 0.8 0.8
v -1.4 0.6 0.8
v -1.4 0.7 0.8
v -1.4 0.8 0.8
v -1.8 0.4 0.6
v -1.8 0.6 0.6
v -1.7 0.4 0.6
v -1.7 0.6 0.6
v -1.5 0.4 0.6
v -1.5 0.6 0.6
v -1.4 0.4 0.6
v -1.4 0.6 0.6
v -1.7 0.2 0.4
v -1.7 0.4 0.4
v -1.7 0.6 0.4
v -1.7 0.9 0.4
v -1.7 1 0.4
v -1.7 1.2 0.4
v -1.7 1.3 0.4
v -1.7 1.6 0.4
v -1.5 0.2 0.4
v -1.5 0.4 0.4
v -1.5 0.6 0.4
v -1.5 0.9 0.4
v -1.5 1 0.4
v -1.5 1.2 0.4
v -1.5 1.3 0.4
v -1.5 1.6 0.4
v -1.9 0.1 0.3
v -1.9 0.2 0.3
v -1.8 0.1 0.3
v -1.8 0.2 0.3
v -1.8 0.4 0.3
v -1.8 0.8 0.3
v -1.8 0.9 0.3
v -1.7 0.4 0.3
v -1.7 0.6 0.3
v -1.7 0.7 0.3
v -1.7 0.8 0.3
v -1.5 0.4 0.3
v -1.5 0.6 0.3
v -1.5 0.7 0.3
v -1.5 0.8 0.3
v -1.4 0.1 0.3
v -1.4 0.2 0.3
v -1.4 0.4 0.3
v -1.4 0.8 0.3
v -1.4 0.9 0.3
v -1.3 0.1 0.3
v -1.3 0.2 0.3
v -2 0 0.2
v -2 0.1 0.2
v -1.9 0 0.2
v -1.9 0.1 0.2
v -1.8 0.1 0.2
v -1.8 0.2 0.2
v -1.4 0.1 0.2
v -1.4 0.2 0.2
v -1.3 0 0.2
v -1.3 0.1 0.2
v -1.2 0 0.2
v -1.2 0.1 0.2
v -1.9 0 0.1
v -1.9 0.1 0.1
v -1.3 0 0.1
v -1.3 0.1 0.1
v -1.7 0.8 -0.0999999
v -1.7 0.9 -0.0999999
v -1.7 1.1 -0.0999999
v -1.7 1.2 -0.0999999
v -1.7 1.3 -0.0999999
v -1.5 0.8 -0.0999999
v -1.5 0.9 -0.0999999
v -1.5 1.1 -0.0999999
v -1.5 1.2 -0.0999999
v -1.5 1.3 -0.0999999
v -1.8 0.6 -0.2
v -1.8 0.7 -0.2
v -1.8 0.8 -0.2
v -1.4 0.6 -0.2
v -1.4 0.7 -0.2
v -1.4 0.8 -0.2
v -1.9 0 0.9
v -1.4 0 0.9
v -1.3 0 0.9
v -2 0 0.8
v -1.9 0 0.8
v -1.4 0 0.8
v -1.3 0 0.8
v -1.2 0 0.8
v -2 0 0.3
v -1.9 0 0.3
v -1.4 0 0.3
v -1.3 0 0.3
v -2 0 0.2
v -1.9 0 0.2
v -1.4 0 0.2
v -1.3 0 0.2
v -1.2 0 0.2
v -1.9 0 0.1
v -1.3 0 0.1
v -1.8 0.4 0.7
v -1.7 0.4 0.7
v -1.5 0.4 0.7
v -1.4 0.4 0.7
v -1.8 0.4 0.6
v -1.7 0.4 0.6
v -1.5 0.4 0.6
v -1.4 0.4 0.6
v -1.8 0.4 0.4
v -1.7 0.4 0.4
v -1.5 0.4 0.4
v -1.4 0.4 0.4
v -1.8 0.4 0.3
v -1.7 0.4 0.3
v -1.5 0.4 0.3
v -1.4 0.4 0.3
v -1.8 0.6 1.2
v -1.4 0.6 1.2
v -1.8 0.6 0.8
v -1.7 0.6 0.8
v -1.5 0.6 0.8
v -1.4 0.6 0.8
v -1.7 0.6 0.7
v -1.5 0.6 0.7
v -1.8 0.6 0.6
v -1.7 0.6 0.6
v -1.5 0.6 0.6
v -1.4 0.6 0.6
v -1.8 0.6 0.4
v -1.7 0.6 0.4
v -1.5 0.6 0.4
v -1.4 0.6 0.4
v -1.7 0.6 0.3
v -1.5 0.6 0.3
v -1.8 0.6 0.2
v -1.7 0.6 0.2
v -1.5 0.6 0.2
v -1.4 0.6 0.2
v -1.8 0.6 -0.2
v -1.4 0.6 -0.2
v -1.9 0.1 0.9
v -1.4 0.1 0.9
v -1.3 0.1 0.9
v -2 0.1 0.8
v -1.9 0.1 0.8
v -1.8 0.1 0.8
v -1.4 0.1 0.8
v -1.3 0.1 0.8
v -1.2 0.1 0.8
v -1.9 0.1 0.7
v -1.8 0.1 0.7
v -1.4 0.1 0.7
v -1.3 0.1 0.7
v -2 0.1 0.3
v -1.9 0.1 0.3
v -1.8 0.1 0.3
v -1.4 0.1 0.3
v -1.3 0.1 0.3
v -2 0.1 0.2
v -1.9 0.1 0.2
v -1.8 0.1 0.2
v -1.4 0.1 0.2
v -1.3 0.1 0.2
v -1.2 0.1 0.2
v -1.9 0.1 0.1
v -1.3 0.1 0.1
v -1.8 0.2 0.8
v -1.4 0.2 0.8
v -1.9 0.2 0.7
v -1.8 0.2 0.7
v -1.4 0.2 0.7
v -1.3 0.2 0.7
v -1.7 0.2 0.6
v -1.5 0.2 0.6
v -1.7 0.2 0.4
v -1.5 0.2 0.4
v -1.9 0.2 0.3
v -1.8 0.2 0.3
v -1.4 0.2 0.3
v -1.3 0.2 0.3
v -1.8 0.2 0.2
v -1.4 0.2 0.2
v -1.8 0.8 1.2
v -1.4 0.8 1.2
v -1.7 0.8 1.1
v -1.5 0.8 1.1
v -1.7 0.8 0.9
v -1.5 0.8 0.9
v -1.8 0.8 0.8
v -1.7 0.8 0.8
v -1.5 0.8 0.8
v -1.4 0.8 0.8
v -1.7 0.8 0.7
v -1.5 0.8 0.7
v -1.7 0.8 0.3
v -1.5 0.8 0.3
v -1.8 0.8 0.2
v -1.7 0.8 0.2
v -1.5 0.8 0.2
v -1.4 0.8 0.2
v -1.7 0.8 0.1
v -1.5 0.8 0.1
v -1.7 0.8 -0.0999999
v -1.5 0.8 -0.0999999
v -1.8 0.8 -0.2
v -1.4 0.8 -0.2
v -1.8 0.9 0.7
v -1.4 0.9 0.7
v -1.7 0.9 0.6
v -1.5 0.9 0.6
v -1.7 0.9 0.4
v -1.5 0.9 0.4
v -1.8 0.9 0.3
v -1.4 0.9 0.3
v -1.7 1.3 0.1
v -1.5 1.3 0.1
v -1.7 1.3 -0.0999999
v -1.5 1.3 -0.0999999
v -1.7 1.4 1.1
v -1.5 1.4 1.1
v -1.7 1.4 0.9
v -1.5 1.4 0.9
v -1.7 1.6 0.6
v -1.5 1.6 0.6
v -1.7 1.6 0.4
v -1.5 1.6 0.4

# faces
f 4/7/1 2/7/1 1/7/1
f 5/5/1 3/5/1 2/5/1
f 5/7/1 2/7/1 4/7/1
f 6/5/1 3/5/1 5/5/1
f 11/7/1 8/7/1 7/7/1
f 12/7/1 8/7/1 11/7/1
f 15/5/1 10/5/1 9/5/1
f 16/5/1 10/5/1 15/5/1
f 17/4/1 14/4/1 13/4/1
f 18/4/1 14/4/1 17/4/1
f 23/4/1 20/4/1 19/4/1
f 24/4/1 20/4/1 23/4/1
f 25/4/1 22/4/1 21/4/1
f 26/4/1 22/4/1 25/4/1
f 33/5/1 28/5/1 27/5/1
f 34/5/1 30/5/1 29/5/1
f 37/5/1 32/5/1 31/5/1
f 38/5/1 32/5/1 37/5/1
f 39/5/1 36/5/1 35/5/1
f 40/5/1 36/5/1 39/5/1
f 41/4/1 38/4/1 37/4/1
f 42/4/1 38/4/1 41/4/1
f 43/5/1 34/5/1 33/5/1
f 43/5/1 33/5/1 27/5/1
f 44/5/1 30/5/1 34/5/1
f 44/5/1 34/5/1 43/5/1
f 45/4/1 40/4/1 39/4/1
f 46/4/1 40/4/1 45/4/1
f 47/4/1 44/4/1 43/4/1
f 48/4/1 44/4/1 47/4/1
f 51/5/1 50/5/1 49/5/1
f 52/5/1 50/5/1 51/5/1
f 55/5/1 52/5/1 51/5/1
f 56/5/1 52/5/1 55/5/1
f 59/5/1 54/5/1 53/5/1
f 60/5/1 54/5/1 59/5/1
f 61/5/1 58/5/1 57/5/1
f 62/5/1 58/5/1 61/5/1
f 65/4/1 60/4/1 59/4/1
f 66/4/1 60/4/1 65/4/1
f 67/4/1 62/4/1 61/4/1
f 68/4/1 62/4/1 67/4/1
f 71/6/1 64/6/1 63/6/1
f 72/6/1 64/6/1 71/6/1
f 75/6/1 70/6/1 69/6/1
f 76/6/1 70/6/1 75/6/1
f 77/6/1 74/6/1 73/6/1
f 78/6/1 74/6/1 77/6/1
f 79/2/1 72/2/1 71/2/1
f 80/2/1 72/2/1 79/2/1
f 81/2/1 76/2/1 75/2/1
f 82/2/1 76/2/1 81/2/1
f 83/1/1 80/1/1 79/1/1
f 84/1/1 80/1/1 83/1/1
f 85/2/1 78/2/1 77/2/1
f 86/2/1 78/2/1 85/2/1
f 87/1/1 82/1/1 81/1/1
f 88/1/1 82/1/1 87/1/1
f 89/1/1 86/1/1 85/1/1
f 90/1/1 86/1/1 89/1/1
f 91/3/1 88/3/1 87/3/1
f 92/3/1 88/3/1 91/3/1
f 93/3/1 84/3/1 83/3/1
f 94/3/1 84/3/1 93/3/1
f 95/3/1 90/3/1 89/3/1
f 96/3/1 90/3/1 95/3/1
f 101/5/1 98/5/1 97/5/1
f 102/5/1 98/5/1 101/5/1
f 103/5/1 100/5/1 99/5/1
f 104/5/1 100/5/1 103/5/1
f 105/5/2 106/5/2 109/5/2
f 109/5/2 106/5/2 110/5/2
f 107/5/2 108/5/2 111/5/2
f 111/5/2 108/5/2 112/5/2
f 113/5/2 114/5/2 115/5/2
f 115/5/2 114/5/2 116/5/2
f 115/5/2 116/5/2 119/5/2
f 119/5/2 116/5/2 120/5/2
f 117/5/2 118/5/2 123/5/2
f 123/5/2 118/5/2 124/5/2
f 121/5/2 122/5/2 125/5/2
f 125/5/2 122/5/2 126/5/2
f 123/4/2 124/4/2 129/4/2
f 129/4/2 124/4/2 130/4/2
f 125/4/2 126/4/2 131/4/2
f 131/4/2 126/4/2 132/4/2
f 127/6/2 128/6/2 135/6/2
f 135/6/2 128/6/2 136/6/2
f 133/6/2 134/6/2 139/6/2
f 139/6/2 134/6/2 140/6/2
f 137/6/2 138/6/2 141/6/2
f 141/6/2 138/6/2 142/6/2
f 135/2/2 136/2/2 143/2/2
f 143/2/2 136/2/2 144/2/2
f 139/2/2 140/2/2 145/2/2
f 145/2/2 140/2/2 146/2/2
f 143/1/2 144/1/2 147/1/2
f 147/1/2 144/1/2 148/1/2
f 141/2/2 142/2/2 149/2/2
f 149/2/2 142/2/2 150/2/2
f 145/1/2 146/1/2 151/1/2
f 151/1/2 146/1/2 152/1/2
f 149/1/2 150/1/2 153/1/2
f 153/1/2 150/1/2 154/1/2
f 151/3/2 152/3/2 155/3/2
f 155/3/2 152/3/2 156/3/2
f 147/3/2 148/3/2 157/3/2
f 157/3/2 148/3/2 158/3/2
f 153/3/2 154/3/2 159/3/2
f 159/3/2 154/3/2 160/3/2
f 161/4/2 162/4/2 165/4/2
f 165/4/2 162/4/2 166/4/2
f 163/4/2 164/4/2 167/4/2
f 167/4/2 164/4/2 168/4/2
f 169/5/2 170/5/2 175/5/2
f 171/5/2 172/5/2 176/5/2
f 173/5/2 174/5/2 179/5/2
f 179/5/2 174/5/2 180/5/2
f 177/5/2 178/5/2 181/5/2
f 181/5/2 178/5/2 182/5/2
f 179/4/2 180/4/2 183/4/2
f 183/4/2 180/4/2 184/4/2
f 175/5/2 176/5/2 185/5/2
f 169/5/2 175/5/2 185/5/2
f 176/5/2 172/5/2 186/5/2
f 185/5/2 176/5/2 186/5/2
f 181/4/2 182/4/2 187/4/2
f 187/4/2 182/4/2 188/4/2
f 185/4/2 186/4/2 189/4/2
f 189/4/2 186/4/2 190/4/2
f 191/5/2 192/5/2 195/5/2
f 195/5/2 192/5/2 196/5/2
f 193/5/2 194/5/2 199/5/2
f 199/5/2 194/5/2 200/5/2
f 197/4/2 198/4/2 201/4/2
f 201/4/2 198/4/2 202/4/2
f 203/5/2 204/5/2 205/5/2
f 205/5/2 204/5/2 206/5/2
f 210/5/3 208/5/3 207/5/3
f 211/4/3 209/4/3 208/4/3
f 211/5/3 208/5/3 210/5/3
f 212/4/3 209/4/3 211/4/3
f 218/6/3 214/6/3 213/6/3
f 219/2/3 215/2/3 214/2/3
f 219/6/3 214/6/3 218/6/3
f 220/1/3 216/1/3 215/1/3
f 220/2/3 215/2/3 219/2/3
f 221/3/3 217/3/3 216/3/3
f 221/1/3 216/1/3 220/1/3
f 222/3/3 217/3/3 221/3/3
f 225/7/3 224/7/3 223/7/3
f 226/7/3 224/7/3 225/7/3
f 227/5/3 226/5/3 225/5/3
f 228/5/3 226/5/3 227/5/3
f 231/7/3 230/7/3 229/7/3
f 232/7/3 230/7/3 231/7/3
f 235/4/3 234/4/3 233/4/3
f 236/4/3 234/4/3 235/4/3
f 239/5/3 238/5/3 237/5/3
f 240/5/3 238/5/3 239/5/3
f 243/4/3 242/4/3 241/4/3
f 244/4/3 242/4/3 243/4/3
f 248/5/3 246/5/3 245/5/3
f 249/5/3 246/5/3 248/5/3
f 250/5/3 246/5/3 249/5/3
f 251/4/3 247/4/3 246/4/3
f 251/5/3 246/5/3 250/5/3
f 255/4/3 247/4/3 251/4/3
f 258/5/3 254/5/3 253/5/3
f 258/5/3 253/5/3 252/5/3
f 258/5/3 255/5/3 254/5/3
f 259/4/3 247/4/3 255/4/3
f 259/5/3 255/5/3 258/5/3
f 260/4/3 247/4/3 259/4/3
f 261/4/3 257/4/3 256/4/3
f 262/4/3 257/4/3 261/4/3
f 271/5/3 264/5/3 263/5/3
f 271/5/3 265/5/3 264/5/3
f 272/5/3 265/5/3 271/5/3
f 273/5/3 265/5/3 272/5/3
f 274/6/3 267/6/3 266/6/3
f 275/2/3 268/2/3 267/2/3
f 275/6/3 267/6/3 274/6/3
f 276/1/3 269/1/3 268/1/3
f 276/2/3 268/2/3 275/2/3
f 277/3/3 270/3/3 269/3/3
f 277/1/3 269/1/3 276/1/3
f 278/3/3 270/3/3 277/3/3
f 281/5/3 280/5/3 279/5/3
f 282/5/3 280/5/3 281/5/3
f 285/5/3 284/5/3 283/5/3
f 286/5/3 284/5/3 285/5/3
f 290/5/3 288/5/3 287/5/3
f 291/4/3 289/4/3 288/4/3
f 291/5/3 288/5/3 290/5/3
f 292/4/3 289/4/3 291/4/3
f 296/5/3 294/5/3 293/5/3
f 297/4/3 295/4/3 294/4/3
f 297/5/3 294/5/3 296/5/3
f 298/4/3 295/4/3 297/4/3
f 304/6/3 300/6/3 299/6/3
f 305/2/3 301/2/3 300/2/3
f 305/6/3 300/6/3 304/6/3
f 306/1/3 302/1/3 301/1/3
f 306/2/3 301/2/3 305/2/3
f 307/3/3 303/3/3 302/3/3
f 307/1/3 302/1/3 306/1/3
f 308/3/3 303/3/3 307/3/3
f 309/6/4 310/6/4 314/6/4
f 310/2/4 311/2/4 315/2/4
f 314/6/4 310/6/4 315/6/4
f 311/1/4 312/1/4 316/1/4
f 315/2/4 311/2/4 316/2/4
f 312/3/4 313/3/4 317/3/4
f 316/1/4 312/1/4 317/1/4
f 317/3/4 313/3/4 318/3/4
f 319/5/4 320/5/4 322/5/4
f 320/4/4 321/4/4 323/4/4
f 322/5/4 320/5/4 323/5/4
f 323/4/4 321/4/4 324/4/4
f 325/5/4 326/5/4 328/5/4
f 326/4/4 327/4/4 329/4/4
f 328/5/4 326/5/4 329/5/4
f 329/4/4 327/4/4 330/4/4
f 331/5/4 332/5/4 333/5/4
f 333/5/4 332/5/4 334/5/4
f 335/5/4 336/5/4 337/5/4
f 337/5/4 336/5/4 338/5/4
f 339/5/4 340/5/4 347/5/4
f 340/5/4 341/5/4 347/5/4
f 347/5/4 341/5/4 348/5/4
f 348/5/4 341/5/4 349/5/4
f 342/6/4 343/6/4 350/6/4
f 343/2/4 344/2/4 351/2/4
f 350/6/4 343/6/4 351/6/4
f 344/1/4 345/1/4 352/1/4
f 351/2/4 344/2/4 352/2/4
f 345/3/4 346/3/4 353/3/4
f 352/1/4 345/1/4 353/1/4
f 353/3/4 346/3/4 354/3/4
f 355/4/4 356/4/4 357/4/4
f 357/4/4 356/4/4 358/4/4
f 359/5/4 360/5/4 362/5/4
f 362/5/4 360/5/4 363/5/4
f 363/5/4 360/5/4 364/5/4
f 360/4/4 361/4/4 365/4/4
f 364/5/4 360/5/4 365/5/4
f 365/4/4 361/4/4 369/4/4
f 367/5/4 368/5/4 372/5/4
f 366/5/4 367/5/4 372/5/4
f 368/5/4 369/5/4 372/5/4
f 369/4/4 361/4/4 373/4/4
f 372/5/4 369/5/4 373/5/4
f 373/4/4 361/4/4 374/4/4
f 370/4/4 371/4/4 375/4/4
f 375/4/4 371/4/4 376/4/4
f 377/5/4 378/5/4 379/5/4
f 379/5/4 378/5/4 380/5/4
f 381/4/4 382/4/4 383/4/4
f 383/4/4 382/4/4 384/4/4
f 385/5/4 386/5/4 387/5/4
f 387/5/4 386/5/4 388/5/4
f 389/5/4 390/5/4 391/5/4
f 391/5/4 390/5/4 392/5/4
f 393/6/4 394/6/4 398/6/4
f 394/2/4 395/2/4 399/2/4
f 398/6/4 394/6/4 399/6/4
f 395/1/4 396/1/4 400/1/4
f 399/2/4 395/2/4 400/2/4
f 396/3/4 397/3/4 401/3/4
f 400/1/4 396/1/4 401/1/4
f 401/3/4 397/3/4 402/3/4
f 403/5/4 404/5/4 406/5/4
f 404/4/4 405/4/4 407/4/4
f 406/5/4 404/5/4 407/5/4
f 407/4/4 405/4/4 408/4/4
f 413/7/5 410/7/5 409/7/5
f 414/5/5 411/5/5 410/5/5
f 414/7/5 410/7/5 413/7/5
f 415/5/5 411/5/5 414/5/5
f 417/7/5 413/7/5 412/7/5
f 417/7/5 414/7/5 413/7/5
f 417/7/5 415/7/5 414/7/5
f 418/7/5 415/7/5 417/7/5
f 419/7/5 415/7/5 418/7/5
f 420/5/5 416/5/5 415/5/5
f 420/7/5 415/7/5 419/7/5
f 421/5/5 418/5/5 417/5/5
f 422/7/5 419/7/5 418/7/5
f 422/5/5 418/5/5 421/5/5
f 423/5/5 420/5/5 419/5/5
f 423/7/5 419/7/5 422/7/5
f 424/5/5 416/5/5 420/5/5
f 424/5/5 420/5/5 423/5/5
f 425/5/5 416/5/5 424/5/5
f 426/5/5 423/5/5 422/5/5
f 426/5/5 424/5/5 423/5/5
f 427/5/5 424/5/5 426/5/5
f 432/5/5 429/5/5 428/5/5
f 433/5/5 429/5/5 432/5/5
f 434/5/5 431/5/5 430/5/5
f 435/5/5 431/5/5 434/5/5
f 440/5/5 437/5/5 436/5/5
f 441/5/5 437/5/5 440/5/5
f 442/5/5 439/5/5 438/5/5
f 443/5/5 439/5/5 442/5/5
f 446/5/5 445/5/5 444/5/5
f 447/5/5 445/5/5 446/5/5
f 448/5/5 445/5/5 447/5/5
f 449/5/5 445/5/5 448/5/5
f 450/5/5 448/5/5 447/5/5
f 451/5/5 448/5/5 450/5/5
f 453/5/5 451/5/5 450/5/5
f 454/5/5 451/5/5 453/5/5
f 456/5/5 453/5/5 452/5/5
f 457/5/5 453/5/5 456/5/5
f 458/5/5 455/5/5 454/5/5
f 459/5/5 455/5/5 458/5/5
f 460/5/5 458/5/5 457/5/5
f 461/5/5 458/5/5 460/5/5
f 463/5/5 461/5/5 460/5/5
f 464/5/5 461/5/5 463/5/5
f 466/5/5 464/5/5 463/5/5
f 466/5/5 465/5/5 464/5/5
f 466/5/5 463/5/5 462/5/5
f 467/5/5 465/5/5 466/5/5
f 468/7/6 469/7/6 472/7/6
f 472/7/6 469/7/6 473/7/6
f 469/5/6 470/5/6 474/5/6
f 473/7/6 469/7/6 474/7/6
f 474/5/6 470/5/6 475/5/6
f 472/7/6 473/7/6 477/7/6
f 471/7/6 472/7/6 477/7/6
f 477/7/6 473/7/6 478/7/6
f 474/7/6 475/7/6 479/7/6
f 475/5/6 476/5/6 480/5/6
f 479/7/6 475/7/6 480/7/6
f 471/7/6 477/7/6 481/7/6
f 481/7/6 477/7/6 482/7/6
f 480/5/6 476/5/6 485/5/6
f 481/5/6 482/5/6 486/5/6
f 482/7/6 483/7/6 487/7/6
f 486/5/6 482/5/6 487/5/6
f 487/7/6 483/7/6 488/7/6
f 484/5/6 485/5/6 489/5/6
f 485/5/6 476/5/6 490/5/6
f 489/5/6 485/5/6 490/5/6
f 490/5/6 476/5/6 491/5/6
f 487/5/6 488/5/6 492/5/6
f 488/5/6 489/5/6 492/5/6
f 489/5/6 490/5/6 492/5/6
f 492/5/6 490/5/6 493/5/6
f 494/4/6 495/4/6 497/4/6
f 497/4/6 495/4/6 498/4/6
f 497/5/6 498/5/6 500/5/6
f 500/5/6 498/5/6 501/5/6
f 497/5/6 500/5/6 502/5/6
f 501/5/6 498/5/6 503/5/6
f 496/4/6 497/4/6 504/4/6
f 502/5/6 503/5/6 505/5/6
f 504/4/6 497/4/6 505/4/6
f 497/5/6 502/5/6 505/5/6
f 498/4/6 499/4/6 506/4/6
f 505/5/6 503/5/6 506/5/6
f 503/5/6 498/5/6 506/5/6
f 506/4/6 499/4/6 507/4/6
f 505/4/6 506/4/6 508/4/6
f 508/4/6 506/4/6 509/4/6
f 510/4/6 511/4/6 512/4/6
f 512/4/6 511/4/6 513/4/6
f 510/4/6 512/4/6 514/4/6
f 513/4/6 511/4/6 515/4/6
f 510/4/6 514/4/6 516/4/6
f 514/4/6 515/4/6 516/4/6
f 516/4/6 515/4/6 517/4/6
f 515/4/6 511/4/6 518/4/6
f 517/4/6 515/4/6 518/4/6
f 518/4/6 511/4/6 519/4/6
f 517/4/6 518/4/6 520/4/6
f 520/4/6 518/4/6 521/4/6
f 522/4/6 523/4/6 525/4/6
f 525/4/6 523/4/6 526/4/6
f 525/4/6 526/4/6 528/4/6
f 526/4/6 527/4/6 528/4/6
f 524/4/6 525/4/6 528/4/6
f 528/4/6 527/4/6 529/4/6
f 524/4/6 528/4/6 530/4/6
f 529/4/6 527/4/6 531/4/6
f 524/4/6 530/4/6 532/4/6
f 530/4/6 531/4/6 532/4/6
f 531/4/6 527/4/6 533/4/6
f 532/4/6 531/4/6 533/4/6
f 534/4/6 535/4/6 536/4/6
f 536/4/6 535/4/6 537/4/6
f 534/4/6 536/4/6 538/4/6
f 537/4/6 535/4/6 539/4/6
f 534/4/6 538/4/6 540/4/6
f 538/4/6 539/4/6 540/4/6
f 539/4/6 535/4/6 541/4/6
f 540/4/6 539/4/6 541/4/6
f 542/3/6 543/3/6 544/3/6
f 544/3/6 543/3/6 545/3/6
f 546/3/6 547/3/6 548/3/6
f 548/3/6 547/3/6 549/3/6
f 550/3/6 551/3/6 552/3/6
f 552/3/6 551/3/6 553/3/6
