# MagicaVoxel @ Ephtracy

# group
o 

# material
mtllib Target.mtl
usemtl palette

# normals
vn -1 0 0
vn 1 0 0
vn 0 0 1
vn 0 0 -1
vn 0 -1 0
vn 0 1 0

# texcoords
vt 0.970703 0.5
vt 0.974609 0.5
vt 0.978516 0.5
vt 0.982422 0.5

# verts
v -0.6 2.8 0.4
v -0.6 2.8 0.2
v -0.6 3.4 0.4
v -0.6 3.4 0.2
v -0.5 2.7 0.4
v -0.5 2.7 0.2
v -0.5 2.8 0.4
v -0.5 2.8 0.2
v -0.5 2.9 0.1
v -0.5 2.9 -0.1
v -0.5 3 0.2
v -0.5 3 0.1
v -0.5 3 -0.1
v -0.5 3 -0.2
v -0.5 3.2 0.2
v -0.5 3.2 0.1
v -0.5 3.2 -0.1
v -0.5 3.2 -0.2
v -0.5 3.3 0.1
v -0.5 3.3 -0.1
v -0.5 3.4 0.4
v -0.5 3.4 0.2
v -0.5 3.5 0.4
v -0.5 3.5 0.2
v -0.4 2.6 0.4
v -0.4 2.6 0.2
v -0.4 2.7 0.4
v -0.4 2.7 0.2
v -0.4 3.5 0.4
v -0.4 3.5 0.2
v -0.4 3.6 0.4
v -0.4 3.6 0.2
v -0.3 2.5 0.4
v -0.3 2.5 0.2
v -0.3 2.6 0.4
v -0.3 2.6 0.2
v -0.3 3.6 0.4
v -0.3 3.6 0.2
v -0.3 3.7 0.4
v -0.3 3.7 0.2
v -0.2 0 0.1
v -0.2 0 -0.1
v -0.2 2.9 0.1
v -0.2 2.9 -0.1
v -0.2 3.3 0.1
v -0.2 3.3 -0.1
v -0.2 3.6 0.1
v -0.2 3.6 -0.1
v -0.1 0 0.2
v -0.1 0 0.1
v -0.1 0 -0.1
v -0.1 0 -0.2
v -0.1 2.5 0.2
v -0.1 2.6 0.2
v -0.1 2.7 0.2
v -0.1 2.8 0.2
v -0.1 3 0.2
v -0.1 3 0.1
v -0.1 3 -0.1
v -0.1 3 -0.2
v -0.1 3.2 0.2
v -0.1 3.2 0.1
v -0.1 3.2 -0.1
v -0.1 3.2 -0.2
v -0.1 3.4 0.2
v -0.1 3.5 0.2
v -0.1 3.6 0.2
v -0.1 3.6 0.1
v -0.1 3.6 -0.1
v -0.1 3.6 -0.2
v 0.1 0 0.2
v 0.1 0 0.1
v 0.1 0 -0.1
v 0.1 0 -0.2
v 0.1 2.5 0.2
v 0.1 2.6 0.2
v 0.1 2.7 0.2
v 0.1 2.8 0.2
v 0.1 3 0.2
v 0.1 3 0.1
v 0.1 3 -0.1
v 0.1 3 -0.2
v 0.1 3.2 0.2
v 0.1 3.2 0.1
v 0.1 3.2 -0.1
v 0.1 3.2 -0.2
v 0.1 3.4 0.2
v 0.1 3.5 0.2
v 0.1 3.6 0.2
v 0.1 3.6 0.1
v 0.1 3.6 -0.1
v 0.1 3.6 -0.2
v 0.2 0 0.1
v 0.2 0 -0.1
v 0.2 2.9 0.1
v 0.2 2.9 -0.1
v 0.2 3.3 0.1
v 0.2 3.3 -0.1
v 0.2 3.6 0.1
v 0.2 3.6 -0.1
v 0.3 2.5 0.4
v 0.3 2.5 0.2
v 0.3 2.6 0.4
v 0.3 2.6 0.2
v 0.3 3.6 0.4
v 0.3 3.6 0.2
v 0.3 3.7 0.4
v 0.3 3.7 0.2
v 0.4 2.6 0.4
v 0.4 2.6 0.2
v 0.4 2.7 0.4
v 0.4 2.7 0.2
v 0.4 3.5 0.4
v 0.4 3.5 0.2
v 0.4 3.6 0.4
v 0.4 3.6 0.2
v 0.5 2.7 0.4
v 0.5 2.7 0.2
v 0.5 2.8 0.4
v 0.5 2.8 0.2
v 0.5 2.9 0.1
v 0.5 2.9 -0.1
v 0.5 3 0.2
v 0.5 3 0.1
v 0.5 3 -0.1
v 0.5 3 -0.2
v 0.5 3.2 0.2
v 0.5 3.2 0.1
v 0.5 3.2 -0.1
v 0.5 3.2 -0.2
v 0.5 3.3 0.1
v 0.5 3.3 -0.1
v 0.5 3.4 0.4
v 0.5 3.4 0.2
v 0.5 3.5 0.4
v 0.5 3.5 0.2
v 0.6 2.8 0.4
v 0.6 2.8 0.2
v 0.6 3.4 0.4
v 0.6 3.4 0.2
v -0.6 2.8 0.4
v -0.6 3.4 0.4
v -0.5 2.7 0.4
v -0.5 2.8 0.4
v -0.5 3.4 0.4
v -0.5 3.5 0.4
v -0.4 2.6 0.4
v -0.4 2.7 0.4
v -0.4 2.8 0.4
v -0.4 2.9 0.4
v -0.4 3.3 0.4
v -0.4 3.4 0.4
v -0.4 3.5 0.4
v -0.4 3.6 0.4
v -0.3 2.5 0.4
v -0.3 2.6 0.4
v -0.3 2.7 0.4
v -0.3 2.8 0.4
v -0.3 2.9 0.4
v -0.3 3.3 0.4
v -0.3 3.4 0.4
v -0.3 3.5 0.4
v -0.3 3.6 0.4
v -0.3 3.7 0.4
v -0.2 2.7 0.4
v -0.2 2.8 0.4
v -0.2 2.9 0.4
v -0.2 3 0.4
v -0.2 3.2 0.4
v -0.2 3.3 0.4
v -0.2 3.4 0.4
v -0.2 3.5 0.4
v -0.1 2.9 0.4
v -0.1 3 0.4
v -0.1 3.2 0.4
v -0.1 3.3 0.4
v 0.1 2.9 0.4
v 0.1 3 0.4
v 0.1 3.2 0.4
v 0.1 3.3 0.4
v 0.2 2.7 0.4
v 0.2 2.8 0.4
v 0.2 2.9 0.4
v 0.2 3 0.4
v 0.2 3.2 0.4
v 0.2 3.3 0.4
v 0.2 3.4 0.4
v 0.2 3.5 0.4
v 0.3 2.5 0.4
v 0.3 2.6 0.4
v 0.3 2.7 0.4
v 0.3 2.8 0.4
v 0.3 2.9 0.4
v 0.3 3.3 0.4
v 0.3 3.4 0.4
v 0.3 3.5 0.4
v 0.3 3.6 0.4
v 0.3 3.7 0.4
v 0.4 2.6 0.4
v 0.4 2.7 0.4
v 0.4 2.8 0.4
v 0.4 2.9 0.4
v 0.4 3.3 0.4
v 0.4 3.4 0.4
v 0.4 3.5 0.4
v 0.4 3.6 0.4
v 0.5 2.7 0.4
v 0.5 2.8 0.4
v 0.5 3.4 0.4
v 0.5 3.5 0.4
v 0.6 2.8 0.4
v 0.6 3.4 0.4
v -0.1 0 0.2
v -0.1 2.5 0.2
v 0.1 0 0.2
v 0.1 2.5 0.2
v -0.5 2.9 0.1
v -0.5 3 0.1
v -0.5 3.2 0.1
v -0.5 3.3 0.1
v -0.2 0 0.1
v -0.2 2.9 0.1
v -0.2 3.3 0.1
v -0.2 3.6 0.1
v -0.1 0 0.1
v -0.1 3 0.1
v -0.1 3.2 0.1
v -0.1 3.6 0.1
v 0.1 0 0.1
v 0.1 3 0.1
v 0.1 3.2 0.1
v 0.1 3.6 0.1
v 0.2 0 0.1
v 0.2 2.9 0.1
v 0.2 3.3 0.1
v 0.2 3.6 0.1
v 0.5 2.9 0.1
v 0.5 3 0.1
v 0.5 3.2 0.1
v 0.5 3.3 0.1
v -0.6 2.8 0.2
v -0.6 3.4 0.2
v -0.5 2.7 0.2
v -0.5 2.8 0.2
v -0.5 3 0.2
v -0.5 3.2 0.2
v -0.5 3.4 0.2
v -0.5 3.5 0.2
v -0.4 2.6 0.2
v -0.4 2.7 0.2
v -0.4 2.8 0.2
v -0.4 2.9 0.2
v -0.4 3 0.2
v -0.4 3.2 0.2
v -0.4 3.3 0.2
v -0.4 3.4 0.2
v -0.4 3.5 0.2
v -0.4 3.6 0.2
v -0.3 2.5 0.2
v -0.3 2.6 0.2
v -0.3 2.7 0.2
v -0.3 2.8 0.2
v -0.3 2.9 0.2
v -0.3 3 0.2
v -0.3 3.2 0.2
v -0.3 3.3 0.2
v -0.3 3.4 0.2
v -0.3 3.5 0.2
v -0.3 3.6 0.2
v -0.3 3.7 0.2
v -0.2 2.7 0.2
v -0.2 2.8 0.2
v -0.2 2.9 0.2
v -0.2 3.3 0.2
v -0.2 3.4 0.2
v -0.2 3.5 0.2
v -0.1 2.5 0.2
v -0.1 2.6 0.2
v -0.1 2.7 0.2
v -0.1 2.8 0.2
v -0.1 3 0.2
v -0.1 3.2 0.2
v -0.1 3.4 0.2
v -0.1 3.5 0.2
v -0.1 3.6 0.2
v 0.1 2.5 0.2
v 0.1 2.6 0.2
v 0.1 2.7 0.2
v 0.1 2.8 0.2
v 0.1 3 0.2
v 0.1 3.2 0.2
v 0.1 3.4 0.2
v 0.1 3.5 0.2
v 0.1 3.6 0.2
v 0.2 2.7 0.2
v 0.2 2.8 0.2
v 0.2 2.9 0.2
v 0.2 3.3 0.2
v 0.2 3.4 0.2
v 0.2 3.5 0.2
v 0.3 2.5 0.2
v 0.3 2.6 0.2
v 0.3 2.7 0.2
v 0.3 2.8 0.2
v 0.3 2.9 0.2
v 0.3 3 0.2
v 0.3 3.2 0.2
v 0.3 3.3 0.2
v 0.3 3.4 0.2
v 0.3 3.5 0.2
v 0.3 3.6 0.2
v 0.3 3.7 0.2
v 0.4 2.6 0.2
v 0.4 2.7 0.2
v 0.4 2.8 0.2
v 0.4 2.9 0.2
v 0.4 3 0.2
v 0.4 3.2 0.2
v 0.4 3.3 0.2
v 0.4 3.4 0.2
v 0.4 3.5 0.2
v 0.4 3.6 0.2
v 0.5 2.7 0.2
v 0.5 2.8 0.2
v 0.5 3 0.2
v 0.5 3.2 0.2
v 0.5 3.4 0.2
v 0.5 3.5 0.2
v 0.6 2.8 0.2
v 0.6 3.4 0.2
v -0.5 2.9 -0.1
v -0.5 3 -0.1
v -0.5 3.2 -0.1
v -0.5 3.3 -0.1
v -0.2 0 -0.1
v -0.2 2.9 -0.1
v -0.2 3.3 -0.1
v -0.2 3.6 -0.1
v -0.1 0 -0.1
v -0.1 3 -0.1
v -0.1 3.2 -0.1
v -0.1 3.6 -0.1
v 0.1 0 -0.1
v 0.1 3 -0.1
v 0.1 3.2 -0.1
v 0.1 3.6 -0.1
v 0.2 0 -0.1
v 0.2 2.9 -0.1
v 0.2 3.3 -0.1
v 0.2 3.6 -0.1
v 0.5 2.9 -0.1
v 0.5 3 -0.1
v 0.5 3.2 -0.1
v 0.5 3.3 -0.1
v -0.5 3 -0.2
v -0.5 3.2 -0.2
v -0.1 0 -0.2
v -0.1 3 -0.2
v -0.1 3.2 -0.2
v -0.1 3.6 -0.2
v 0.1 0 -0.2
v 0.1 3 -0.2
v 0.1 3.2 -0.2
v 0.1 3.6 -0.2
v 0.5 3 -0.2
v 0.5 3.2 -0.2
v -0.1 0 0.2
v 0.1 0 0.2
v -0.2 0 0.1
v -0.1 0 0.1
v 0.1 0 0.1
v 0.2 0 0.1
v -0.2 0 -0.1
v -0.1 0 -0.1
v 0.1 0 -0.1
v 0.2 0 -0.1
v -0.1 0 -0.2
v 0.1 0 -0.2
v -0.3 2.5 0.4
v 0.3 2.5 0.4
v -0.3 2.5 0.2
v -0.1 2.5 0.2
v 0.1 2.5 0.2
v 0.3 2.5 0.2
v -0.4 2.6 0.4
v -0.3 2.6 0.4
v 0.3 2.6 0.4
v 0.4 2.6 0.4
v -0.4 2.6 0.2
v -0.3 2.6 0.2
v 0.3 2.6 0.2
v 0.4 2.6 0.2
v -0.5 2.7 0.4
v -0.4 2.7 0.4
v 0.4 2.7 0.4
v 0.5 2.7 0.4
v -0.5 2.7 0.2
v -0.4 2.7 0.2
v 0.4 2.7 0.2
v 0.5 2.7 0.2
v -0.6 2.8 0.4
v -0.5 2.8 0.4
v 0.5 2.8 0.4
v 0.6 2.8 0.4
v -0.6 2.8 0.2
v -0.5 2.8 0.2
v 0.5 2.8 0.2
v 0.6 2.8 0.2
v -0.5 2.9 0.1
v -0.2 2.9 0.1
v 0.2 2.9 0.1
v 0.5 2.9 0.1
v -0.5 2.9 -0.1
v -0.2 2.9 -0.1
v 0.2 2.9 -0.1
v 0.5 2.9 -0.1
v -0.5 3 0.2
v -0.4 3 0.2
v -0.3 3 0.2
v -0.1 3 0.2
v 0.1 3 0.2
v 0.3 3 0.2
v 0.4 3 0.2
v 0.5 3 0.2
v -0.5 3 0.1
v -0.1 3 0.1
v 0.1 3 0.1
v 0.5 3 0.1
v -0.5 3 -0.1
v -0.1 3 -0.1
v 0.1 3 -0.1
v 0.5 3 -0.1
v -0.5 3 -0.2
v -0.1 3 -0.2
v 0.1 3 -0.2
v 0.5 3 -0.2
v -0.5 3.2 0.2
v -0.4 3.2 0.2
v -0.3 3.2 0.2
v -0.1 3.2 0.2
v 0.1 3.2 0.2
v 0.3 3.2 0.2
v 0.4 3.2 0.2
v 0.5 3.2 0.2
v -0.5 3.2 0.1
v -0.1 3.2 0.1
v 0.1 3.2 0.1
v 0.5 3.2 0.1
v -0.5 3.2 -0.1
v -0.1 3.2 -0.1
v 0.1 3.2 -0.1
v 0.5 3.2 -0.1
v -0.5 3.2 -0.2
v -0.1 3.2 -0.2
v 0.1 3.2 -0.2
v 0.5 3.2 -0.2
v -0.5 3.3 0.1
v -0.2 3.3 0.1
v 0.2 3.3 0.1
v 0.5 3.3 0.1
v -0.5 3.3 -0.1
v -0.2 3.3 -0.1
v 0.2 3.3 -0.1
v 0.5 3.3 -0.1
v -0.6 3.4 0.4
v -0.5 3.4 0.4
v 0.5 3.4 0.4
v 0.6 3.4 0.4
v -0.6 3.4 0.2
v -0.5 3.4 0.2
v 0.5 3.4 0.2
v 0.6 3.4 0.2
v -0.5 3.5 0.4
v -0.4 3.5 0.4
v 0.4 3.5 0.4
v 0.5 3.5 0.4
v -0.5 3.5 0.2
v -0.4 3.5 0.2
v 0.4 3.5 0.2
v 0.5 3.5 0.2
v -0.4 3.6 0.4
v -0.3 3.6 0.4
v 0.3 3.6 0.4
v 0.4 3.6 0.4
v -0.4 3.6 0.2
v -0.3 3.6 0.2
v -0.1 3.6 0.2
v 0.1 3.6 0.2
v 0.3 3.6 0.2
v 0.4 3.6 0.2
v -0.2 3.6 0.1
v -0.1 3.6 0.1
v 0.1 3.6 0.1
v 0.2 3.6 0.1
v -0.2 3.6 -0.1
v -0.1 3.6 -0.1
v 0.1 3.6 -0.1
v 0.2 3.6 -0.1
v -0.1 3.6 -0.2
v 0.1 3.6 -0.2
v -0.3 3.7 0.4
v 0.3 3.7 0.4
v -0.3 3.7 0.2
v 0.3 3.7 0.2

# faces
f 3/4/1 2/4/1 1/4/1
f 4/4/1 2/4/1 3/4/1
f 7/4/1 6/4/1 5/4/1
f 8/4/1 6/4/1 7/4/1
f 12/1/1 10/1/1 9/1/1
f 13/1/1 10/1/1 12/1/1
f 15/1/1 12/1/1 11/1/1
f 15/1/1 14/1/1 13/1/1
f 15/1/1 13/1/1 12/1/1
f 16/1/1 14/1/1 15/1/1
f 17/1/1 14/1/1 16/1/1
f 18/1/1 14/1/1 17/1/1
f 19/1/1 17/1/1 16/1/1
f 20/1/1 17/1/1 19/1/1
f 23/4/1 22/4/1 21/4/1
f 24/4/1 22/4/1 23/4/1
f 27/4/1 26/4/1 25/4/1
f 28/4/1 26/4/1 27/4/1
f 31/4/1 30/4/1 29/4/1
f 32/4/1 30/4/1 31/4/1
f 35/4/1 34/4/1 33/4/1
f 36/4/1 34/4/1 35/4/1
f 39/4/1 38/4/1 37/4/1
f 40/4/1 38/4/1 39/4/1
f 43/1/1 42/1/1 41/1/1
f 44/1/1 42/1/1 43/1/1
f 47/1/1 46/1/1 45/1/1
f 48/1/1 46/1/1 47/1/1
f 53/1/1 50/1/1 49/1/1
f 54/1/1 50/1/1 53/1/1
f 55/1/1 50/1/1 54/1/1
f 56/1/1 50/1/1 55/1/1
f 57/1/1 50/1/1 56/1/1
f 58/1/1 50/1/1 57/1/1
f 59/1/1 52/1/1 51/1/1
f 60/1/1 52/1/1 59/1/1
f 65/1/1 62/1/1 61/1/1
f 66/1/1 62/1/1 65/1/1
f 67/1/1 62/1/1 66/1/1
f 68/1/1 62/1/1 67/1/1
f 69/1/1 64/1/1 63/1/1
f 70/1/1 64/1/1 69/1/1
f 71/1/2 72/1/2 75/1/2
f 75/1/2 72/1/2 76/1/2
f 76/1/2 72/1/2 77/1/2
f 77/1/2 72/1/2 78/1/2
f 78/1/2 72/1/2 79/1/2
f 79/1/2 72/1/2 80/1/2
f 73/1/2 74/1/2 81/1/2
f 81/1/2 74/1/2 82/1/2
f 83/1/2 84/1/2 87/1/2
f 87/1/2 84/1/2 88/1/2
f 88/1/2 84/1/2 89/1/2
f 89/1/2 84/1/2 90/1/2
f 85/1/2 86/1/2 91/1/2
f 91/1/2 86/1/2 92/1/2
f 93/1/2 94/1/2 95/1/2
f 95/1/2 94/1/2 96/1/2
f 97/1/2 98/1/2 99/1/2
f 99/1/2 98/1/2 100/1/2
f 101/4/2 102/4/2 103/4/2
f 103/4/2 102/4/2 104/4/2
f 105/4/2 106/4/2 107/4/2
f 107/4/2 106/4/2 108/4/2
f 109/4/2 110/4/2 111/4/2
f 111/4/2 110/4/2 112/4/2
f 113/4/2 114/4/2 115/4/2
f 115/4/2 114/4/2 116/4/2
f 117/4/2 118/4/2 119/4/2
f 119/4/2 118/4/2 120/4/2
f 121/1/2 122/1/2 124/1/2
f 124/1/2 122/1/2 125/1/2
f 123/1/2 124/1/2 127/1/2
f 125/1/2 126/1/2 127/1/2
f 124/1/2 125/1/2 127/1/2
f 127/1/2 126/1/2 128/1/2
f 128/1/2 126/1/2 129/1/2
f 129/1/2 126/1/2 130/1/2
f 128/1/2 129/1/2 131/1/2
f 131/1/2 129/1/2 132/1/2
f 133/4/2 134/4/2 135/4/2
f 135/4/2 134/4/2 136/4/2
f 137/4/2 138/4/2 139/4/2
f 139/4/2 138/4/2 140/4/2
f 144/4/3 142/4/3 141/4/3
f 145/4/3 142/4/3 144/4/3
f 148/4/3 144/4/3 143/4/3
f 149/3/3 145/3/3 144/3/3
f 149/4/3 144/4/3 148/4/3
f 150/3/3 145/3/3 149/3/3
f 151/3/3 145/3/3 150/3/3
f 152/4/3 146/4/3 145/4/3
f 152/3/3 145/3/3 151/3/3
f 153/4/3 146/4/3 152/4/3
f 156/4/3 148/4/3 147/4/3
f 157/3/3 149/3/3 148/3/3
f 157/3/3 150/3/3 149/3/3
f 157/4/3 148/4/3 156/4/3
f 158/3/3 150/3/3 157/3/3
f 159/4/3 151/4/3 150/4/3
f 159/3/3 150/3/3 158/3/3
f 160/3/3 152/3/3 151/3/3
f 160/4/3 151/4/3 159/4/3
f 160/3/3 153/3/3 152/3/3
f 161/3/3 153/3/3 160/3/3
f 162/4/3 154/4/3 153/4/3
f 162/3/3 153/3/3 161/3/3
f 163/4/3 154/4/3 162/4/3
f 165/3/3 158/3/3 157/3/3
f 165/3/3 157/3/3 156/3/3
f 166/4/3 159/4/3 158/4/3
f 166/3/3 158/3/3 165/3/3
f 167/3/3 160/3/3 159/3/3
f 167/4/3 159/4/3 166/4/3
f 168/3/3 160/3/3 167/3/3
f 169/3/3 160/3/3 168/3/3
f 170/4/3 161/4/3 160/4/3
f 170/3/3 160/3/3 169/3/3
f 171/3/3 163/3/3 162/3/3
f 171/4/3 161/4/3 170/4/3
f 171/3/3 162/3/3 161/3/3
f 172/3/3 163/3/3 171/3/3
f 173/3/3 168/3/3 167/3/3
f 173/3/3 167/3/3 166/3/3
f 174/2/3 169/2/3 168/2/3
f 174/3/3 168/3/3 173/3/3
f 175/3/3 170/3/3 169/3/3
f 175/2/3 169/2/3 174/2/3
f 175/3/3 171/3/3 170/3/3
f 176/3/3 171/3/3 175/3/3
f 177/3/3 173/3/3 166/3/3
f 177/2/3 174/2/3 173/2/3
f 177/2/3 176/2/3 175/2/3
f 177/2/3 175/2/3 174/2/3
f 178/2/3 176/2/3 177/2/3
f 179/2/3 176/2/3 178/2/3
f 180/3/3 171/3/3 176/3/3
f 180/2/3 176/2/3 179/2/3
f 181/3/3 165/3/3 156/3/3
f 181/4/3 166/4/3 165/4/3
f 182/3/3 177/3/3 166/3/3
f 182/4/3 166/4/3 181/4/3
f 182/3/3 178/3/3 177/3/3
f 183/3/3 178/3/3 182/3/3
f 184/2/3 179/2/3 178/2/3
f 184/3/3 178/3/3 183/3/3
f 185/3/3 180/3/3 179/3/3
f 185/2/3 179/2/3 184/2/3
f 186/3/3 171/3/3 180/3/3
f 186/3/3 180/3/3 185/3/3
f 187/4/3 172/4/3 171/4/3
f 187/3/3 171/3/3 186/3/3
f 188/3/3 163/3/3 172/3/3
f 188/4/3 172/4/3 187/4/3
f 189/4/3 156/4/3 155/4/3
f 190/3/3 181/3/3 156/3/3
f 190/4/3 156/4/3 189/4/3
f 190/3/3 182/3/3 181/3/3
f 191/3/3 182/3/3 190/3/3
f 192/4/3 183/4/3 182/4/3
f 192/3/3 182/3/3 191/3/3
f 193/3/3 185/3/3 184/3/3
f 193/4/3 183/4/3 192/4/3
f 193/3/3 186/3/3 185/3/3
f 193/3/3 184/3/3 183/3/3
f 194/4/3 187/4/3 186/4/3
f 194/3/3 186/3/3 193/3/3
f 195/3/3 188/3/3 187/3/3
f 195/4/3 187/4/3 194/4/3
f 196/3/3 163/3/3 188/3/3
f 196/3/3 188/3/3 195/3/3
f 197/4/3 164/4/3 163/4/3
f 197/3/3 163/3/3 196/3/3
f 198/4/3 164/4/3 197/4/3
f 199/4/3 191/4/3 190/4/3
f 200/3/3 192/3/3 191/3/3
f 200/4/3 191/4/3 199/4/3
f 200/3/3 193/3/3 192/3/3
f 201/3/3 193/3/3 200/3/3
f 202/4/3 194/4/3 193/4/3
f 202/3/3 193/3/3 201/3/3
f 203/3/3 196/3/3 195/3/3
f 203/4/3 194/4/3 202/4/3
f 203/3/3 195/3/3 194/3/3
f 204/3/3 196/3/3 203/3/3
f 205/4/3 197/4/3 196/4/3
f 205/3/3 196/3/3 204/3/3
f 206/4/3 197/4/3 205/4/3
f 207/4/3 201/4/3 200/4/3
f 208/3/3 202/3/3 201/3/3
f 208/4/3 201/4/3 207/4/3
f 208/3/3 204/3/3 203/3/3
f 208/3/3 203/3/3 202/3/3
f 209/4/3 205/4/3 204/4/3
f 209/3/3 204/3/3 208/3/3
f 210/4/3 205/4/3 209/4/3
f 211/4/3 209/4/3 208/4/3
f 212/4/3 209/4/3 211/4/3
f 215/1/3 214/1/3 213/1/3
f 216/1/3 214/1/3 215/1/3
f 222/1/3 218/1/3 217/1/3
f 223/1/3 220/1/3 219/1/3
f 225/1/3 222/1/3 221/1/3
f 226/1/3 218/1/3 222/1/3
f 226/1/3 222/1/3 225/1/3
f 227/1/3 224/1/3 223/1/3
f 227/1/3 223/1/3 219/1/3
f 228/1/3 224/1/3 227/1/3
f 233/1/3 230/1/3 229/1/3
f 234/1/3 230/1/3 233/1/3
f 235/1/3 232/1/3 231/1/3
f 236/1/3 232/1/3 235/1/3
f 237/1/3 230/1/3 234/1/3
f 238/1/3 230/1/3 237/1/3
f 239/1/3 235/1/3 231/1/3
f 240/1/3 235/1/3 239/1/3
f 241/4/4 242/4/4 244/4/4
f 244/4/4 242/4/4 245/4/4
f 245/4/4 242/4/4 246/4/4
f 246/4/4 242/4/4 247/4/4
f 243/4/4 244/4/4 250/4/4
f 244/3/4 245/3/4 251/3/4
f 250/4/4 244/4/4 251/4/4
f 251/3/4 245/3/4 252/3/4
f 252/3/4 245/3/4 253/3/4
f 246/3/4 247/3/4 254/3/4
f 254/3/4 247/3/4 255/3/4
f 247/4/4 248/4/4 256/4/4
f 255/3/4 247/3/4 256/3/4
f 256/4/4 248/4/4 257/4/4
f 249/4/4 250/4/4 260/4/4
f 250/3/4 251/3/4 261/3/4
f 251/3/4 252/3/4 261/3/4
f 260/4/4 250/4/4 261/4/4
f 261/3/4 252/3/4 262/3/4
f 252/4/4 253/4/4 263/4/4
f 262/3/4 252/3/4 263/3/4
f 263/4/4 253/4/4 264/4/4
f 254/4/4 255/4/4 265/4/4
f 255/3/4 256/3/4 266/3/4
f 265/4/4 255/4/4 266/4/4
f 256/3/4 257/3/4 266/3/4
f 266/3/4 257/3/4 267/3/4
f 257/4/4 258/4/4 268/4/4
f 267/3/4 257/3/4 268/3/4
f 268/4/4 258/4/4 269/4/4
f 261/3/4 262/3/4 271/3/4
f 260/3/4 261/3/4 271/3/4
f 262/4/4 263/4/4 272/4/4
f 271/3/4 262/3/4 272/3/4
f 263/3/4 264/3/4 273/3/4
f 272/4/4 263/4/4 273/4/4
f 266/4/4 267/4/4 274/4/4
f 265/3/4 266/3/4 274/3/4
f 268/3/4 269/3/4 275/3/4
f 274/4/4 267/4/4 275/4/4
f 267/3/4 268/3/4 275/3/4
f 275/3/4 269/3/4 276/3/4
f 259/4/4 260/4/4 277/4/4
f 260/3/4 271/3/4 278/3/4
f 277/4/4 260/4/4 278/4/4
f 271/4/4 272/4/4 279/4/4
f 278/3/4 271/3/4 279/3/4
f 272/3/4 273/3/4 280/3/4
f 279/4/4 272/4/4 280/4/4
f 273/3/4 264/3/4 281/3/4
f 280/3/4 273/3/4 281/3/4
f 265/3/4 274/3/4 282/3/4
f 274/3/4 275/3/4 282/3/4
f 275/4/4 276/4/4 283/4/4
f 282/3/4 275/3/4 283/3/4
f 276/3/4 269/3/4 284/3/4
f 283/4/4 276/4/4 284/4/4
f 269/4/4 270/4/4 285/4/4
f 284/3/4 269/3/4 285/3/4
f 285/4/4 270/4/4 294/4/4
f 287/3/4 288/3/4 295/3/4
f 288/4/4 289/4/4 295/4/4
f 289/3/4 290/3/4 296/3/4
f 295/4/4 289/4/4 296/4/4
f 296/3/4 290/3/4 297/3/4
f 291/3/4 292/3/4 298/3/4
f 292/4/4 293/4/4 299/4/4
f 298/3/4 292/3/4 299/3/4
f 293/3/4 294/3/4 300/3/4
f 299/4/4 293/4/4 300/4/4
f 286/4/4 287/4/4 301/4/4
f 287/3/4 295/3/4 302/3/4
f 301/4/4 287/4/4 302/4/4
f 295/3/4 296/3/4 302/3/4
f 302/3/4 296/3/4 303/3/4
f 296/4/4 297/4/4 304/4/4
f 303/3/4 296/3/4 304/3/4
f 297/3/4 290/3/4 305/3/4
f 304/4/4 297/4/4 305/4/4
f 305/3/4 290/3/4 306/3/4
f 291/3/4 298/3/4 307/3/4
f 298/4/4 299/4/4 308/4/4
f 307/3/4 298/3/4 308/3/4
f 299/3/4 300/3/4 309/3/4
f 308/4/4 299/4/4 309/4/4
f 300/3/4 294/3/4 310/3/4
f 309/3/4 300/3/4 310/3/4
f 294/4/4 270/4/4 311/4/4
f 310/3/4 294/3/4 311/3/4
f 311/4/4 270/4/4 312/4/4
f 302/4/4 303/4/4 313/4/4
f 303/3/4 304/3/4 314/3/4
f 313/4/4 303/4/4 314/4/4
f 304/3/4 305/3/4 314/3/4
f 314/3/4 305/3/4 315/3/4
f 305/4/4 306/4/4 316/4/4
f 315/3/4 305/3/4 316/3/4
f 316/4/4 306/4/4 317/4/4
f 307/4/4 308/4/4 318/4/4
f 308/3/4 309/3/4 319/3/4
f 318/4/4 308/4/4 319/4/4
f 309/3/4 310/3/4 319/3/4
f 319/3/4 310/3/4 320/3/4
f 310/4/4 311/4/4 321/4/4
f 320/3/4 310/3/4 321/3/4
f 321/4/4 311/4/4 322/4/4
f 314/4/4 315/4/4 323/4/4
f 315/3/4 316/3/4 324/3/4
f 323/4/4 315/4/4 324/4/4
f 316/3/4 317/3/4 324/3/4
f 324/3/4 317/3/4 325/3/4
f 318/3/4 319/3/4 326/3/4
f 319/3/4 320/3/4 326/3/4
f 320/4/4 321/4/4 327/4/4
f 326/3/4 320/3/4 327/3/4
f 327/4/4 321/4/4 328/4/4
f 324/4/4 325/4/4 329/4/4
f 326/4/4 327/4/4 329/4/4
f 325/4/4 326/4/4 329/4/4
f 329/4/4 327/4/4 330/4/4
f 331/1/4 332/1/4 336/1/4
f 333/1/4 334/1/4 337/1/4
f 335/1/4 336/1/4 339/1/4
f 336/1/4 332/1/4 340/1/4
f 339/1/4 336/1/4 340/1/4
f 337/1/4 338/1/4 341/1/4
f 333/1/4 337/1/4 341/1/4
f 341/1/4 338/1/4 342/1/4
f 343/1/4 344/1/4 347/1/4
f 347/1/4 344/1/4 348/1/4
f 345/1/4 346/1/4 349/1/4
f 349/1/4 346/1/4 350/1/4
f 348/1/4 344/1/4 351/1/4
f 351/1/4 344/1/4 352/1/4
f 345/1/4 349/1/4 353/1/4
f 353/1/4 349/1/4 354/1/4
f 355/1/4 356/1/4 358/1/4
f 358/1/4 356/1/4 359/1/4
f 357/1/4 358/1/4 361/1/4
f 359/1/4 360/1/4 361/1/4
f 358/1/4 359/1/4 361/1/4
f 361/1/4 360/1/4 362/1/4
f 362/1/4 360/1/4 363/1/4
f 363/1/4 360/1/4 364/1/4
f 362/1/4 363/1/4 365/1/4
f 365/1/4 363/1/4 366/1/4
f 370/1/5 368/1/5 367/1/5
f 371/1/5 368/1/5 370/1/5
f 373/1/5 370/1/5 369/1/5
f 373/1/5 372/1/5 371/1/5
f 373/1/5 371/1/5 370/1/5
f 374/1/5 372/1/5 373/1/5
f 375/1/5 372/1/5 374/1/5
f 376/1/5 372/1/5 375/1/5
f 377/1/5 375/1/5 374/1/5
f 378/1/5 375/1/5 377/1/5
f 381/4/5 380/4/5 379/4/5
f 382/4/5 380/4/5 381/4/5
f 383/4/5 380/4/5 382/4/5
f 384/4/5 380/4/5 383/4/5
f 389/4/5 386/4/5 385/4/5
f 390/4/5 386/4/5 389/4/5
f 391/4/5 388/4/5 387/4/5
f 392/4/5 388/4/5 391/4/5
f 397/4/5 394/4/5 393/4/5
f 398/4/5 394/4/5 397/4/5
f 399/4/5 396/4/5 395/4/5
f 400/4/5 396/4/5 399/4/5
f 405/4/5 402/4/5 401/4/5
f 406/4/5 402/4/5 405/4/5
f 407/4/5 404/4/5 403/4/5
f 408/4/5 404/4/5 407/4/5
f 413/1/5 410/1/5 409/1/5
f 414/1/5 410/1/5 413/1/5
f 415/1/5 412/1/5 411/1/5
f 416/1/5 412/1/5 415/1/5
f 425/1/5 418/1/5 417/1/5
f 425/1/5 419/1/5 418/1/5
f 425/1/5 420/1/5 419/1/5
f 426/1/5 420/1/5 425/1/5
f 427/1/5 424/1/5 423/1/5
f 427/1/5 423/1/5 422/1/5
f 427/1/5 422/1/5 421/1/5
f 428/1/5 424/1/5 427/1/5
f 433/1/5 430/1/5 429/1/5
f 434/1/5 430/1/5 433/1/5
f 435/1/5 432/1/5 431/1/5
f 436/1/5 432/1/5 435/1/5
f 437/1/6 438/1/6 445/1/6
f 438/1/6 439/1/6 445/1/6
f 439/1/6 440/1/6 445/1/6
f 445/1/6 440/1/6 446/1/6
f 443/1/6 444/1/6 447/1/6
f 442/1/6 443/1/6 447/1/6
f 441/1/6 442/1/6 447/1/6
f 447/1/6 444/1/6 448/1/6
f 449/1/6 450/1/6 453/1/6
f 453/1/6 450/1/6 454/1/6
f 451/1/6 452/1/6 455/1/6
f 455/1/6 452/1/6 456/1/6
f 457/1/6 458/1/6 461/1/6
f 461/1/6 458/1/6 462/1/6
f 459/1/6 460/1/6 463/1/6
f 463/1/6 460/1/6 464/1/6
f 465/4/6 466/4/6 469/4/6
f 469/4/6 466/4/6 470/4/6
f 467/4/6 468/4/6 471/4/6
f 471/4/6 468/4/6 472/4/6
f 473/4/6 474/4/6 477/4/6
f 477/4/6 474/4/6 478/4/6
f 475/4/6 476/4/6 479/4/6
f 479/4/6 476/4/6 480/4/6
f 481/4/6 482/4/6 485/4/6
f 485/4/6 482/4/6 486/4/6
f 483/4/6 484/4/6 489/4/6
f 489/4/6 484/4/6 490/4/6
f 487/1/6 488/1/6 492/1/6
f 492/1/6 488/1/6 493/1/6
f 491/1/6 492/1/6 495/1/6
f 493/1/6 494/1/6 495/1/6
f 492/1/6 493/1/6 495/1/6
f 495/1/6 494/1/6 496/1/6
f 496/1/6 494/1/6 497/1/6
f 497/1/6 494/1/6 498/1/6
f 496/1/6 497/1/6 499/1/6
f 499/1/6 497/1/6 500/1/6
f 501/4/6 502/4/6 503/4/6
f 503/4/6 502/4/6 504/4/6
