# MagicaVoxel @ Ephtracy

# group
o 

# material
mtllib alpaca brown.mtl
usemtl palette

# normals
vn -1 0 0
vn 1 0 0
vn 0 0 1
vn 0 0 -1
vn 0 -1 0
vn 0 1 0

# texcoords
vt 0.00585938 0.5
vt 0.0371094 0.5
vt 0.0566406 0.5
vt 0.232422 0.5
vt 0.958984 0.5
vt 0.966797 0.5
vt 0.974609 0.5
vt 0.994141 0.5

# verts
v -0.7 0.6 1
v -0.7 0.6 0.5
v -0.7 0.6 -0.7
v -0.7 0.6 -1.2
v -0.7 1 0.5
v -0.7 1 -0.7
v -0.7 2.4 1
v -0.7 2.4 -1.2
v -0.6 0 1
v -0.6 0 0.6
v -0.6 0 -0.7
v -0.6 0 -1.1
v -0.6 0.1 1
v -0.6 0.1 0.9
v -0.6 0.1 0.6
v -0.6 0.1 -0.7
v -0.6 0.1 -0.8
v -0.6 0.1 -1.1
v -0.6 0.6 0.9
v -0.6 0.6 0.6
v -0.6 0.6 -0.8
v -0.6 0.6 -1.1
v -0.4 3.5 1.5
v -0.4 3.5 1.2
v -0.4 3.6 1.4
v -0.4 3.6 1.3
v -0.4 3.7 1.4
v -0.4 3.7 1.3
v -0.4 3.8 1.5
v -0.4 3.8 1.2
v -0.3 1.3 1.5
v -0.3 1.3 1
v -0.3 2.4 1
v -0.3 3.5 1.5
v -0.3 3.5 1.2
v -0.3 3.8 1.5
v -0.3 3.8 1.2
v -0.3 3.9 1.5
v -0.3 3.9 1.2
v -0.3 4.4 1.2
v -0.3 4.4 1
v -0.2 1.8 -1.2
v -0.2 1.8 -1.5
v -0.2 2.4 -0.9
v -0.2 2.4 -1.2
v -0.2 2.7 -0.9
v -0.2 2.7 -1.5
v -0.2 3.4 1.7
v -0.2 3.4 1.5
v -0.2 3.5 1.7
v -0.2 3.5 1.6
v -0.2 3.6 1.8
v -0.2 3.6 1.6
v -0.2 3.7 1.8
v -0.2 3.7 1.7
v -0.2 3.8 1.8
v -0.2 3.8 1.7
v -0.2 3.8 1.5
v -0.1 3.5 1.7
v -0.1 3.5 1.6
v -0.1 3.6 1.7
v -0.1 3.6 1.6
v 0.1 3.9 1.2
v 0.1 3.9 1
v 0.1 4.4 1.2
v 0.1 4.4 1
v 0.2 0.6 1
v 0.2 0.6 0.5
v 0.2 0.6 -0.7
v 0.2 0.6 -1.2
v 0.2 1 1
v 0.2 1 0.5
v 0.2 1 -0.7
v 0.2 1 -1.2
v 0.3 0 1
v 0.3 0 0.6
v 0.3 0 -0.7
v 0.3 0 -1.1
v 0.3 0.1 1
v 0.3 0.1 0.9
v 0.3 0.1 0.6
v 0.3 0.1 -0.7
v 0.3 0.1 -0.8
v 0.3 0.1 -1.1
v 0.3 0.6 0.9
v 0.3 0.6 0.6
v 0.3 0.6 -0.8
v 0.3 0.6 -1.1
v -0.3 0 1
v -0.3 0 0.6
v -0.3 0 -0.7
v -0.3 0 -1.1
v -0.3 0.1 1
v -0.3 0.1 0.9
v -0.3 0.1 0.6
v -0.3 0.1 -0.7
v -0.3 0.1 -0.8
v -0.3 0.1 -1.1
v -0.3 0.6 0.9
v -0.3 0.6 0.6
v -0.3 0.6 -0.8
v -0.3 0.6 -1.1
v -0.2 0.6 1
v -0.2 0.6 0.5
v -0.2 0.6 -0.7
v -0.2 0.6 -1.2
v -0.2 1 1
v -0.2 1 0.5
v -0.2 1 -0.7
v -0.2 1 -1.2
v -0.1 3.9 1.2
v -0.1 3.9 1
v -0.1 4.4 1.2
v -0.1 4.4 1
v 0.1 3.5 1.7
v 0.1 3.5 1.6
v 0.1 3.6 1.7
v 0.1 3.6 1.6
v 0.2 1.8 -1.2
v 0.2 1.8 -1.5
v 0.2 2.4 -0.9
v 0.2 2.4 -1.2
v 0.2 2.7 -0.9
v 0.2 2.7 -1.5
v 0.2 3.4 1.7
v 0.2 3.4 1.5
v 0.2 3.5 1.7
v 0.2 3.5 1.6
v 0.2 3.6 1.8
v 0.2 3.6 1.6
v 0.2 3.7 1.8
v 0.2 3.7 1.7
v 0.2 3.8 1.8
v 0.2 3.8 1.7
v 0.2 3.8 1.5
v 0.3 1.3 1.5
v 0.3 1.3 1
v 0.3 2.4 1
v 0.3 3.5 1.5
v 0.3 3.5 1.2
v 0.3 3.8 1.5
v 0.3 3.8 1.2
v 0.3 3.9 1.5
v 0.3 3.9 1.2
v 0.3 4.4 1.2
v 0.3 4.4 1
v 0.4 3.5 1.5
v 0.4 3.5 1.2
v 0.4 3.6 1.4
v 0.4 3.6 1.3
v 0.4 3.7 1.4
v 0.4 3.7 1.3
v 0.4 3.8 1.5
v 0.4 3.8 1.2
v 0.6 0 1
v 0.6 0 0.6
v 0.6 0 -0.7
v 0.6 0 -1.1
v 0.6 0.1 1
v 0.6 0.1 0.9
v 0.6 0.1 0.6
v 0.6 0.1 -0.7
v 0.6 0.1 -0.8
v 0.6 0.1 -1.1
v 0.6 0.6 0.9
v 0.6 0.6 0.6
v 0.6 0.6 -0.8
v 0.6 0.6 -1.1
v 0.7 0.6 1
v 0.7 0.6 0.5
v 0.7 0.6 -0.7
v 0.7 0.6 -1.2
v 0.7 1 0.5
v 0.7 1 -0.7
v 0.7 2.4 1
v 0.7 2.4 -1.2
v -0.2 3.6 1.8
v -0.2 3.7 1.8
v -0.2 3.8 1.8
v -0.1 3.6 1.8
v -0.1 3.7 1.8
v 0.1 3.6 1.8
v 0.1 3.7 1.8
v 0.2 3.6 1.8
v 0.2 3.7 1.8
v 0.2 3.8 1.8
v -0.2 3.4 1.7
v -0.2 3.5 1.7
v -0.1 3.4 1.7
v -0.1 3.5 1.7
v -0.1 3.6 1.7
v 0.1 3.4 1.7
v 0.1 3.5 1.7
v 0.1 3.6 1.7
v 0.2 3.4 1.7
v 0.2 3.5 1.7
v -0.2 3.5 1.6
v -0.2 3.6 1.6
v -0.1 3.5 1.6
v -0.1 3.6 1.6
v 0.1 3.5 1.6
v 0.1 3.6 1.6
v 0.2 3.5 1.6
v 0.2 3.6 1.6
v -0.4 3.5 1.5
v -0.4 3.8 1.5
v -0.3 1.3 1.5
v -0.3 3.5 1.5
v -0.3 3.8 1.5
v -0.3 3.9 1.5
v -0.2 3.4 1.5
v -0.2 3.8 1.5
v 0.2 3.4 1.5
v 0.2 3.8 1.5
v 0.3 1.3 1.5
v 0.3 3.5 1.5
v 0.3 3.8 1.5
v 0.3 3.9 1.5
v 0.4 3.5 1.5
v 0.4 3.8 1.5
v -0.3 3.9 1.2
v -0.3 4.4 1.2
v -0.1 3.9 1.2
v -0.1 4.4 1.2
v 0.1 3.9 1.2
v 0.1 4.4 1.2
v 0.3 3.9 1.2
v 0.3 4.4 1.2
v -0.7 0.6 1
v -0.7 2.4 1
v -0.6 0 1
v -0.6 0.1 1
v -0.3 0 1
v -0.3 0.1 1
v -0.3 1.3 1
v -0.3 2.4 1
v -0.2 0.6 1
v -0.2 1 1
v 0.2 0.6 1
v 0.2 1 1
v 0.3 0 1
v 0.3 0.1 1
v 0.3 1.3 1
v 0.3 2.4 1
v 0.6 0 1
v 0.6 0.1 1
v 0.7 0.6 1
v 0.7 2.4 1
v -0.6 0.1 0.9
v -0.6 0.6 0.9
v -0.3 0.1 0.9
v -0.3 0.6 0.9
v 0.3 0.1 0.9
v 0.3 0.6 0.9
v 0.6 0.1 0.9
v 0.6 0.6 0.9
v -0.7 0.6 -0.7
v -0.7 1 -0.7
v -0.6 0 -0.7
v -0.6 0.1 -0.7
v -0.3 0 -0.7
v -0.3 0.1 -0.7
v -0.2 0.6 -0.7
v -0.2 1 -0.7
v 0.2 0.6 -0.7
v 0.2 1 -0.7
v 0.3 0 -0.7
v 0.3 0.1 -0.7
v 0.6 0 -0.7
v 0.6 0.1 -0.7
v 0.7 0.6 -0.7
v 0.7 1 -0.7
v -0.6 0.1 -0.8
v -0.6 0.6 -0.8
v -0.3 0.1 -0.8
v -0.3 0.6 -0.8
v 0.3 0.1 -0.8
v 0.3 0.6 -0.8
v 0.6 0.1 -0.8
v 0.6 0.6 -0.8
v -0.2 2.4 -0.9
v -0.2 2.7 -0.9
v 0.2 2.4 -0.9
v 0.2 2.7 -0.9
v -0.4 3.5 1.2
v -0.4 3.8 1.2
v -0.3 3.5 1.2
v -0.3 3.8 1.2
v 0.3 3.5 1.2
v 0.3 3.8 1.2
v 0.4 3.5 1.2
v 0.4 3.8 1.2
v -0.3 2.4 1
v -0.3 4.4 1
v -0.1 3.9 1
v -0.1 4.4 1
v 0.1 3.9 1
v 0.1 4.4 1
v 0.3 2.4 1
v 0.3 4.4 1
v -0.6 0 0.6
v -0.6 0.1 0.6
v -0.6 0.6 0.6
v -0.3 0 0.6
v -0.3 0.1 0.6
v -0.3 0.6 0.6
v 0.3 0 0.6
v 0.3 0.1 0.6
v 0.3 0.6 0.6
v 0.6 0 0.6
v 0.6 0.1 0.6
v 0.6 0.6 0.6
v -0.7 0.6 0.5
v -0.7 1 0.5
v -0.2 0.6 0.5
v -0.2 1 0.5
v 0.2 0.6 0.5
v 0.2 1 0.5
v 0.7 0.6 0.5
v 0.7 1 0.5
v -0.6 0 -1.1
v -0.6 0.1 -1.1
v -0.6 0.6 -1.1
v -0.3 0 -1.1
v -0.3 0.1 -1.1
v -0.3 0.6 -1.1
v 0.3 0 -1.1
v 0.3 0.1 -1.1
v 0.3 0.6 -1.1
v 0.6 0 -1.1
v 0.6 0.1 -1.1
v 0.6 0.6 -1.1
v -0.7 0.6 -1.2
v -0.7 2.4 -1.2
v -0.2 0.6 -1.2
v -0.2 1 -1.2
v -0.2 1.8 -1.2
v -0.2 2.4 -1.2
v 0.2 0.6 -1.2
v 0.2 1 -1.2
v 0.2 1.8 -1.2
v 0.2 2.4 -1.2
v 0.7 0.6 -1.2
v 0.7 2.4 -1.2
v -0.2 1.8 -1.5
v -0.2 2.7 -1.5
v 0.2 1.8 -1.5
v 0.2 2.7 -1.5
v -0.6 0 1
v -0.3 0 1
v 0.3 0 1
v 0.6 0 1
v -0.6 0 0.6
v -0.3 0 0.6
v 0.3 0 0.6
v 0.6 0 0.6
v -0.6 0 -0.7
v -0.3 0 -0.7
v 0.3 0 -0.7
v 0.6 0 -0.7
v -0.6 0 -1.1
v -0.3 0 -1.1
v 0.3 0 -1.1
v 0.6 0 -1.1
v -0.7 0.6 1
v -0.2 0.6 1
v 0.2 0.6 1
v 0.7 0.6 1
v -0.6 0.6 0.9
v -0.3 0.6 0.9
v 0.3 0.6 0.9
v 0.6 0.6 0.9
v -0.6 0.6 0.6
v -0.3 0.6 0.6
v 0.3 0.6 0.6
v 0.6 0.6 0.6
v -0.7 0.6 0.5
v -0.2 0.6 0.5
v 0.2 0.6 0.5
v 0.7 0.6 0.5
v -0.7 0.6 -0.7
v -0.2 0.6 -0.7
v 0.2 0.6 -0.7
v 0.7 0.6 -0.7
v -0.6 0.6 -0.8
v -0.3 0.6 -0.8
v 0.3 0.6 -0.8
v 0.6 0.6 -0.8
v -0.6 0.6 -1.1
v -0.3 0.6 -1.1
v 0.3 0.6 -1.1
v 0.6 0.6 -1.1
v -0.7 0.6 -1.2
v -0.2 0.6 -1.2
v 0.2 0.6 -1.2
v 0.7 0.6 -1.2
v -0.2 1 1
v 0.2 1 1
v -0.7 1 0.5
v -0.2 1 0.5
v 0.2 1 0.5
v 0.7 1 0.5
v -0.7 1 -0.7
v -0.2 1 -0.7
v 0.2 1 -0.7
v 0.7 1 -0.7
v -0.2 1 -1.2
v 0.2 1 -1.2
v -0.3 1.3 1.5
v 0.3 1.3 1.5
v -0.3 1.3 1
v 0.3 1.3 1
v -0.2 1.8 -1.2
v 0.2 1.8 -1.2
v -0.2 1.8 -1.5
v 0.2 1.8 -1.5
v -0.2 3.4 1.7
v -0.1 3.4 1.7
v 0.1 3.4 1.7
v 0.2 3.4 1.7
v -0.1 3.4 1.6
v 0.1 3.4 1.6
v -0.2 3.4 1.5
v 0.2 3.4 1.5
v -0.4 3.5 1.5
v -0.3 3.5 1.5
v 0.3 3.5 1.5
v 0.4 3.5 1.5
v -0.4 3.5 1.2
v -0.3 3.5 1.2
v 0.3 3.5 1.2
v 0.4 3.5 1.2
v -0.2 3.6 1.8
v -0.1 3.6 1.8
v 0.1 3.6 1.8
v 0.2 3.6 1.8
v -0.1 3.6 1.7
v 0.1 3.6 1.7
v -0.2 3.6 1.6
v -0.1 3.6 1.6
v 0.1 3.6 1.6
v 0.2 3.6 1.6
v -0.6 0.1 1
v -0.3 0.1 1
v 0.3 0.1 1
v 0.6 0.1 1
v -0.6 0.1 0.9
v -0.3 0.1 0.9
v 0.3 0.1 0.9
v 0.6 0.1 0.9
v -0.6 0.1 -0.7
v -0.3 0.1 -0.7
v 0.3 0.1 -0.7
v 0.6 0.1 -0.7
v -0.6 0.1 -0.8
v -0.3 0.1 -0.8
v 0.3 0.1 -0.8
v 0.6 0.1 -0.8
v -0.7 2.4 1
v -0.3 2.4 1
v 0.3 2.4 1
v 0.7 2.4 1
v -0.2 2.4 -0.9
v 0.2 2.4 -0.9
v -0.7 2.4 -1.2
v -0.2 2.4 -1.2
v 0.2 2.4 -1.2
v 0.7 2.4 -1.2
v -0.2 2.7 -0.9
v 0.2 2.7 -0.9
v -0.2 2.7 -1.5
v 0.2 2.7 -1.5
v -0.2 3.5 1.7
v -0.1 3.5 1.7
v 0.1 3.5 1.7
v 0.2 3.5 1.7
v -0.2 3.5 1.6
v -0.1 3.5 1.6
v 0.1 3.5 1.6
v 0.2 3.5 1.6
v -0.2 3.8 1.8
v 0.2 3.8 1.8
v -0.2 3.8 1.7
v 0.2 3.8 1.7
v -0.4 3.8 1.5
v -0.3 3.8 1.5
v -0.2 3.8 1.5
v 0.2 3.8 1.5
v 0.3 3.8 1.5
v 0.4 3.8 1.5
v -0.4 3.8 1.2
v -0.3 3.8 1.2
v 0.3 3.8 1.2
v 0.4 3.8 1.2
v -0.3 3.9 1.5
v 0.3 3.9 1.5
v -0.3 3.9 1.2
v -0.1 3.9 1.2
v 0.1 3.9 1.2
v 0.3 3.9 1.2
v -0.1 3.9 1
v 0.1 3.9 1
v -0.3 4.4 1.2
v -0.1 4.4 1.2
v 0.1 4.4 1.2
v 0.3 4.4 1.2
v -0.3 4.4 1
v -0.1 4.4 1
v 0.1 4.4 1
v 0.3 4.4 1

# faces
f 5/4/1 2/4/1 1/4/1
f 6/4/1 4/4/1 3/4/1
f 7/4/1 5/4/1 1/4/1
f 7/4/1 6/4/1 5/4/1
f 8/4/1 4/4/1 6/4/1
f 8/4/1 6/4/1 7/4/1
f 13/6/1 10/6/1 9/6/1
f 14/6/1 10/6/1 13/6/1
f 15/6/1 10/6/1 14/6/1
f 16/6/1 12/6/1 11/6/1
f 17/6/1 12/6/1 16/6/1
f 18/6/1 12/6/1 17/6/1
f 19/5/1 15/5/1 14/5/1
f 20/5/1 15/5/1 19/5/1
f 21/5/1 18/5/1 17/5/1
f 22/5/1 18/5/1 21/5/1
f 25/5/1 24/5/1 23/5/1
f 26/5/1 24/5/1 25/5/1
f 27/5/1 25/5/1 23/5/1
f 27/8/1 26/8/1 25/8/1
f 28/5/1 24/5/1 26/5/1
f 28/8/1 26/8/1 27/8/1
f 29/5/1 27/5/1 23/5/1
f 29/5/1 28/5/1 27/5/1
f 30/5/1 24/5/1 28/5/1
f 30/5/1 28/5/1 29/5/1
f 33/4/1 32/4/1 31/4/1
f 34/4/1 33/4/1 31/4/1
f 35/4/1 33/4/1 34/4/1
f 37/4/1 33/4/1 35/4/1
f 38/4/1 37/4/1 36/4/1
f 39/4/1 33/4/1 37/4/1
f 39/4/1 37/4/1 38/4/1
f 40/4/1 33/4/1 39/4/1
f 41/4/1 33/4/1 40/4/1
f 45/4/1 43/4/1 42/4/1
f 46/4/1 45/4/1 44/4/1
f 47/4/1 43/4/1 45/4/1
f 47/4/1 45/4/1 46/4/1
f 50/1/1 49/1/1 48/1/1
f 51/1/1 49/1/1 50/1/1
f 53/1/1 49/1/1 51/1/1
f 54/1/1 53/1/1 52/1/1
f 55/1/1 53/1/1 54/1/1
f 56/7/1 55/7/1 54/7/1
f 57/1/1 53/1/1 55/1/1
f 57/7/1 55/7/1 56/7/1
f 58/1/1 49/1/1 53/1/1
f 58/1/1 53/1/1 57/1/1
f 61/3/1 60/3/1 59/3/1
f 62/3/1 60/3/1 61/3/1
f 65/4/1 64/4/1 63/4/1
f 66/4/1 64/4/1 65/4/1
f 71/4/1 68/4/1 67/4/1
f 72/4/1 68/4/1 71/4/1
f 73/4/1 70/4/1 69/4/1
f 74/4/1 70/4/1 73/4/1
f 79/6/1 76/6/1 75/6/1
f 80/6/1 76/6/1 79/6/1
f 81/6/1 76/6/1 80/6/1
f 82/6/1 78/6/1 77/6/1
f 83/6/1 78/6/1 82/6/1
f 84/6/1 78/6/1 83/6/1
f 85/5/1 81/5/1 80/5/1
f 86/5/1 81/5/1 85/5/1
f 87/5/1 84/5/1 83/5/1
f 88/5/1 84/5/1 87/5/1
f 89/6/2 90/6/2 93/6/2
f 93/6/2 90/6/2 94/6/2
f 94/6/2 90/6/2 95/6/2
f 91/6/2 92/6/2 96/6/2
f 96/6/2 92/6/2 97/6/2
f 97/6/2 92/6/2 98/6/2
f 94/5/2 95/5/2 99/5/2
f 99/5/2 95/5/2 100/5/2
f 97/5/2 98/5/2 101/5/2
f 101/5/2 98/5/2 102/5/2
f 103/4/2 104/4/2 107/4/2
f 107/4/2 104/4/2 108/4/2
f 105/4/2 106/4/2 109/4/2
f 109/4/2 106/4/2 110/4/2
f 111/4/2 112/4/2 113/4/2
f 113/4/2 112/4/2 114/4/2
f 115/3/2 116/3/2 117/3/2
f 117/3/2 116/3/2 118/3/2
f 119/4/2 120/4/2 122/4/2
f 121/4/2 122/4/2 123/4/2
f 122/4/2 120/4/2 124/4/2
f 123/4/2 122/4/2 124/4/2
f 125/1/2 126/1/2 127/1/2
f 127/1/2 126/1/2 128/1/2
f 128/1/2 126/1/2 130/1/2
f 129/1/2 130/1/2 131/1/2
f 131/1/2 130/1/2 132/1/2
f 131/7/2 132/7/2 133/7/2
f 132/1/2 130/1/2 134/1/2
f 133/7/2 132/7/2 134/7/2
f 130/1/2 126/1/2 135/1/2
f 134/1/2 130/1/2 135/1/2
f 136/4/2 137/4/2 138/4/2
f 136/4/2 138/4/2 139/4/2
f 139/4/2 138/4/2 140/4/2
f 140/4/2 138/4/2 142/4/2
f 141/4/2 142/4/2 143/4/2
f 142/4/2 138/4/2 144/4/2
f 143/4/2 142/4/2 144/4/2
f 144/4/2 138/4/2 145/4/2
f 145/4/2 138/4/2 146/4/2
f 147/5/2 148/5/2 149/5/2
f 149/5/2 148/5/2 150/5/2
f 147/5/2 149/5/2 151/5/2
f 149/8/2 150/8/2 151/8/2
f 150/5/2 148/5/2 152/5/2
f 151/8/2 150/8/2 152/8/2
f 147/5/2 151/5/2 153/5/2
f 151/5/2 152/5/2 153/5/2
f 152/5/2 148/5/2 154/5/2
f 153/5/2 152/5/2 154/5/2
f 155/6/2 156/6/2 159/6/2
f 159/6/2 156/6/2 160/6/2
f 160/6/2 156/6/2 161/6/2
f 157/6/2 158/6/2 162/6/2
f 162/6/2 158/6/2 163/6/2
f 163/6/2 158/6/2 164/6/2
f 160/5/2 161/5/2 165/5/2
f 165/5/2 161/5/2 166/5/2
f 163/5/2 164/5/2 167/5/2
f 167/5/2 164/5/2 168/5/2
f 169/4/2 170/4/2 173/4/2
f 171/4/2 172/4/2 174/4/2
f 169/4/2 173/4/2 175/4/2
f 173/4/2 174/4/2 175/4/2
f 174/4/2 172/4/2 176/4/2
f 175/4/2 174/4/2 176/4/2
f 180/1/3 178/1/3 177/1/3
f 181/7/3 179/7/3 178/7/3
f 181/1/3 178/1/3 180/1/3
f 182/7/3 181/7/3 180/7/3
f 183/7/3 179/7/3 181/7/3
f 183/7/3 181/7/3 182/7/3
f 184/1/3 183/1/3 182/1/3
f 185/7/3 179/7/3 183/7/3
f 185/1/3 183/1/3 184/1/3
f 186/7/3 179/7/3 185/7/3
f 189/1/3 188/1/3 187/1/3
f 190/1/3 188/1/3 189/1/3
f 192/3/3 190/3/3 189/3/3
f 192/3/3 191/3/3 190/3/3
f 193/3/3 191/3/3 192/3/3
f 194/3/3 191/3/3 193/3/3
f 195/1/3 193/1/3 192/1/3
f 196/1/3 193/1/3 195/1/3
f 199/1/3 198/1/3 197/1/3
f 200/1/3 198/1/3 199/1/3
f 203/1/3 202/1/3 201/1/3
f 204/1/3 202/1/3 203/1/3
f 208/5/3 206/5/3 205/5/3
f 209/5/3 206/5/3 208/5/3
f 211/4/3 208/4/3 207/4/3
f 211/4/3 210/4/3 209/4/3
f 211/4/3 209/4/3 208/4/3
f 212/4/3 210/4/3 211/4/3
f 213/4/3 211/4/3 207/4/3
f 214/4/3 210/4/3 212/4/3
f 215/4/3 213/4/3 207/4/3
f 215/4/3 214/4/3 213/4/3
f 216/4/3 214/4/3 215/4/3
f 217/4/3 210/4/3 214/4/3
f 217/4/3 214/4/3 216/4/3
f 218/4/3 210/4/3 217/4/3
f 219/5/3 217/5/3 216/5/3
f 220/5/3 217/5/3 219/5/3
f 223/4/3 222/4/3 221/4/3
f 224/4/3 222/4/3 223/4/3
f 227/4/3 226/4/3 225/4/3
f 228/4/3 226/4/3 227/4/3
f 233/6/3 232/6/3 231/6/3
f 234/6/3 232/6/3 233/6/3
f 235/4/3 230/4/3 229/4/3
f 236/4/3 230/4/3 235/4/3
f 237/4/3 235/4/3 229/4/3
f 238/4/3 235/4/3 237/4/3
f 240/4/3 235/4/3 238/4/3
f 243/4/3 235/4/3 240/4/3
f 243/4/3 240/4/3 239/4/3
f 245/6/3 242/6/3 241/6/3
f 246/6/3 242/6/3 245/6/3
f 247/4/3 244/4/3 243/4/3
f 247/4/3 243/4/3 239/4/3
f 248/4/3 244/4/3 247/4/3
f 251/5/3 250/5/3 249/5/3
f 252/5/3 250/5/3 251/5/3
f 255/5/3 254/5/3 253/5/3
f 256/5/3 254/5/3 255/5/3
f 261/6/3 260/6/3 259/6/3
f 262/6/3 260/6/3 261/6/3
f 263/4/3 258/4/3 257/4/3
f 264/4/3 258/4/3 263/4/3
f 269/6/3 268/6/3 267/6/3
f 270/6/3 268/6/3 269/6/3
f 271/4/3 266/4/3 265/4/3
f 272/4/3 266/4/3 271/4/3
f 275/5/3 274/5/3 273/5/3
f 276/5/3 274/5/3 275/5/3
f 279/5/3 278/5/3 277/5/3
f 280/5/3 278/5/3 279/5/3
f 283/4/3 282/4/3 281/4/3
f 284/4/3 282/4/3 283/4/3
f 285/5/4 286/5/4 287/5/4
f 287/5/4 286/5/4 288/5/4
f 289/5/4 290/5/4 291/5/4
f 291/5/4 290/5/4 292/5/4
f 293/4/4 294/4/4 295/4/4
f 295/4/4 294/4/4 296/4/4
f 293/4/4 295/4/4 297/4/4
f 293/4/4 297/4/4 299/4/4
f 297/4/4 298/4/4 299/4/4
f 299/4/4 298/4/4 300/4/4
f 301/6/4 302/6/4 304/6/4
f 302/5/4 303/5/4 305/5/4
f 304/6/4 302/6/4 305/6/4
f 305/5/4 303/5/4 306/5/4
f 307/6/4 308/6/4 310/6/4
f 308/5/4 309/5/4 311/5/4
f 310/6/4 308/6/4 311/6/4
f 311/5/4 309/5/4 312/5/4
f 313/4/4 314/4/4 315/4/4
f 315/4/4 314/4/4 316/4/4
f 317/4/4 318/4/4 319/4/4
f 319/4/4 318/4/4 320/4/4
f 321/6/4 322/6/4 324/6/4
f 322/5/4 323/5/4 325/5/4
f 324/6/4 322/6/4 325/6/4
f 325/5/4 323/5/4 326/5/4
f 327/6/4 328/6/4 330/6/4
f 328/5/4 329/5/4 331/5/4
f 330/6/4 328/6/4 331/6/4
f 331/5/4 329/5/4 332/5/4
f 333/4/4 334/4/4 335/4/4
f 335/4/4 334/4/4 336/4/4
f 336/4/4 334/4/4 337/4/4
f 337/4/4 334/4/4 338/4/4
f 336/4/4 337/4/4 340/4/4
f 340/4/4 337/4/4 341/4/4
f 339/4/4 340/4/4 343/4/4
f 341/4/4 342/4/4 343/4/4
f 340/4/4 341/4/4 343/4/4
f 343/4/4 342/4/4 344/4/4
f 345/4/4 346/4/4 347/4/4
f 347/4/4 346/4/4 348/4/4
f 353/6/5 350/6/5 349/6/5
f 354/6/5 350/6/5 353/6/5
f 355/6/5 352/6/5 351/6/5
f 356/6/5 352/6/5 355/6/5
f 361/6/5 358/6/5 357/6/5
f 362/6/5 358/6/5 361/6/5
f 363/6/5 360/6/5 359/6/5
f 364/6/5 360/6/5 363/6/5
f 369/4/5 366/4/5 365/4/5
f 370/4/5 366/4/5 369/4/5
f 371/4/5 368/4/5 367/4/5
f 372/4/5 368/4/5 371/4/5
f 373/4/5 369/4/5 365/4/5
f 374/4/5 366/4/5 370/4/5
f 375/4/5 371/4/5 367/4/5
f 376/4/5 368/4/5 372/4/5
f 377/4/5 373/4/5 365/4/5
f 377/4/5 374/4/5 373/4/5
f 378/4/5 366/4/5 374/4/5
f 378/4/5 374/4/5 377/4/5
f 379/4/5 376/4/5 375/4/5
f 379/4/5 375/4/5 367/4/5
f 380/4/5 368/4/5 376/4/5
f 380/4/5 376/4/5 379/4/5
f 385/4/5 382/4/5 381/4/5
f 386/4/5 382/4/5 385/4/5
f 387/4/5 384/4/5 383/4/5
f 388/4/5 384/4/5 387/4/5
f 389/4/5 385/4/5 381/4/5
f 390/4/5 382/4/5 386/4/5
f 391/4/5 387/4/5 383/4/5
f 392/4/5 384/4/5 388/4/5
f 393/4/5 389/4/5 381/4/5
f 393/4/5 390/4/5 389/4/5
f 394/4/5 382/4/5 390/4/5
f 394/4/5 390/4/5 393/4/5
f 395/4/5 392/4/5 391/4/5
f 395/4/5 391/4/5 383/4/5
f 396/4/5 384/4/5 392/4/5
f 396/4/5 392/4/5 395/4/5
f 400/4/5 398/4/5 397/4/5
f 401/4/5 398/4/5 400/4/5
f 403/4/5 400/4/5 399/4/5
f 403/4/5 402/4/5 401/4/5
f 403/4/5 401/4/5 400/4/5
f 404/4/5 402/4/5 403/4/5
f 405/4/5 402/4/5 404/4/5
f 406/4/5 402/4/5 405/4/5
f 407/4/5 405/4/5 404/4/5
f 408/4/5 405/4/5 407/4/5
f 411/4/5 410/4/5 409/4/5
f 412/4/5 410/4/5 411/4/5
f 415/4/5 414/4/5 413/4/5
f 416/4/5 414/4/5 415/4/5
f 421/1/5 418/1/5 417/1/5
f 421/3/5 419/3/5 418/3/5
f 422/1/5 420/1/5 419/1/5
f 422/3/5 419/3/5 421/3/5
f 423/1/5 421/1/5 417/1/5
f 423/1/5 422/1/5 421/1/5
f 424/1/5 420/1/5 422/1/5
f 424/1/5 422/1/5 423/1/5
f 429/5/5 426/5/5 425/5/5
f 430/5/5 426/5/5 429/5/5
f 431/5/5 428/5/5 427/5/5
f 432/5/5 428/5/5 431/5/5
f 437/1/5 434/1/5 433/1/5
f 437/7/5 435/7/5 434/7/5
f 438/1/5 436/1/5 435/1/5
f 438/7/5 435/7/5 437/7/5
f 439/1/5 437/1/5 433/1/5
f 440/1/5 437/1/5 439/1/5
f 441/1/5 436/1/5 438/1/5
f 442/1/5 436/1/5 441/1/5
f 443/6/6 444/6/6 447/6/6
f 447/6/6 444/6/6 448/6/6
f 445/6/6 446/6/6 449/6/6
f 449/6/6 446/6/6 450/6/6
f 451/6/6 452/6/6 455/6/6
f 455/6/6 452/6/6 456/6/6
f 453/6/6 454/6/6 457/6/6
f 457/6/6 454/6/6 458/6/6
f 459/4/6 460/4/6 463/4/6
f 461/4/6 462/4/6 463/4/6
f 460/4/6 461/4/6 463/4/6
f 463/4/6 462/4/6 464/4/6
f 459/4/6 463/4/6 465/4/6
f 465/4/6 463/4/6 466/4/6
f 464/4/6 462/4/6 467/4/6
f 467/4/6 462/4/6 468/4/6
f 469/4/6 470/4/6 471/4/6
f 471/4/6 470/4/6 472/4/6
f 473/1/6 474/1/6 477/1/6
f 477/1/6 474/1/6 478/1/6
f 475/1/6 476/1/6 479/1/6
f 479/1/6 476/1/6 480/1/6
f 481/7/6 482/7/6 483/7/6
f 483/7/6 482/7/6 484/7/6
f 483/1/6 484/1/6 487/1/6
f 487/1/6 484/1/6 488/1/6
f 485/5/6 486/5/6 491/5/6
f 491/5/6 486/5/6 492/5/6
f 489/5/6 490/5/6 493/5/6
f 493/5/6 490/5/6 494/5/6
f 495/4/6 496/4/6 497/4/6
f 497/4/6 496/4/6 498/4/6
f 498/4/6 496/4/6 499/4/6
f 499/4/6 496/4/6 500/4/6
f 498/4/6 499/4/6 501/4/6
f 501/4/6 499/4/6 502/4/6
f 503/4/6 504/4/6 507/4/6
f 507/4/6 504/4/6 508/4/6
f 505/4/6 506/4/6 509/4/6
f 509/4/6 506/4/6 510/4/6
