# MagicaVoxel @ Ephtracy

# group
o 

# material
mtllib frog.mtl
usemtl palette

# normals
vn -1 0 0
vn 1 0 0
vn 0 0 1
vn 0 0 -1
vn 0 -1 0
vn 0 1 0

# texcoords
vt 0.0214844 0.5
vt 0.373047 0.5
vt 0.576172 0.5
vt 0.736328 0.5
vt 0.759766 0.5
vt 0.845703 0.5
vt 0.880859 0.5
vt 0.958984 0.5

# verts
v -0.7 0 -0.6
v -0.7 0 -0.8
v -0.7 0.1 -0.6
v -0.7 0.1 -0.8
v -0.6 0.1 -0.5
v -0.6 0.1 -0.6
v -0.6 0.1 -0.8
v -0.6 0.1 -0.9
v -0.6 0.4 -0.6
v -0.6 0.4 -0.7
v -0.6 0.6 -0.6
v -0.6 0.6 -0.7
v -0.6 0.7 -0.5
v -0.6 0.7 -0.9
v -0.5 0.2 0.2
v -0.5 0.2 -0.5
v -0.5 0.3 -5.96046e-008
v -0.5 0.3 -0.2
v -0.5 0.4 -5.96046e-008
v -0.5 0.4 -0.1
v -0.5 0.4 -0.2
v -0.5 0.4 -0.3
v -0.5 0.5 -0.1
v -0.5 0.5 -0.3
v -0.5 0.6 0.2
v -0.5 0.6 0.0999999
v -0.5 0.7 -0.5
v -0.5 0.7 -0.8
v -0.5 0.8 -0.6
v -0.5 0.8 -0.8
v -0.5 0.9 -5.96046e-008
v -0.5 0.9 -0.3
v -0.5 0.9 -0.5
v -0.5 0.9 -0.6
v -0.5 1 -0.2
v -0.5 1 -0.3
v -0.5 1 -0.5
v -0.5 1 -0.8
v -0.5 1.1 -5.96046e-008
v -0.5 1.1 -0.2
v -0.5 1.2 0.0999999
v -0.5 1.2 -0.8
v -0.4 0 0.0999999
v -0.4 0 -0.1
v -0.4 0.1 0.0999999
v -0.4 0.1 -0.1
v -0.4 0.2 0.0999999
v -0.4 0.2 -0.1
v -0.4 1.1 0.2
v -0.4 1.1 0.0999999
v -0.4 1.2 0.0999999
v -0.4 1.2 -5.96046e-008
v -0.4 1.4 0.2
v -0.4 1.4 -5.96046e-008
v -0.3 0.7 0.2
v -0.3 0.7 0.0999999
v -0.3 1 0.2
v -0.3 1 0.0999999
v 0.1 0 0.0999999
v 0.1 0 -0.1
v 0.1 0.1 0.0999999
v 0.1 0.1 -0.1
v 0.1 1.1 0.2
v 0.1 1.1 0.0999999
v 0.1 1.2 0.0999999
v 0.1 1.2 -5.96046e-008
v 0.1 1.4 0.2
v 0.1 1.4 -5.96046e-008
v 0.2 0.1 0.0999999
v 0.2 0.1 -0.1
v 0.2 0.1 -0.5
v 0.2 0.1 -0.9
v 0.2 0.2 0.0999999
v 0.2 0.2 -0.1
v 0.2 0.2 -0.5
v 0.2 0.2 -0.6
v 0.2 0.2 -0.9
v 0.2 0.8 0.2
v 0.2 0.8 0.0999999
v 0.2 0.9 0.2
v 0.2 0.9 0.0999999
v 0.3 0 -0.6
v 0.3 0 -0.8
v 0.3 0.1 -0.6
v 0.3 0.1 -0.8
v -0.3 0 -0.6
v -0.3 0 -0.8
v -0.3 0.1 -0.6
v -0.3 0.1 -0.8
v -0.2 0.1 0.0999999
v -0.2 0.1 -0.1
v -0.2 0.1 -0.5
v -0.2 0.1 -0.9
v -0.2 0.2 0.0999999
v -0.2 0.2 -0.1
v -0.2 0.2 -0.5
v -0.2 0.2 -0.6
v -0.2 0.2 -0.9
v -0.2 0.8 0.2
v -0.2 0.8 0.0999999
v -0.2 0.9 0.2
v -0.2 0.9 0.0999999
v -0.1 0 0.0999999
v -0.1 0 -0.1
v -0.1 0.1 0.0999999
v -0.1 0.1 -0.1
v -0.1 1.1 0.2
v -0.1 1.1 0.0999999
v -0.1 1.2 0.0999999
v -0.1 1.2 -5.96046e-008
v -0.1 1.4 0.2
v -0.1 1.4 -5.96046e-008
v 0.3 0.7 0.2
v 0.3 0.7 0.0999999
v 0.3 1 0.2
v 0.3 1 0.0999999
v 0.4 0 0.0999999
v 0.4 0 -0.1
v 0.4 0.1 0.0999999
v 0.4 0.1 -0.1
v 0.4 0.2 0.0999999
v 0.4 0.2 -0.1
v 0.4 1.1 0.2
v 0.4 1.1 0.0999999
v 0.4 1.2 0.0999999
v 0.4 1.2 -5.96046e-008
v 0.4 1.4 0.2
v 0.4 1.4 -5.96046e-008
v 0.5 0.2 0.2
v 0.5 0.2 -0.5
v 0.5 0.4 -0.1
v 0.5 0.4 -0.4
v 0.5 0.5 -0.1
v 0.5 0.5 -0.4
v 0.5 0.6 0.2
v 0.5 0.6 0.0999999
v 0.5 0.7 -0.5
v 0.5 0.7 -0.8
v 0.5 0.8 -0.6
v 0.5 0.8 -0.8
v 0.5 0.9 -5.96046e-008
v 0.5 0.9 -0.3
v 0.5 0.9 -0.5
v 0.5 0.9 -0.6
v 0.5 1 -0.2
v 0.5 1 -0.3
v 0.5 1 -0.5
v 0.5 1 -0.8
v 0.5 1.1 -5.96046e-008
v 0.5 1.1 -0.2
v 0.5 1.2 0.0999999
v 0.5 1.2 -0.8
v 0.6 0.1 -0.5
v 0.6 0.1 -0.6
v 0.6 0.1 -0.8
v 0.6 0.1 -0.9
v 0.6 0.3 -0.7
v 0.6 0.3 -0.8
v 0.6 0.4 -0.7
v 0.6 0.4 -0.8
v 0.6 0.7 -0.5
v 0.6 0.7 -0.9
v 0.7 0 -0.6
v 0.7 0 -0.8
v 0.7 0.1 -0.6
v 0.7 0.1 -0.8
v -0.5 0.2 0.2
v -0.5 0.6 0.2
v -0.4 1.1 0.2
v -0.4 1.4 0.2
v -0.3 0.2 0.2
v -0.3 0.6 0.2
v -0.3 0.7 0.2
v -0.3 1 0.2
v -0.3 1.2 0.2
v -0.3 1.3 0.2
v -0.2 0.8 0.2
v -0.2 0.9 0.2
v -0.2 1.2 0.2
v -0.2 1.3 0.2
v -0.1 1.1 0.2
v -0.1 1.4 0.2
v 0.1 1.1 0.2
v 0.1 1.4 0.2
v 0.2 0.8 0.2
v 0.2 0.9 0.2
v 0.2 1.2 0.2
v 0.2 1.3 0.2
v 0.3 0.2 0.2
v 0.3 0.6 0.2
v 0.3 0.7 0.2
v 0.3 1 0.2
v 0.3 1.2 0.2
v 0.3 1.3 0.2
v 0.4 1.1 0.2
v 0.4 1.4 0.2
v 0.5 0.2 0.2
v 0.5 0.6 0.2
v -0.5 0.6 0.0999999
v -0.5 1.2 0.0999999
v -0.4 0 0.0999999
v -0.4 0.1 0.0999999
v -0.4 0.2 0.0999999
v -0.4 1.1 0.0999999
v -0.4 1.2 0.0999999
v -0.3 0.2 0.0999999
v -0.3 0.6 0.0999999
v -0.3 0.7 0.0999999
v -0.3 1 0.0999999
v -0.2 0.1 0.0999999
v -0.2 0.2 0.0999999
v -0.2 0.8 0.0999999
v -0.2 0.9 0.0999999
v -0.1 0 0.0999999
v -0.1 0.1 0.0999999
v -0.1 1.1 0.0999999
v -0.1 1.2 0.0999999
v 0.1 0 0.0999999
v 0.1 0.1 0.0999999
v 0.1 1.1 0.0999999
v 0.1 1.2 0.0999999
v 0.2 0.1 0.0999999
v 0.2 0.2 0.0999999
v 0.2 0.8 0.0999999
v 0.2 0.9 0.0999999
v 0.3 0.2 0.0999999
v 0.3 0.6 0.0999999
v 0.3 0.7 0.0999999
v 0.3 1 0.0999999
v 0.4 0 0.0999999
v 0.4 0.1 0.0999999
v 0.4 0.2 0.0999999
v 0.4 1.1 0.0999999
v 0.4 1.2 0.0999999
v 0.5 0.6 0.0999999
v 0.5 1.2 0.0999999
v -0.6 0.1 -0.5
v -0.6 0.7 -0.5
v -0.5 0.2 -0.5
v -0.5 0.7 -0.5
v -0.3 0.2 -0.5
v -0.2 0.1 -0.5
v -0.2 0.2 -0.5
v 0.2 0.1 -0.5
v 0.2 0.2 -0.5
v 0.3 0.2 -0.5
v 0.5 0.2 -0.5
v 0.5 0.7 -0.5
v 0.6 0.1 -0.5
v 0.6 0.7 -0.5
v -0.7 0 -0.6
v -0.7 0.1 -0.6
v -0.6 0.1 -0.6
v -0.3 0 -0.6
v -0.3 0.1 -0.6
v 0.3 0 -0.6
v 0.3 0.1 -0.6
v 0.6 0.1 -0.6
v 0.7 0 -0.6
v 0.7 0.1 -0.6
v -0.4 1.2 -5.96046e-008
v -0.4 1.4 -5.96046e-008
v -0.1 1.2 -5.96046e-008
v -0.1 1.4 -5.96046e-008
v 0.1 1.2 -5.96046e-008
v 0.1 1.4 -5.96046e-008
v 0.4 1.2 -5.96046e-008
v 0.4 1.4 -5.96046e-008
v -0.4 0 -0.1
v -0.4 0.1 -0.1
v -0.4 0.2 -0.1
v -0.3 0.2 -0.1
v -0.2 0.1 -0.1
v -0.2 0.2 -0.1
v -0.1 0 -0.1
v -0.1 0.1 -0.1
v 0.1 0 -0.1
v 0.1 0.1 -0.1
v 0.2 0.1 -0.1
v 0.2 0.2 -0.1
v 0.3 0.2 -0.1
v 0.4 0 -0.1
v 0.4 0.1 -0.1
v 0.4 0.2 -0.1
v -0.7 0 -0.8
v -0.7 0.1 -0.8
v -0.6 0.1 -0.8
v -0.5 0.7 -0.8
v -0.5 0.8 -0.8
v -0.5 1 -0.8
v -0.5 1.2 -0.8
v -0.4 0.8 -0.8
v -0.4 1 -0.8
v -0.3 0 -0.8
v -0.3 0.1 -0.8
v -0.1 0.9 -0.8
v -0.1 1.1 -0.8
v 5.96046e-008 1 -0.8
v 5.96046e-008 1.1 -0.8
v 0.1 0.9 -0.8
v 0.1 1 -0.8
v 0.3 0 -0.8
v 0.3 0.1 -0.8
v 0.4 0.8 -0.8
v 0.4 1 -0.8
v 0.5 0.7 -0.8
v 0.5 0.8 -0.8
v 0.5 1 -0.8
v 0.5 1.2 -0.8
v 0.6 0.1 -0.8
v 0.7 0 -0.8
v 0.7 0.1 -0.8
v -0.6 0.1 -0.9
v -0.6 0.7 -0.9
v -0.5 0.2 -0.9
v -0.5 0.4 -0.9
v -0.4 0.2 -0.9
v -0.4 0.4 -0.9
v -0.2 0.1 -0.9
v -0.2 0.2 -0.9
v -0.1 0.4 -0.9
v -0.1 0.5 -0.9
v 5.96046e-008 0.5 -0.9
v 5.96046e-008 0.6 -0.9
v 0.1 0.4 -0.9
v 0.1 0.5 -0.9
v 0.2 0.1 -0.9
v 0.2 0.2 -0.9
v 0.2 0.3 -0.9
v 0.2 0.5 -0.9
v 0.2 0.6 -0.9
v 0.3 0.3 -0.9
v 0.3 0.4 -0.9
v 0.4 0.2 -0.9
v 0.4 0.4 -0.9
v 0.6 0.1 -0.9
v 0.6 0.7 -0.9
v -0.4 0 0.0999999
v -0.1 0 0.0999999
v 0.1 0 0.0999999
v 0.4 0 0.0999999
v -0.4 0 -0.1
v -0.1 0 -0.1
v 0.1 0 -0.1
v 0.4 0 -0.1
v -0.7 0 -0.6
v -0.3 0 -0.6
v 0.3 0 -0.6
v 0.7 0 -0.6
v -0.7 0 -0.8
v -0.3 0 -0.8
v 0.3 0 -0.8
v 0.7 0 -0.8
v -0.6 0.1 -0.5
v -0.2 0.1 -0.5
v 0.2 0.1 -0.5
v 0.6 0.1 -0.5
v -0.6 0.1 -0.6
v -0.3 0.1 -0.6
v 0.3 0.1 -0.6
v 0.6 0.1 -0.6
v -0.6 0.1 -0.8
v -0.3 0.1 -0.8
v 0.3 0.1 -0.8
v 0.6 0.1 -0.8
v -0.6 0.1 -0.9
v -0.2 0.1 -0.9
v 0.2 0.1 -0.9
v 0.6 0.1 -0.9
v -0.5 0.2 0.2
v -0.3 0.2 0.2
v 0.3 0.2 0.2
v 0.5 0.2 0.2
v -0.4 0.2 0.0999999
v -0.3 0.2 0.0999999
v -0.2 0.2 0.0999999
v 0.2 0.2 0.0999999
v 0.3 0.2 0.0999999
v 0.4 0.2 0.0999999
v -0.4 0.2 -0.1
v -0.3 0.2 -0.1
v -0.2 0.2 -0.1
v 0.2 0.2 -0.1
v 0.3 0.2 -0.1
v 0.4 0.2 -0.1
v -0.5 0.2 -0.5
v -0.3 0.2 -0.5
v -0.2 0.2 -0.5
v 0.2 0.2 -0.5
v 0.3 0.2 -0.5
v 0.5 0.2 -0.5
v -0.2 0.2 -0.6
v 0.2 0.2 -0.6
v -0.2 0.2 -0.9
v 0.2 0.2 -0.9
v -0.3 0.7 0.2
v 0.3 0.7 0.2
v -0.3 0.7 0.0999999
v 0.3 0.7 0.0999999
v -0.2 0.9 0.2
v 0.2 0.9 0.2
v -0.2 0.9 0.0999999
v 0.2 0.9 0.0999999
v -0.4 1.1 0.2
v -0.1 1.1 0.2
v 0.1 1.1 0.2
v 0.4 1.1 0.2
v -0.4 1.1 0.0999999
v -0.1 1.1 0.0999999
v 0.1 1.1 0.0999999
v 0.4 1.1 0.0999999
v -0.2 0.1 0.0999999
v -0.1 0.1 0.0999999
v 0.1 0.1 0.0999999
v 0.2 0.1 0.0999999
v -0.2 0.1 -0.1
v -0.1 0.1 -0.1
v 0.1 0.1 -0.1
v 0.2 0.1 -0.1
v -0.7 0.1 -0.6
v -0.6 0.1 -0.6
v 0.6 0.1 -0.6
v 0.7 0.1 -0.6
v -0.7 0.1 -0.8
v -0.6 0.1 -0.8
v 0.6 0.1 -0.8
v 0.7 0.1 -0.8
v -0.5 0.6 0.2
v -0.3 0.6 0.2
v 0.3 0.6 0.2
v 0.5 0.6 0.2
v -0.5 0.6 0.0999999
v -0.3 0.6 0.0999999
v 0.3 0.6 0.0999999
v 0.5 0.6 0.0999999
v -0.6 0.7 -0.5
v -0.5 0.7 -0.5
v 0.5 0.7 -0.5
v 0.6 0.7 -0.5
v -0.5 0.7 -0.8
v 0.5 0.7 -0.8
v -0.6 0.7 -0.9
v 0.6 0.7 -0.9
v -0.2 0.8 0.2
v 0.2 0.8 0.2
v -0.2 0.8 0.0999999
v 0.2 0.8 0.0999999
v -0.3 1 0.2
v 0.3 1 0.2
v -0.3 1 0.0999999
v 0.3 1 0.0999999
v -0.5 1.2 0.0999999
v -0.4 1.2 0.0999999
v -0.1 1.2 0.0999999
v 0.1 1.2 0.0999999
v 0.4 1.2 0.0999999
v 0.5 1.2 0.0999999
v -0.4 1.2 -5.96046e-008
v -0.1 1.2 -5.96046e-008
v 0.1 1.2 -5.96046e-008
v 0.4 1.2 -5.96046e-008
v -0.2 1.2 -0.1
v 0.1 1.2 -0.1
v -0.2 1.2 -0.2
v 0.1 1.2 -0.2
v -0.4 1.2 -0.4
v -0.3 1.2 -0.4
v -0.4 1.2 -0.5
v -0.3 1.2 -0.5
v 5.96046e-008 1.2 -0.5
v 0.2 1.2 -0.5
v 5.96046e-008 1.2 -0.7
v 0.2 1.2 -0.7
v -0.5 1.2 -0.8
v 0.5 1.2 -0.8
v -0.4 1.4 0.2
v -0.1 1.4 0.2
v 0.1 1.4 0.2
v 0.4 1.4 0.2
v -0.4 1.4 -5.96046e-008
v -0.1 1.4 -5.96046e-008
v 0.1 1.4 -5.96046e-008
v 0.4 1.4 -5.96046e-008

# faces
f 3/3/1 2/3/1 1/3/1
f 4/3/1 2/3/1 3/3/1
f 9/4/1 6/4/1 5/4/1
f 9/4/1 8/4/1 7/4/1
f 9/4/1 7/4/1 6/4/1
f 10/4/1 8/4/1 9/4/1
f 11/4/1 9/4/1 5/4/1
f 11/5/1 10/5/1 9/5/1
f 12/4/1 8/4/1 10/4/1
f 12/5/1 10/5/1 11/5/1
f 13/4/1 11/4/1 5/4/1
f 13/4/1 12/4/1 11/4/1
f 14/4/1 8/4/1 12/4/1
f 14/4/1 12/4/1 13/4/1
f 17/4/1 16/4/1 15/4/1
f 18/4/1 16/4/1 17/4/1
f 19/4/1 17/4/1 15/4/1
f 19/5/1 18/5/1 17/5/1
f 20/5/1 18/5/1 19/5/1
f 21/4/1 16/4/1 18/4/1
f 21/5/1 18/5/1 20/5/1
f 22/4/1 16/4/1 21/4/1
f 23/4/1 20/4/1 19/4/1
f 23/5/1 21/5/1 20/5/1
f 23/5/1 22/5/1 21/5/1
f 24/4/1 16/4/1 22/4/1
f 24/5/1 22/5/1 23/5/1
f 25/4/1 23/4/1 19/4/1
f 25/4/1 19/4/1 15/4/1
f 25/4/1 24/4/1 23/4/1
f 26/4/1 24/4/1 25/4/1
f 27/4/1 16/4/1 24/4/1
f 27/4/1 24/4/1 26/4/1
f 29/4/1 28/4/1 27/4/1
f 30/4/1 28/4/1 29/4/1
f 31/4/1 27/4/1 26/4/1
f 31/4/1 29/4/1 27/4/1
f 32/4/1 29/4/1 31/4/1
f 33/4/1 29/4/1 32/4/1
f 34/5/1 30/5/1 29/5/1
f 34/4/1 29/4/1 33/4/1
f 35/5/1 32/5/1 31/5/1
f 36/4/1 33/4/1 32/4/1
f 36/5/1 32/5/1 35/5/1
f 37/5/1 34/5/1 33/5/1
f 37/4/1 33/4/1 36/4/1
f 38/5/1 30/5/1 34/5/1
f 38/5/1 34/5/1 37/5/1
f 39/5/1 35/5/1 31/5/1
f 39/4/1 31/4/1 26/4/1
f 40/4/1 38/4/1 37/4/1
f 40/5/1 35/5/1 39/5/1
f 40/4/1 37/4/1 36/4/1
f 40/4/1 36/4/1 35/4/1
f 41/4/1 39/4/1 26/4/1
f 41/4/1 40/4/1 39/4/1
f 42/4/1 38/4/1 40/4/1
f 42/4/1 40/4/1 41/4/1
f 45/3/1 44/3/1 43/3/1
f 46/3/1 44/3/1 45/3/1
f 47/4/1 46/4/1 45/4/1
f 48/4/1 46/4/1 47/4/1
f 51/8/1 50/8/1 49/8/1
f 53/8/1 51/8/1 49/8/1
f 53/8/1 52/8/1 51/8/1
f 54/8/1 52/8/1 53/8/1
f 57/1/1 56/1/1 55/1/1
f 58/1/1 56/1/1 57/1/1
f 61/3/1 60/3/1 59/3/1
f 62/3/1 60/3/1 61/3/1
f 65/8/1 64/8/1 63/8/1
f 67/8/1 65/8/1 63/8/1
f 67/8/1 66/8/1 65/8/1
f 68/8/1 66/8/1 67/8/1
f 73/4/1 70/4/1 69/4/1
f 74/4/1 70/4/1 73/4/1
f 75/4/1 72/4/1 71/4/1
f 76/4/1 72/4/1 75/4/1
f 77/4/1 72/4/1 76/4/1
f 80/1/1 79/1/1 78/1/1
f 81/1/1 79/1/1 80/1/1
f 84/3/1 83/3/1 82/3/1
f 85/3/1 83/3/1 84/3/1
f 86/3/2 87/3/2 88/3/2
f 88/3/2 87/3/2 89/3/2
f 90/4/2 91/4/2 94/4/2
f 94/4/2 91/4/2 95/4/2
f 92/4/2 93/4/2 96/4/2
f 96/4/2 93/4/2 97/4/2
f 97/4/2 93/4/2 98/4/2
f 99/1/2 100/1/2 101/1/2
f 101/1/2 100/1/2 102/1/2
f 103/3/2 104/3/2 105/3/2
f 105/3/2 104/3/2 106/3/2
f 107/8/2 108/8/2 109/8/2
f 107/8/2 109/8/2 111/8/2
f 109/8/2 110/8/2 111/8/2
f 111/8/2 110/8/2 112/8/2
f 113/1/2 114/1/2 115/1/2
f 115/1/2 114/1/2 116/1/2
f 117/3/2 118/3/2 119/3/2
f 119/3/2 118/3/2 120/3/2
f 119/4/2 120/4/2 121/4/2
f 121/4/2 120/4/2 122/4/2
f 123/8/2 124/8/2 125/8/2
f 123/8/2 125/8/2 127/8/2
f 125/8/2 126/8/2 127/8/2
f 127/8/2 126/8/2 128/8/2
f 129/4/2 130/4/2 131/4/2
f 131/4/2 130/4/2 132/4/2
f 129/4/2 131/4/2 133/4/2
f 131/5/2 132/5/2 133/5/2
f 132/4/2 130/4/2 134/4/2
f 133/5/2 132/5/2 134/5/2
f 129/4/2 133/4/2 135/4/2
f 133/4/2 134/4/2 135/4/2
f 135/4/2 134/4/2 136/4/2
f 134/4/2 130/4/2 137/4/2
f 136/4/2 134/4/2 137/4/2
f 137/4/2 138/4/2 139/4/2
f 139/4/2 138/4/2 140/4/2
f 136/4/2 137/4/2 141/4/2
f 137/4/2 139/4/2 141/4/2
f 141/4/2 139/4/2 142/4/2
f 142/4/2 139/4/2 143/4/2
f 139/5/2 140/5/2 144/5/2
f 143/4/2 139/4/2 144/4/2
f 141/5/2 142/5/2 145/5/2
f 142/4/2 143/4/2 146/4/2
f 145/5/2 142/5/2 146/5/2
f 143/5/2 144/5/2 147/5/2
f 146/4/2 143/4/2 147/4/2
f 144/5/2 140/5/2 148/5/2
f 147/5/2 144/5/2 148/5/2
f 141/5/2 145/5/2 149/5/2
f 136/4/2 141/4/2 149/4/2
f 147/4/2 148/4/2 150/4/2
f 149/5/2 145/5/2 150/5/2
f 146/4/2 147/4/2 150/4/2
f 145/4/2 146/4/2 150/4/2
f 136/4/2 149/4/2 151/4/2
f 149/4/2 150/4/2 151/4/2
f 150/4/2 148/4/2 152/4/2
f 151/4/2 150/4/2 152/4/2
f 153/4/2 154/4/2 157/4/2
f 155/4/2 156/4/2 157/4/2
f 154/4/2 155/4/2 157/4/2
f 157/4/2 156/4/2 158/4/2
f 153/4/2 157/4/2 159/4/2
f 157/5/2 158/5/2 159/5/2
f 158/4/2 156/4/2 160/4/2
f 159/5/2 158/5/2 160/5/2
f 153/4/2 159/4/2 161/4/2
f 159/4/2 160/4/2 161/4/2
f 160/4/2 156/4/2 162/4/2
f 161/4/2 160/4/2 162/4/2
f 163/3/2 164/3/2 165/3/2
f 165/3/2 164/3/2 166/3/2
f 171/4/3 168/4/3 167/4/3
f 172/4/3 168/4/3 171/4/3
f 175/8/3 170/8/3 169/8/3
f 176/8/3 170/8/3 175/8/3
f 177/1/3 174/1/3 173/1/3
f 178/1/3 174/1/3 177/1/3
f 179/8/3 175/8/3 169/8/3
f 179/2/3 176/2/3 175/2/3
f 180/8/3 170/8/3 176/8/3
f 180/2/3 176/2/3 179/2/3
f 181/8/3 179/8/3 169/8/3
f 181/8/3 180/8/3 179/8/3
f 182/8/3 170/8/3 180/8/3
f 182/8/3 180/8/3 181/8/3
f 185/1/3 177/1/3 173/1/3
f 186/1/3 174/1/3 178/1/3
f 187/8/3 184/8/3 183/8/3
f 188/8/3 184/8/3 187/8/3
f 189/3/3 172/3/3 171/3/3
f 190/3/3 172/3/3 189/3/3
f 191/1/3 185/1/3 173/1/3
f 191/1/3 186/1/3 185/1/3
f 192/1/3 174/1/3 186/1/3
f 192/1/3 186/1/3 191/1/3
f 193/8/3 187/8/3 183/8/3
f 193/2/3 188/2/3 187/2/3
f 194/8/3 184/8/3 188/8/3
f 194/2/3 188/2/3 193/2/3
f 195/8/3 193/8/3 183/8/3
f 195/8/3 194/8/3 193/8/3
f 196/8/3 184/8/3 194/8/3
f 196/8/3 194/8/3 195/8/3
f 197/4/3 190/4/3 189/4/3
f 198/4/3 190/4/3 197/4/3
f 204/4/3 200/4/3 199/4/3
f 205/4/3 200/4/3 204/4/3
f 206/4/3 203/4/3 202/4/3
f 207/4/3 204/4/3 199/4/3
f 208/4/3 204/4/3 207/4/3
f 209/4/3 204/4/3 208/4/3
f 210/3/3 202/3/3 201/3/3
f 210/4/3 206/4/3 202/4/3
f 211/4/3 206/4/3 210/4/3
f 214/3/3 210/3/3 201/3/3
f 215/3/3 210/3/3 214/3/3
f 216/4/3 204/4/3 209/4/3
f 220/4/3 217/4/3 216/4/3
f 220/4/3 216/4/3 209/4/3
f 221/4/3 217/4/3 220/4/3
f 222/3/3 219/3/3 218/3/3
f 224/6/3 213/6/3 212/6/3
f 225/6/3 213/6/3 224/6/3
f 226/4/3 223/4/3 222/4/3
f 227/3/3 208/3/3 207/3/3
f 228/3/3 208/3/3 227/3/3
f 229/4/3 220/4/3 209/4/3
f 230/3/3 222/3/3 218/3/3
f 231/4/3 226/4/3 222/4/3
f 231/3/3 222/3/3 230/3/3
f 232/4/3 226/4/3 231/4/3
f 233/4/3 228/4/3 227/4/3
f 233/4/3 229/4/3 228/4/3
f 233/4/3 220/4/3 229/4/3
f 235/4/3 234/4/3 233/4/3
f 235/4/3 233/4/3 227/4/3
f 236/4/3 234/4/3 235/4/3
f 239/4/3 238/4/3 237/4/3
f 240/4/3 238/4/3 239/4/3
f 241/4/3 239/4/3 237/4/3
f 242/4/3 241/4/3 237/4/3
f 243/4/3 241/4/3 242/4/3
f 246/4/3 245/4/3 244/4/3
f 247/4/3 246/4/3 244/4/3
f 249/4/3 247/4/3 244/4/3
f 249/4/3 248/4/3 247/4/3
f 250/4/3 248/4/3 249/4/3
f 253/3/3 252/3/3 251/3/3
f 254/3/3 253/3/3 251/3/3
f 255/3/3 253/3/3 254/3/3
f 258/3/3 257/3/3 256/3/3
f 259/3/3 258/3/3 256/3/3
f 260/3/3 258/3/3 259/3/3
f 261/8/4 262/8/4 263/8/4
f 263/8/4 262/8/4 264/8/4
f 265/8/4 266/8/4 267/8/4
f 267/8/4 266/8/4 268/8/4
f 270/4/4 271/4/4 272/4/4
f 269/3/4 270/3/4 273/3/4
f 270/4/4 272/4/4 273/4/4
f 273/4/4 272/4/4 274/4/4
f 269/3/4 273/3/4 275/3/4
f 275/3/4 273/3/4 276/3/4
f 277/3/4 278/3/4 279/3/4
f 279/4/4 280/4/4 281/4/4
f 277/3/4 279/3/4 282/3/4
f 279/4/4 281/4/4 283/4/4
f 282/3/4 279/3/4 283/3/4
f 283/4/4 281/4/4 284/4/4
f 285/3/4 286/3/4 287/3/4
f 288/4/4 289/4/4 292/4/4
f 289/5/4 290/5/4 292/5/4
f 290/4/4 291/4/4 293/4/4
f 292/5/4 290/5/4 293/5/4
f 285/3/4 287/3/4 294/3/4
f 294/3/4 287/3/4 295/3/4
f 292/4/4 293/4/4 296/4/4
f 293/4/4 291/4/4 297/4/4
f 296/4/4 293/4/4 297/4/4
f 296/5/4 297/5/4 298/5/4
f 297/4/4 291/4/4 299/4/4
f 298/5/4 297/5/4 299/5/4
f 292/4/4 296/4/4 300/4/4
f 296/5/4 298/5/4 300/5/4
f 298/4/4 299/4/4 301/4/4
f 300/5/4 298/5/4 301/5/4
f 288/4/4 292/4/4 304/4/4
f 292/4/4 300/4/4 304/4/4
f 300/4/4 301/4/4 304/4/4
f 301/4/4 299/4/4 305/4/4
f 304/4/4 301/4/4 305/4/4
f 288/4/4 304/4/4 306/4/4
f 304/5/4 305/5/4 307/5/4
f 306/4/4 304/4/4 307/4/4
f 305/4/4 299/4/4 308/4/4
f 307/5/4 305/5/4 308/5/4
f 299/4/4 291/4/4 309/4/4
f 308/4/4 299/4/4 309/4/4
f 302/3/4 303/3/4 310/3/4
f 302/3/4 310/3/4 311/3/4
f 311/3/4 310/3/4 312/3/4
f 313/4/4 314/4/4 315/4/4
f 315/4/4 314/4/4 316/4/4
f 313/4/4 315/4/4 317/4/4
f 315/5/4 316/5/4 317/5/4
f 316/4/4 314/4/4 318/4/4
f 317/5/4 316/5/4 318/5/4
f 313/4/4 317/4/4 319/4/4
f 317/4/4 318/4/4 319/4/4
f 319/4/4 318/4/4 320/4/4
f 318/4/4 314/4/4 321/4/4
f 320/4/4 318/4/4 321/4/4
f 321/4/4 314/4/4 322/4/4
f 321/5/4 322/5/4 323/5/4
f 322/4/4 314/4/4 323/4/4
f 323/4/4 314/4/4 324/4/4
f 320/4/4 321/4/4 325/4/4
f 321/5/4 323/5/4 325/5/4
f 323/5/4 324/5/4 325/5/4
f 325/5/4 324/5/4 326/5/4
f 320/4/4 325/4/4 328/4/4
f 325/4/4 326/4/4 328/4/4
f 328/4/4 326/4/4 329/4/4
f 326/5/4 324/5/4 330/5/4
f 329/4/4 326/4/4 330/4/4
f 324/4/4 314/4/4 331/4/4
f 330/5/4 324/5/4 331/5/4
f 329/4/4 330/4/4 332/4/4
f 328/5/4 329/5/4 332/5/4
f 330/4/4 331/4/4 332/4/4
f 332/4/4 331/4/4 333/4/4
f 327/4/4 328/4/4 334/4/4
f 328/5/4 332/5/4 334/5/4
f 332/5/4 333/5/4 334/5/4
f 333/4/4 331/4/4 335/4/4
f 334/5/4 333/5/4 335/5/4
f 327/4/4 334/4/4 336/4/4
f 334/4/4 335/4/4 336/4/4
f 331/4/4 314/4/4 337/4/4
f 336/4/4 335/4/4 337/4/4
f 335/4/4 331/4/4 337/4/4
f 342/3/5 339/3/5 338/3/5
f 343/3/5 339/3/5 342/3/5
f 344/3/5 341/3/5 340/3/5
f 345/3/5 341/3/5 344/3/5
f 350/3/5 347/3/5 346/3/5
f 351/3/5 347/3/5 350/3/5
f 352/3/5 349/3/5 348/3/5
f 353/3/5 349/3/5 352/3/5
f 358/4/5 355/4/5 354/4/5
f 359/4/5 355/4/5 358/4/5
f 360/4/5 357/4/5 356/4/5
f 361/4/5 357/4/5 360/4/5
f 363/4/5 355/4/5 359/4/5
f 364/4/5 360/4/5 356/4/5
f 366/4/5 363/4/5 362/4/5
f 367/4/5 355/4/5 363/4/5
f 367/4/5 363/4/5 366/4/5
f 368/4/5 365/4/5 364/4/5
f 368/4/5 364/4/5 356/4/5
f 369/4/5 365/4/5 368/4/5
f 374/4/5 371/4/5 370/4/5
f 375/3/5 372/3/5 371/3/5
f 375/4/5 371/4/5 374/4/5
f 376/3/5 372/3/5 375/3/5
f 377/3/5 372/3/5 376/3/5
f 378/4/5 373/4/5 372/4/5
f 378/3/5 372/3/5 377/3/5
f 379/4/5 373/4/5 378/4/5
f 380/4/5 374/4/5 370/4/5
f 382/3/5 377/3/5 376/3/5
f 383/3/5 377/3/5 382/3/5
f 385/4/5 373/4/5 379/4/5
f 386/4/5 381/4/5 380/4/5
f 386/4/5 380/4/5 370/4/5
f 387/3/5 384/3/5 383/3/5
f 387/4/5 381/4/5 386/4/5
f 387/3/5 382/3/5 381/3/5
f 387/3/5 383/3/5 382/3/5
f 388/3/5 384/3/5 387/3/5
f 389/3/5 384/3/5 388/3/5
f 390/4/5 385/4/5 384/4/5
f 390/3/5 384/3/5 389/3/5
f 391/4/5 373/4/5 385/4/5
f 391/4/5 385/4/5 390/4/5
f 392/3/5 389/3/5 388/3/5
f 393/3/5 389/3/5 392/3/5
f 394/4/5 393/4/5 392/4/5
f 395/4/5 393/4/5 394/4/5
f 398/1/5 397/1/5 396/1/5
f 399/1/5 397/1/5 398/1/5
f 402/1/5 401/1/5 400/1/5
f 403/1/5 401/1/5 402/1/5
f 408/8/5 405/8/5 404/8/5
f 409/8/5 405/8/5 408/8/5
f 410/8/5 407/8/5 406/8/5
f 411/8/5 407/8/5 410/8/5
f 412/3/6 413/3/6 416/3/6
f 416/3/6 413/3/6 417/3/6
f 414/3/6 415/3/6 418/3/6
f 418/3/6 415/3/6 419/3/6
f 420/3/6 421/3/6 424/3/6
f 424/3/6 421/3/6 425/3/6
f 422/3/6 423/3/6 426/3/6
f 426/3/6 423/3/6 427/3/6
f 428/4/6 429/4/6 432/4/6
f 429/3/6 430/3/6 433/3/6
f 432/4/6 429/4/6 433/4/6
f 430/4/6 431/4/6 434/4/6
f 433/3/6 430/3/6 434/3/6
f 434/4/6 431/4/6 435/4/6
f 436/4/6 437/4/6 440/4/6
f 438/4/6 439/4/6 441/4/6
f 436/4/6 440/4/6 442/4/6
f 440/4/6 441/4/6 442/4/6
f 441/4/6 439/4/6 443/4/6
f 442/4/6 441/4/6 443/4/6
f 444/1/6 445/1/6 446/1/6
f 446/1/6 445/1/6 447/1/6
f 448/1/6 449/1/6 450/1/6
f 450/1/6 449/1/6 451/1/6
f 452/4/6 453/4/6 458/4/6
f 454/4/6 455/4/6 459/4/6
f 459/4/6 455/4/6 460/4/6
f 456/4/6 457/4/6 461/4/6
f 459/4/6 460/4/6 462/4/6
f 460/4/6 461/4/6 462/4/6
f 458/4/6 459/4/6 462/4/6
f 462/4/6 461/4/6 463/4/6
f 458/4/6 462/4/6 464/4/6
f 462/5/6 463/5/6 464/5/6
f 463/4/6 461/4/6 465/4/6
f 464/5/6 463/5/6 465/5/6
f 452/4/6 458/4/6 466/4/6
f 458/4/6 464/4/6 466/4/6
f 464/4/6 465/4/6 466/4/6
f 466/4/6 465/4/6 467/4/6
f 452/4/6 466/4/6 468/4/6
f 466/5/6 467/5/6 468/5/6
f 467/4/6 465/4/6 469/4/6
f 468/5/6 467/5/6 469/5/6
f 469/4/6 465/4/6 470/4/6
f 465/4/6 461/4/6 471/4/6
f 470/4/6 465/4/6 471/4/6
f 469/4/6 470/4/6 472/4/6
f 468/4/6 469/4/6 472/4/6
f 470/5/6 471/5/6 472/5/6
f 471/4/6 461/4/6 473/4/6
f 472/5/6 471/5/6 473/5/6
f 468/4/6 472/4/6 474/4/6
f 452/4/6 468/4/6 474/4/6
f 472/4/6 473/4/6 474/4/6
f 461/4/6 457/4/6 475/4/6
f 474/4/6 473/4/6 475/4/6
f 473/4/6 461/4/6 475/4/6
f 476/8/6 477/8/6 480/8/6
f 480/8/6 477/8/6 481/8/6
f 478/8/6 479/8/6 482/8/6
f 482/8/6 479/8/6 483/8/6
